SplineFontDB: 3.2
FontName: TRATONTypeDisplay-Bold
FullName: TRATON Type Display Bold
FamilyName: TRATON Type Display
Weight: Bold
Copyright: Copyright 2011 The Montserrat Project Authors (https://github.com/JulietaUla/Montserrat)
Version: 7.222
ItalicAngle: 0
UnderlinePosition: -100
UnderlineWidth: 50
Ascent: 800
Descent: 200
InvalidEm: 0
sfntRevision: 0x000738d4
LayerCount: 2
Layer: 0 1 "Back" 1
Layer: 1 1 "Fore" 0
XUID: [1021 135 -200125314 7005]
StyleMap: 0x0020
FSType: 0
OS2Version: 4
OS2_WeightWidthSlopeOnly: 0
OS2_UseTypoMetrics: 1
CreationTime: 1628264982
ModificationTime: 1765547935
PfmFamily: 81
TTFWeight: 700
TTFWidth: 5
LineGap: 0
VLineGap: 0
Panose: 0 0 8 0 0 0 0 0 0 0
OS2TypoAscent: 968
OS2TypoAOffset: 0
OS2TypoDescent: -251
OS2TypoDOffset: 0
OS2TypoLinegap: 0
OS2WinAscent: 1109
OS2WinAOffset: 0
OS2WinDescent: 270
OS2WinDOffset: 0
HheadAscent: 968
HheadAOffset: 0
HheadDescent: -251
HheadDOffset: 0
OS2SubXSize: 650
OS2SubYSize: 600
OS2SubXOff: 0
OS2SubYOff: 75
OS2SupXSize: 650
OS2SupYSize: 600
OS2SupXOff: 0
OS2SupYOff: 350
OS2StrikeYSize: 50
OS2StrikeYPos: 322
OS2CapHeight: 700
OS2XHeight: 538
OS2Vendor: 'ULA '
OS2CodePages: 20000197.00000000
OS2UnicodeRanges: 2000020f.00000003.00000000.00000000
Lookup: 1 0 0 "'aalt' Access All Alternates lookup 0" { "'aalt' Access All Alternates lookup 0 subtable"  } ['aalt' ('DFLT' <'dflt' > 'cyrl' <'BGR ' 'BSH ' 'CHU ' 'MKD ' 'SRB ' 'dflt' > 'latn' <'AZE ' 'CAT ' 'CRT ' 'KAZ ' 'MOL ' 'NLD ' 'ROM ' 'TAT ' 'TRK ' 'dflt' > ) ]
Lookup: 3 0 0 "'aalt' Access All Alternates lookup 1" { "'aalt' Access All Alternates lookup 1 subtable"  } ['aalt' ('DFLT' <'dflt' > 'cyrl' <'BGR ' 'BSH ' 'CHU ' 'MKD ' 'SRB ' 'dflt' > 'latn' <'AZE ' 'CAT ' 'CRT ' 'KAZ ' 'MOL ' 'NLD ' 'ROM ' 'TAT ' 'TRK ' 'dflt' > ) ]

StartChar: .notdef
Encoding: 65536 -1 0
Width: 587
GlyphClass: 1
Flags: W
LayerCount: 2
Fore
SplineSet
547 0 m 1,0,-1
 40 0 l 1,1,-1
 40 700 l 1,2,-1
 547 700 l 1,3,-1
 547 0 l 1,0,-1
120 630 m 1,4,-1
 120 70 l 1,5,-1
 467 70 l 1,6,-1
 467 630 l 1,7,-1
 120 630 l 1,4,-1
EndSplineSet
EndChar

StartChar: A
Encoding: 65 65 4
Width: 766
GlyphClass: 2
Flags: W
AnchorPoint: "Anchor-14" 383 700 basechar 0
AnchorPoint: "Anchor-13" 776 0 basechar 0
AnchorPoint: "Anchor-12" 383 0 basechar 0
LayerCount: 2
Fore
SplineSet
776 0 m 1,0,-1
 606 0 l 1,1,-1
 544 150 l 1,2,-1
 219 150 l 1,3,-1
 157 0 l 1,4,-1
 -9 0 l 1,5,-1
 303 700 l 1,6,-1
 463 700 l 1,7,-1
 776 0 l 1,0,-1
382 541 m 1,8,-1
 271 273 l 1,9,-1
 493 273 l 1,10,-1
 382 541 l 1,8,-1
EndSplineSet
Substitution2: "Single Substitution lookup 40 subtable" ordfeminine
Substitution2: "'ss01' Style Set 1 lookup 35 subtable" A.ss01
Substitution2: "'salt' Stylistic Alternatives lookup 34 subtable" A.ss01
Substitution2: "'c2sc' Capitals to Small Capitals lookup 29 subtable" a.sc
AlternateSubs2: "'aalt' Access All Alternates lookup 1 subtable" ordfeminine a.sc A.ss01
EndChar

StartChar: Aogonek
Encoding: 260 260 26
Width: 766
GlyphClass: 2
Flags: W
AnchorPoint: "Anchor-14" 383 700 basechar 0
AnchorPoint: "Anchor-13" 776 0 basechar 0
AnchorPoint: "Anchor-12" 383 0 basechar 0
LayerCount: 2
Fore
SplineSet
799 -209 m 1,0,1
 780 -219 780 -219 753 -225.5 c 128,-1,2
 726 -232 726 -232 698 -232 c 0,3,4
 634 -232 634 -232 597 -201.5 c 128,-1,5
 560 -171 560 -171 560 -120 c 0,6,7
 560 -51 560 -51 633 0 c 1,8,-1
 606 0 l 1,9,-1
 544 150 l 1,10,-1
 219 150 l 1,11,-1
 157 0 l 1,12,-1
 -9 0 l 1,13,-1
 303 700 l 1,14,-1
 463 700 l 1,15,-1
 776 0 l 1,16,17
 713 -28 713 -28 686 -53.5 c 128,-1,18
 659 -79 659 -79 659 -107 c 0,19,20
 659 -128 659 -128 674.5 -140.5 c 128,-1,21
 690 -153 690 -153 716 -153 c 0,22,23
 750 -153 750 -153 777 -138 c 1,24,-1
 799 -209 l 1,0,1
382 541 m 1,25,-1
 271 273 l 1,26,-1
 493 273 l 1,27,-1
 382 541 l 1,25,-1
EndSplineSet
Substitution2: "'ss01' Style Set 1 lookup 35 subtable" Aogonek.ss01
Substitution2: "'salt' Stylistic Alternatives lookup 34 subtable" Aogonek.ss01
Substitution2: "'c2sc' Capitals to Small Capitals lookup 29 subtable" aogonek.sc
AlternateSubs2: "'aalt' Access All Alternates lookup 1 subtable" aogonek.sc Aogonek.ss01
EndChar

StartChar: AE
Encoding: 198 198 30
Width: 1080
GlyphClass: 2
Flags: W
AnchorPoint: "Anchor-14" 572 700 basechar 0
AnchorPoint: "Anchor-12" 572 0 basechar 0
LayerCount: 2
Fore
SplineSet
653 292 m 1,0,-1
 653 130 l 1,1,-1
 1034 130 l 1,2,-1
 1034 0 l 1,3,-1
 492 0 l 1,4,-1
 492 150 l 1,5,-1
 239 150 l 1,6,-1
 157 0 l 1,7,-1
 -9 0 l 1,8,-1
 386 700 l 1,9,-1
 1021 700 l 1,10,-1
 1021 570 l 1,11,-1
 653 570 l 1,12,-1
 653 418 l 1,13,-1
 979 418 l 1,14,-1
 979 292 l 1,15,-1
 653 292 l 1,0,-1
469 570 m 1,16,-1
 306 273 l 1,17,-1
 492 273 l 1,18,-1
 492 570 l 1,19,-1
 469 570 l 1,16,-1
EndSplineSet
Substitution2: "'ss01' Style Set 1 lookup 35 subtable" AE.ss01
Substitution2: "'salt' Stylistic Alternatives lookup 34 subtable" AE.ss01
Substitution2: "'c2sc' Capitals to Small Capitals lookup 29 subtable" ae.sc
AlternateSubs2: "'aalt' Access All Alternates lookup 1 subtable" ae.sc AE.ss01
EndChar

StartChar: B
Encoding: 66 66 32
Width: 765
GlyphClass: 2
Flags: W
AnchorPoint: "Anchor-14" 380 700 basechar 0
AnchorPoint: "Anchor-12" 380 0 basechar 0
LayerCount: 2
Fore
SplineSet
691 300.5 m 128,-1,1
 725 256 725 256 725 191 c 0,2,3
 725 99 725 99 653.5 49.5 c 128,-1,4
 582 0 582 0 445 0 c 2,5,-1
 83 0 l 1,6,-1
 83 700 l 1,7,-1
 425 700 l 2,8,9
 553 700 553 700 621.5 651 c 128,-1,10
 690 602 690 602 690 518 c 0,11,12
 690 467 690 467 665.5 427 c 128,-1,13
 641 387 641 387 597 364 c 1,14,0
 657 345 657 345 691 300.5 c 128,-1,1
244 578 m 1,15,-1
 244 413 l 1,16,-1
 405 413 l 2,17,18
 465 413 465 413 496 434 c 128,-1,19
 527 455 527 455 527 496 c 256,20,21
 527 537 527 537 496 557.5 c 128,-1,22
 465 578 465 578 405 578 c 2,23,-1
 244 578 l 1,15,-1
433 122 m 2,24,25
 497 122 497 122 529.5 143 c 128,-1,26
 562 164 562 164 562 208 c 0,27,28
 562 295 562 295 433 295 c 2,29,-1
 244 295 l 1,30,-1
 244 122 l 1,31,-1
 433 122 l 2,24,25
EndSplineSet
Substitution2: "'c2sc' Capitals to Small Capitals lookup 29 subtable" b.sc
Substitution2: "'aalt' Access All Alternates lookup 0 subtable" b.sc
EndChar

StartChar: C
Encoding: 67 67 33
Width: 733
GlyphClass: 2
Flags: W
AnchorPoint: "Anchor-14" 414 700 basechar 0
AnchorPoint: "Anchor-12" 397 0 basechar 0
LayerCount: 2
Fore
SplineSet
224.5 34.5 m 128,-1,1
 138 81 138 81 88.5 163.5 c 128,-1,2
 39 246 39 246 39 350 c 256,3,4
 39 454 39 454 88.5 536.5 c 128,-1,5
 138 619 138 619 224.5 665.5 c 128,-1,6
 311 712 311 712 419 712 c 0,7,8
 510 712 510 712 583.5 680 c 128,-1,9
 657 648 657 648 707 588 c 1,10,-1
 603 492 l 1,11,12
 532 574 532 574 427 574 c 0,13,14
 362 574 362 574 311 545.5 c 128,-1,15
 260 517 260 517 231.5 466 c 128,-1,16
 203 415 203 415 203 350 c 256,17,18
 203 285 203 285 231.5 234 c 128,-1,19
 260 183 260 183 311 154.5 c 128,-1,20
 362 126 362 126 427 126 c 0,21,22
 532 126 532 126 603 209 c 1,23,-1
 707 113 l 1,24,25
 657 52 657 52 583 20 c 128,-1,26
 509 -12 509 -12 418 -12 c 0,27,0
 311 -12 311 -12 224.5 34.5 c 128,-1,1
EndSplineSet
Substitution2: "'c2sc' Capitals to Small Capitals lookup 29 subtable" c.sc
Substitution2: "'aalt' Access All Alternates lookup 0 subtable" c.sc
EndChar

StartChar: Ccedilla
Encoding: 199 199 36
Width: 733
GlyphClass: 2
Flags: W
AnchorPoint: "Anchor-14" 414 700 basechar 0
AnchorPoint: "Anchor-12" 397 0 basechar 0
LayerCount: 2
Fore
SplineSet
603 209 m 1,1,-1
 707 113 l 1,2,3
 660 55 660 55 590 23 c 128,-1,4
 520 -9 520 -9 433 -12 c 1,5,-1
 424 -50 l 1,6,7
 468 -55 468 -55 489.5 -77.5 c 128,-1,8
 511 -100 511 -100 511 -133 c 0,9,10
 511 -179 511 -179 471 -205.5 c 128,-1,11
 431 -232 431 -232 364 -232 c 0,12,13
 338 -232 338 -232 313 -226.5 c 128,-1,14
 288 -221 288 -221 271 -211 c 1,15,-1
 295 -144 l 1,16,17
 327 -159 327 -159 360 -159 c 0,18,19
 412 -159 412 -159 412 -127 c 0,20,21
 412 -98 412 -98 363 -98 c 2,22,-1
 329 -98 l 1,23,-1
 351 -7 l 1,24,25
 260 7 260 7 189.5 56 c 128,-1,26
 119 105 119 105 79 181 c 128,-1,27
 39 257 39 257 39 350 c 0,28,29
 39 454 39 454 88.5 536.5 c 128,-1,30
 138 619 138 619 224.5 665.5 c 128,-1,31
 311 712 311 712 419 712 c 0,32,33
 510 712 510 712 583.5 680 c 128,-1,34
 657 648 657 648 707 588 c 1,35,-1
 603 492 l 1,36,37
 532 574 532 574 427 574 c 0,38,39
 362 574 362 574 311 545.5 c 128,-1,40
 260 517 260 517 231.5 466 c 128,-1,41
 203 415 203 415 203 350 c 256,42,43
 203 285 203 285 231.5 234 c 128,-1,44
 260 183 260 183 311 154.5 c 128,-1,45
 362 126 362 126 427 126 c 0,46,0
 532 126 532 126 603 209 c 1,1,-1
EndSplineSet
Substitution2: "'c2sc' Capitals to Small Capitals lookup 29 subtable" ccedilla.sc
Substitution2: "'aalt' Access All Alternates lookup 0 subtable" ccedilla.sc
EndChar

StartChar: uni1E08
Encoding: 7688 7688 37
Width: 733
GlyphClass: 2
Flags: W
AnchorPoint: "Anchor-14" 414 700 basechar 0
AnchorPoint: "Anchor-12" 397 0 basechar 0
LayerCount: 2
Fore
SplineSet
458 901 m 1,0,-1
 626 901 l 1,1,-1
 445 757 l 1,2,-1
 323 757 l 1,3,-1
 458 901 l 1,0,-1
603 209 m 1,5,-1
 707 113 l 1,6,7
 660 55 660 55 590 23 c 128,-1,8
 520 -9 520 -9 433 -12 c 1,9,-1
 424 -50 l 1,10,11
 468 -55 468 -55 489.5 -77.5 c 128,-1,12
 511 -100 511 -100 511 -133 c 0,13,14
 511 -179 511 -179 471 -205.5 c 128,-1,15
 431 -232 431 -232 364 -232 c 0,16,17
 338 -232 338 -232 313 -226.5 c 128,-1,18
 288 -221 288 -221 271 -211 c 1,19,-1
 295 -144 l 1,20,21
 327 -159 327 -159 360 -159 c 0,22,23
 412 -159 412 -159 412 -127 c 0,24,25
 412 -98 412 -98 363 -98 c 2,26,-1
 329 -98 l 1,27,-1
 351 -7 l 1,28,29
 260 7 260 7 189.5 56 c 128,-1,30
 119 105 119 105 79 181 c 128,-1,31
 39 257 39 257 39 350 c 0,32,33
 39 454 39 454 88.5 536.5 c 128,-1,34
 138 619 138 619 224.5 665.5 c 128,-1,35
 311 712 311 712 419 712 c 0,36,37
 510 712 510 712 583.5 680 c 128,-1,38
 657 648 657 648 707 588 c 1,39,-1
 603 492 l 1,40,41
 532 574 532 574 427 574 c 0,42,43
 362 574 362 574 311 545.5 c 128,-1,44
 260 517 260 517 231.5 466 c 128,-1,45
 203 415 203 415 203 350 c 256,46,47
 203 285 203 285 231.5 234 c 128,-1,48
 260 183 260 183 311 154.5 c 128,-1,49
 362 126 362 126 427 126 c 0,50,4
 532 126 532 126 603 209 c 1,5,-1
EndSplineSet
Substitution2: "'c2sc' Capitals to Small Capitals lookup 29 subtable" uni1E09.sc
Substitution2: "'aalt' Access All Alternates lookup 0 subtable" uni1E09.sc
EndChar

StartChar: D
Encoding: 68 68 40
Width: 826
GlyphClass: 2
Flags: W
AnchorPoint: "Anchor-15" 204 356 basechar 0
AnchorPoint: "Anchor-14" 370 699 basechar 0
AnchorPoint: "Anchor-12" 373 0 basechar 0
LayerCount: 2
Fore
SplineSet
83 0 m 1,0,-1
 83 700 l 1,1,-1
 401 700 l 2,2,3
 515 700 515 700 602.5 656.5 c 128,-1,4
 690 613 690 613 738.5 534 c 128,-1,5
 787 455 787 455 787 350 c 256,6,7
 787 245 787 245 738.5 166 c 128,-1,8
 690 87 690 87 602.5 43.5 c 128,-1,9
 515 0 515 0 401 0 c 2,10,-1
 83 0 l 1,0,-1
393 133 m 2,11,12
 498 133 498 133 560.5 191.5 c 128,-1,13
 623 250 623 250 623 350 c 256,14,15
 623 450 623 450 560.5 508.5 c 128,-1,16
 498 567 498 567 393 567 c 2,17,-1
 245 567 l 1,18,-1
 245 133 l 1,19,-1
 393 133 l 2,11,12
EndSplineSet
Substitution2: "'c2sc' Capitals to Small Capitals lookup 29 subtable" d.sc
Substitution2: "'aalt' Access All Alternates lookup 0 subtable" d.sc
EndChar

StartChar: Eth
Encoding: 208 208 42
Width: 839
GlyphClass: 2
Flags: W
AnchorPoint: "Anchor-15" 217 356 basechar 0
AnchorPoint: "Anchor-14" 383 699 basechar 0
AnchorPoint: "Anchor-12" 386 0 basechar 0
LayerCount: 2
Fore
SplineSet
414 700 m 2,0,1
 528 700 528 700 615.5 656.5 c 128,-1,2
 703 613 703 613 751.5 534 c 128,-1,3
 800 455 800 455 800 350 c 256,4,5
 800 245 800 245 751.5 166 c 128,-1,6
 703 87 703 87 615.5 43.5 c 128,-1,7
 528 0 528 0 414 0 c 2,8,-1
 96 0 l 1,9,-1
 96 302 l 1,10,-1
 1 302 l 1,11,-1
 1 410 l 1,12,-1
 96 410 l 1,13,-1
 96 700 l 1,14,-1
 414 700 l 2,0,1
406 133 m 2,15,16
 511 133 511 133 573.5 191.5 c 128,-1,17
 636 250 636 250 636 350 c 256,18,19
 636 450 636 450 573.5 508.5 c 128,-1,20
 511 567 511 567 406 567 c 2,21,-1
 258 567 l 1,22,-1
 258 410 l 1,23,-1
 433 410 l 1,24,-1
 433 302 l 1,25,-1
 258 302 l 1,26,-1
 258 133 l 1,27,-1
 406 133 l 2,15,16
EndSplineSet
Substitution2: "'c2sc' Capitals to Small Capitals lookup 29 subtable" eth.sc
Substitution2: "'aalt' Access All Alternates lookup 0 subtable" eth.sc
EndChar

StartChar: E
Encoding: 69 69 48
Width: 671
GlyphClass: 2
Flags: W
AnchorPoint: "Anchor-14" 348 700 basechar 0
AnchorPoint: "Anchor-13" 625 0 basechar 0
AnchorPoint: "Anchor-12" 353 0 basechar 0
LayerCount: 2
Fore
SplineSet
244 292 m 1,0,-1
 244 130 l 1,1,-1
 625 130 l 1,2,-1
 625 0 l 1,3,-1
 83 0 l 1,4,-1
 83 700 l 1,5,-1
 612 700 l 1,6,-1
 612 570 l 1,7,-1
 244 570 l 1,8,-1
 244 418 l 1,9,-1
 569 418 l 1,10,-1
 569 292 l 1,11,-1
 244 292 l 1,0,-1
EndSplineSet
Substitution2: "'ss01' Style Set 1 lookup 35 subtable" E.ss01
Substitution2: "'salt' Stylistic Alternatives lookup 34 subtable" E.ss01
Substitution2: "'c2sc' Capitals to Small Capitals lookup 29 subtable" e.sc
AlternateSubs2: "'aalt' Access All Alternates lookup 1 subtable" e.sc E.ss01
EndChar

StartChar: uni1E1C
Encoding: 7708 7708 52
Width: 671
GlyphClass: 2
Flags: W
AnchorPoint: "Anchor-14" 348 700 basechar 0
AnchorPoint: "Anchor-13" 625 0 basechar 0
AnchorPoint: "Anchor-12" 353 0 basechar 0
LayerCount: 2
Fore
SplineSet
218 790 m 128,-1,1
 167 831 167 831 164 901 c 1,2,-1
 262 901 l 1,3,4
 263 869 263 869 287.5 849.5 c 128,-1,5
 312 830 312 830 348 830 c 256,6,7
 384 830 384 830 408.5 849.5 c 128,-1,8
 433 869 433 869 434 901 c 1,9,-1
 532 901 l 1,10,11
 529 831 529 831 478 790 c 128,-1,12
 427 749 427 749 348 749 c 256,13,0
 269 749 269 749 218 790 c 128,-1,1
625 0 m 1,14,-1
 392 0 l 1,15,-1
 380 -50 l 1,16,17
 424 -55 424 -55 445.5 -77.5 c 128,-1,18
 467 -100 467 -100 467 -133 c 0,19,20
 467 -179 467 -179 427 -205.5 c 128,-1,21
 387 -232 387 -232 320 -232 c 0,22,23
 294 -232 294 -232 269 -226.5 c 128,-1,24
 244 -221 244 -221 227 -211 c 1,25,-1
 251 -144 l 1,26,27
 283 -159 283 -159 316 -159 c 0,28,29
 368 -159 368 -159 368 -127 c 0,30,31
 368 -98 368 -98 319 -98 c 2,32,-1
 285 -98 l 1,33,-1
 309 0 l 1,34,-1
 83 0 l 1,35,-1
 83 700 l 1,36,-1
 612 700 l 1,37,-1
 612 570 l 1,38,-1
 244 570 l 1,39,-1
 244 418 l 1,40,-1
 569 418 l 1,41,-1
 569 292 l 1,42,-1
 244 292 l 1,43,-1
 244 130 l 1,44,-1
 625 130 l 1,45,-1
 625 0 l 1,14,-1
EndSplineSet
Substitution2: "'ss01' Style Set 1 lookup 35 subtable" uni1E1C.ss01
Substitution2: "'salt' Stylistic Alternatives lookup 34 subtable" uni1E1C.ss01
Substitution2: "'c2sc' Capitals to Small Capitals lookup 29 subtable" uni1E1D.sc
AlternateSubs2: "'aalt' Access All Alternates lookup 1 subtable" uni1E1D.sc uni1E1C.ss01
EndChar

StartChar: Eogonek
Encoding: 280 280 69
Width: 671
GlyphClass: 2
Flags: W
AnchorPoint: "Anchor-14" 348 700 basechar 0
AnchorPoint: "Anchor-13" 625 0 basechar 0
AnchorPoint: "Anchor-12" 353 0 basechar 0
LayerCount: 2
Fore
SplineSet
649 -209 m 1,0,1
 630 -219 630 -219 603 -225.5 c 128,-1,2
 576 -232 576 -232 548 -232 c 0,3,4
 484 -232 484 -232 447 -201.5 c 128,-1,5
 410 -171 410 -171 410 -120 c 0,6,7
 410 -51 410 -51 483 0 c 1,8,-1
 83 0 l 1,9,-1
 83 700 l 1,10,-1
 612 700 l 1,11,-1
 612 570 l 1,12,-1
 244 570 l 1,13,-1
 244 418 l 1,14,-1
 569 418 l 1,15,-1
 569 292 l 1,16,-1
 244 292 l 1,17,-1
 244 130 l 1,18,-1
 625 130 l 1,19,-1
 625 1 l 1,20,-1
 626 0 l 1,21,22
 563 -28 563 -28 536 -53.5 c 128,-1,23
 509 -79 509 -79 509 -107 c 0,24,25
 509 -128 509 -128 524.5 -140.5 c 128,-1,26
 540 -153 540 -153 566 -153 c 0,27,28
 600 -153 600 -153 627 -138 c 1,29,-1
 649 -209 l 1,0,1
EndSplineSet
Substitution2: "'ss01' Style Set 1 lookup 35 subtable" Eogonek.ss01
Substitution2: "'salt' Stylistic Alternatives lookup 34 subtable" Eogonek.ss01
Substitution2: "'c2sc' Capitals to Small Capitals lookup 29 subtable" eogonek.sc
AlternateSubs2: "'aalt' Access All Alternates lookup 1 subtable" eogonek.sc Eogonek.ss01
EndChar

StartChar: F
Encoding: 70 70 73
Width: 639
GlyphClass: 1
Flags: W
LayerCount: 2
Fore
SplineSet
612 700 m 1,0,-1
 612 570 l 1,1,-1
 245 570 l 1,2,-1
 245 385 l 1,3,-1
 569 385 l 1,4,-1
 569 255 l 1,5,-1
 245 255 l 1,6,-1
 245 0 l 1,7,-1
 83 0 l 1,8,-1
 83 700 l 1,9,-1
 612 700 l 1,0,-1
EndSplineSet
Substitution2: "'ss01' Style Set 1 lookup 35 subtable" F.ss01
Substitution2: "'salt' Stylistic Alternatives lookup 34 subtable" F.ss01
Substitution2: "'c2sc' Capitals to Small Capitals lookup 29 subtable" f.sc
AlternateSubs2: "'aalt' Access All Alternates lookup 1 subtable" f.sc F.ss01
EndChar

StartChar: G
Encoding: 71 71 74
Width: 771
GlyphClass: 2
Flags: W
AnchorPoint: "Anchor-14" 417 700 basechar 0
AnchorPoint: "Anchor-12" 407 0 basechar 0
LayerCount: 2
Fore
SplineSet
556 361 m 1,0,-1
 704 361 l 1,1,-1
 704 77 l 1,2,3
 647 34 647 34 572 11 c 128,-1,4
 497 -12 497 -12 421 -12 c 0,5,6
 312 -12 312 -12 225 34.5 c 128,-1,7
 138 81 138 81 88.5 163.5 c 128,-1,8
 39 246 39 246 39 350 c 256,9,10
 39 454 39 454 88.5 536.5 c 128,-1,11
 138 619 138 619 226 665.5 c 128,-1,12
 314 712 314 712 424 712 c 0,13,14
 516 712 516 712 591 681 c 128,-1,15
 666 650 666 650 717 591 c 1,16,-1
 613 495 l 1,17,18
 538 574 538 574 432 574 c 0,19,20
 365 574 365 574 313 546 c 128,-1,21
 261 518 261 518 232 467 c 128,-1,22
 203 416 203 416 203 350 c 0,23,24
 203 285 203 285 232 234 c 128,-1,25
 261 183 261 183 312.5 154.5 c 128,-1,26
 364 126 364 126 430 126 c 0,27,28
 500 126 500 126 556 156 c 1,29,-1
 556 361 l 1,0,-1
EndSplineSet
Substitution2: "'ss01' Style Set 1 lookup 35 subtable" G.ss01
Substitution2: "'salt' Stylistic Alternatives lookup 34 subtable" G.ss01
Substitution2: "'c2sc' Capitals to Small Capitals lookup 29 subtable" g.sc
AlternateSubs2: "'aalt' Access All Alternates lookup 1 subtable" g.sc G.ss01
EndChar

StartChar: uni01E4
Encoding: 484 484 81
Width: 811
GlyphClass: 2
Flags: W
AnchorPoint: "Anchor-14" 417 700 basechar 0
AnchorPoint: "Anchor-12" 407 0 basechar 0
LayerCount: 2
Fore
SplineSet
792 305 m 1,0,-1
 792 198 l 1,1,-1
 704 198 l 1,2,-1
 704 77 l 1,3,4
 647 34 647 34 572 11 c 128,-1,5
 497 -12 497 -12 421 -12 c 0,6,7
 312 -12 312 -12 225 34.5 c 128,-1,8
 138 81 138 81 88.5 163.5 c 128,-1,9
 39 246 39 246 39 350 c 256,10,11
 39 454 39 454 88.5 536.5 c 128,-1,12
 138 619 138 619 226 665.5 c 128,-1,13
 314 712 314 712 424 712 c 0,14,15
 516 712 516 712 591 681 c 128,-1,16
 666 650 666 650 717 591 c 1,17,-1
 613 495 l 1,18,19
 538 574 538 574 432 574 c 0,20,21
 365 574 365 574 313 546 c 128,-1,22
 261 518 261 518 232 467 c 128,-1,23
 203 416 203 416 203 350 c 0,24,25
 203 285 203 285 232 234 c 128,-1,26
 261 183 261 183 312.5 154.5 c 128,-1,27
 364 126 364 126 430 126 c 0,28,29
 500 126 500 126 556 156 c 1,30,-1
 556 198 l 1,31,-1
 393 198 l 1,32,-1
 393 305 l 1,33,-1
 556 305 l 1,34,-1
 556 361 l 1,35,-1
 704 361 l 1,36,-1
 704 305 l 1,37,-1
 792 305 l 1,0,-1
EndSplineSet
Substitution2: "'ss01' Style Set 1 lookup 35 subtable" uni01E4.ss01
Substitution2: "'salt' Stylistic Alternatives lookup 34 subtable" uni01E4.ss01
Substitution2: "'c2sc' Capitals to Small Capitals lookup 29 subtable" uni01E5.sc
AlternateSubs2: "'aalt' Access All Alternates lookup 1 subtable" uni01E5.sc uni01E4.ss01
EndChar

StartChar: H
Encoding: 72 72 82
Width: 808
GlyphClass: 2
Flags: W
AnchorPoint: "Anchor-15" 404 564 basechar 0
AnchorPoint: "Anchor-14" 404 700 basechar 0
AnchorPoint: "Anchor-12" 404 0 basechar 0
LayerCount: 2
Fore
SplineSet
563 424 m 1,0,-1
 563 700 l 1,1,-1
 725 700 l 1,2,-1
 725 0 l 1,3,-1
 563 0 l 1,4,-1
 563 287 l 1,5,-1
 245 287 l 1,6,-1
 245 0 l 1,7,-1
 83 0 l 1,8,-1
 83 700 l 1,9,-1
 245 700 l 1,10,-1
 245 424 l 1,11,-1
 563 424 l 1,0,-1
EndSplineSet
Substitution2: "'c2sc' Capitals to Small Capitals lookup 29 subtable" h.sc
Substitution2: "'aalt' Access All Alternates lookup 0 subtable" h.sc
EndChar

StartChar: Hbar
Encoding: 294 294 83
Width: 834
GlyphClass: 2
Flags: W
AnchorPoint: "Anchor-15" 417 564 basechar 0
AnchorPoint: "Anchor-14" 417 700 basechar 0
AnchorPoint: "Anchor-12" 417 0 basechar 0
LayerCount: 2
Fore
SplineSet
738 618 m 1,0,-1
 833 618 l 1,1,-1
 833 510 l 1,2,-1
 738 510 l 1,3,-1
 738 0 l 1,4,-1
 576 0 l 1,5,-1
 576 287 l 1,6,-1
 258 287 l 1,7,-1
 258 0 l 1,8,-1
 96 0 l 1,9,-1
 96 510 l 1,10,-1
 1 510 l 1,11,-1
 1 618 l 1,12,-1
 96 618 l 1,13,-1
 96 700 l 1,14,-1
 258 700 l 1,15,-1
 258 618 l 1,16,-1
 576 618 l 1,17,-1
 576 700 l 1,18,-1
 738 700 l 1,19,-1
 738 618 l 1,0,-1
258 424 m 1,20,-1
 576 424 l 1,21,-1
 576 510 l 1,22,-1
 258 510 l 1,23,-1
 258 424 l 1,20,-1
EndSplineSet
Substitution2: "'c2sc' Capitals to Small Capitals lookup 29 subtable" hbar.sc
Substitution2: "'aalt' Access All Alternates lookup 0 subtable" hbar.sc
EndChar

StartChar: I
Encoding: 73 73 88
Width: 328
GlyphClass: 2
Flags: W
AnchorPoint: "Anchor-14" 164 700 basechar 0
AnchorPoint: "Anchor-13" 245 0 basechar 0
AnchorPoint: "Anchor-12" 164 0 basechar 0
LayerCount: 2
Fore
SplineSet
245 0 m 1,0,-1
 83 0 l 1,1,-1
 83 700 l 1,2,-1
 245 700 l 1,3,-1
 245 0 l 1,0,-1
EndSplineSet
Substitution2: "'ss01' Style Set 1 lookup 35 subtable" I.ss01
Substitution2: "'salt' Stylistic Alternatives lookup 34 subtable" I.ss01
Substitution2: "'c2sc' Capitals to Small Capitals lookup 29 subtable" i.sc
AlternateSubs2: "'aalt' Access All Alternates lookup 1 subtable" i.sc I.ss01
EndChar

StartChar: IJ
Encoding: 306 306 89
Width: 724
GlyphClass: 2
Flags: W
AnchorPoint: "Anchor-14" 158 700 basechar 0
LayerCount: 2
Fore
SplineSet
181.5 8.5 m 128,-1,1
 113 29 113 29 61 65 c 1,2,-1
 122 187 l 1,3,4
 168 156 168 156 220.5 140 c 128,-1,5
 273 124 273 124 324 124 c 0,6,7
 485 124 485 124 485 307 c 2,8,-1
 485 700 l 1,9,-1
 647 700 l 1,10,-1
 647 315 l 2,11,12
 647 210 647 210 607.5 136.5 c 128,-1,13
 568 63 568 63 496 25.5 c 128,-1,14
 424 -12 424 -12 327 -12 c 0,15,0
 250 -12 250 -12 181.5 8.5 c 128,-1,1
239 322 m 1,16,-1
 77 322 l 1,17,-1
 77 700 l 1,18,-1
 239 700 l 1,19,-1
 239 322 l 1,16,-1
EndSplineSet
Substitution2: "'ss01' Style Set 1 lookup 35 subtable" IJ.ss01
Substitution2: "'salt' Stylistic Alternatives lookup 34 subtable" IJ.ss01
Substitution2: "'c2sc' Capitals to Small Capitals lookup 29 subtable" ij.sc
AlternateSubs2: "'aalt' Access All Alternates lookup 1 subtable" ij.sc IJ.ss01
EndChar

StartChar: Iogonek
Encoding: 302 302 102
Width: 328
GlyphClass: 2
Flags: W
AnchorPoint: "Anchor-14" 164 700 basechar 0
AnchorPoint: "Anchor-13" 245 0 basechar 0
AnchorPoint: "Anchor-12" 164 0 basechar 0
LayerCount: 2
Fore
SplineSet
277 -211 m 1,0,1
 248 -232 248 -232 203 -232 c 0,2,3
 149 -232 149 -232 116 -201.5 c 128,-1,4
 83 -171 83 -171 83 -121 c 0,5,6
 83 -54 83 -54 141 0 c 1,7,-1
 83 0 l 1,8,-1
 83 700 l 1,9,-1
 245 700 l 1,10,-1
 245 1 l 1,11,-1
 246 0 l 1,12,13
 210 -29 210 -29 195.5 -54.5 c 128,-1,14
 181 -80 181 -80 181 -106 c 0,15,16
 181 -127 181 -127 193 -140 c 128,-1,17
 205 -153 205 -153 223 -153 c 256,18,19
 241 -153 241 -153 255 -143 c 1,20,-1
 277 -211 l 1,0,1
EndSplineSet
Substitution2: "'ss01' Style Set 1 lookup 35 subtable" Iogonek.ss01
Substitution2: "'salt' Stylistic Alternatives lookup 34 subtable" Iogonek.ss01
Substitution2: "'c2sc' Capitals to Small Capitals lookup 29 subtable" iogonek.sc
AlternateSubs2: "'aalt' Access All Alternates lookup 1 subtable" iogonek.sc Iogonek.ss01
EndChar

StartChar: J
Encoding: 74 74 104
Width: 541
GlyphClass: 2
Flags: W
AnchorPoint: "Anchor-14" 261 700 basechar 0
LayerCount: 2
Fore
SplineSet
81.5 14.5 m 128,-1,1
 22 41 22 41 -16 90 c 1,2,-1
 74 198 l 1,3,4
 131 121 131 121 204 121 c 0,5,6
 303 121 303 121 303 237 c 2,7,-1
 303 570 l 1,8,-1
 57 570 l 1,9,-1
 57 700 l 1,10,-1
 464 700 l 1,11,-1
 464 246 l 2,12,13
 464 117 464 117 400 52.5 c 128,-1,14
 336 -12 336 -12 212 -12 c 0,15,0
 141 -12 141 -12 81.5 14.5 c 128,-1,1
EndSplineSet
Substitution2: "'ss01' Style Set 1 lookup 35 subtable" J.ss01
Substitution2: "'salt' Stylistic Alternatives lookup 34 subtable" J.ss01
Substitution2: "'c2sc' Capitals to Small Capitals lookup 29 subtable" j.sc
AlternateSubs2: "'aalt' Access All Alternates lookup 1 subtable" j.sc J.ss01
EndChar

StartChar: K
Encoding: 75 75 107
Width: 740
GlyphClass: 2
Flags: W
AnchorPoint: "Anchor-14" 379 700 basechar 0
AnchorPoint: "Anchor-12" 379 0 basechar 0
LayerCount: 2
Fore
SplineSet
751 0 m 1,0,-1
 562 0 l 1,1,-1
 338 275 l 1,2,-1
 244 177 l 1,3,-1
 244 0 l 1,4,-1
 83 0 l 1,5,-1
 83 700 l 1,6,-1
 244 700 l 1,7,-1
 244 373 l 1,8,-1
 554 700 l 1,9,-1
 734 700 l 1,10,-1
 444 388 l 1,11,-1
 751 0 l 1,0,-1
EndSplineSet
Substitution2: "'c2sc' Capitals to Small Capitals lookup 29 subtable" k.sc
Substitution2: "'aalt' Access All Alternates lookup 0 subtable" k.sc
EndChar

StartChar: L
Encoding: 76 76 110
Width: 604
GlyphClass: 2
Flags: W
AnchorPoint: "Anchor-16" 431 700 basechar 0
AnchorPoint: "Anchor-15" 164 387 basechar 0
AnchorPoint: "Anchor-14" 164 700 basechar 0
AnchorPoint: "Anchor-12" 351 0 basechar 0
LayerCount: 2
Fore
SplineSet
596 0 m 1,0,-1
 83 0 l 1,1,-1
 83 700 l 1,2,-1
 245 700 l 1,3,-1
 245 132 l 1,4,-1
 596 132 l 1,5,-1
 596 0 l 1,0,-1
EndSplineSet
Substitution2: "'c2sc' Capitals to Small Capitals lookup 29 subtable" l.sc
Substitution2: "'aalt' Access All Alternates lookup 0 subtable" l.sc
EndChar

StartChar: uni01C7
Encoding: 455 455 111
Width: 1146
GlyphClass: 2
Flags: W
AnchorPoint: "Anchor-16" 431 700 basechar 0
AnchorPoint: "Anchor-15" 164 387 basechar 0
AnchorPoint: "Anchor-14" 865 700 basechar 0
AnchorPoint: "Anchor-12" 351 0 basechar 0
LayerCount: 2
Fore
SplineSet
661 700 m 1,0,-1
 1068 700 l 1,1,-1
 1068 246 l 2,2,3
 1068 117 1068 117 1004 52.5 c 128,-1,4
 940 -12 940 -12 816 -12 c 0,5,6
 749 -12 749 -12 691.5 11.5 c 128,-1,7
 634 35 634 35 596 80 c 1,8,-1
 596 0 l 1,9,-1
 83 0 l 1,10,-1
 83 700 l 1,11,-1
 245 700 l 1,12,-1
 245 132 l 1,13,-1
 596 132 l 1,14,-1
 596 100 l 1,15,-1
 678 198 l 1,16,17
 735 121 735 121 808 121 c 0,18,19
 907 121 907 121 907 237 c 2,20,-1
 907 570 l 1,21,-1
 661 570 l 1,22,-1
 661 700 l 1,0,-1
EndSplineSet
Substitution2: "'ss01' Style Set 1 lookup 35 subtable" uni01C7.ss01
Substitution2: "'salt' Stylistic Alternatives lookup 34 subtable" uni01C7.ss01
Substitution2: "'c2sc' Capitals to Small Capitals lookup 29 subtable" uni01C9.sc
AlternateSubs2: "'aalt' Access All Alternates lookup 1 subtable" uni01C9.sc uni01C7.ss01
EndChar

StartChar: Lslash
Encoding: 321 321 119
Width: 617
GlyphClass: 2
Flags: W
AnchorPoint: "Anchor-16" 444 700 basechar 0
AnchorPoint: "Anchor-15" 177 387 basechar 0
AnchorPoint: "Anchor-14" 177 700 basechar 0
AnchorPoint: "Anchor-12" 364 0 basechar 0
LayerCount: 2
Fore
SplineSet
258 387 m 1,0,-1
 258 132 l 1,1,-1
 609 132 l 1,2,-1
 609 0 l 1,3,-1
 96 0 l 1,4,-1
 96 265 l 1,5,-1
 44 226 l 1,6,-1
 -14 304 l 1,7,-1
 96 387 l 1,8,-1
 96 700 l 1,9,-1
 258 700 l 1,10,-1
 258 508 l 1,11,-1
 362 586 l 1,12,-1
 420 508 l 1,13,-1
 258 387 l 1,0,-1
EndSplineSet
Substitution2: "'c2sc' Capitals to Small Capitals lookup 29 subtable" lslash.sc
Substitution2: "'aalt' Access All Alternates lookup 0 subtable" lslash.sc
EndChar

StartChar: M
Encoding: 77 77 120
Width: 955
GlyphClass: 2
Flags: W
AnchorPoint: "Anchor-14" 477 700 basechar 0
AnchorPoint: "Anchor-12" 477 0 basechar 0
LayerCount: 2
Fore
SplineSet
870 700 m 1,0,-1
 872 0 l 1,1,-1
 720 0 l 1,2,-1
 719 420 l 1,3,-1
 513 74 l 1,4,-1
 440 74 l 1,5,-1
 235 411 l 1,6,-1
 235 0 l 1,7,-1
 83 0 l 1,8,-1
 83 700 l 1,9,-1
 217 700 l 1,10,-1
 479 265 l 1,11,-1
 737 700 l 1,12,-1
 870 700 l 1,0,-1
EndSplineSet
Substitution2: "'ss01' Style Set 1 lookup 35 subtable" M.ss01
Substitution2: "'salt' Stylistic Alternatives lookup 34 subtable" M.ss01
Substitution2: "'c2sc' Capitals to Small Capitals lookup 29 subtable" m.sc
AlternateSubs2: "'aalt' Access All Alternates lookup 1 subtable" m.sc M.ss01
EndChar

StartChar: N
Encoding: 78 78 122
Width: 808
GlyphClass: 2
Flags: W
AnchorPoint: "Anchor-14" 404 700 basechar 0
AnchorPoint: "Anchor-12" 404 0 basechar 0
LayerCount: 2
Fore
SplineSet
565 275 m 1,0,-1
 565 700 l 1,1,-1
 725 700 l 1,2,-1
 725 0 l 1,3,-1
 592 0 l 1,4,-1
 243 425 l 1,5,-1
 243 0 l 1,6,-1
 83 0 l 1,7,-1
 83 700 l 1,8,-1
 217 700 l 1,9,-1
 565 275 l 1,0,-1
EndSplineSet
Substitution2: "'ss01' Style Set 1 lookup 35 subtable" N.ss01
Substitution2: "'salt' Stylistic Alternatives lookup 34 subtable" N.ss01
Substitution2: "'c2sc' Capitals to Small Capitals lookup 29 subtable" n.sc
AlternateSubs2: "'aalt' Access All Alternates lookup 1 subtable" n.sc N.ss01
EndChar

StartChar: Eng
Encoding: 330 330 129
Width: 808
GlyphClass: 1
Flags: W
LayerCount: 2
Fore
SplineSet
565 700 m 1,0,-1
 725 700 l 1,1,-1
 725 71 l 2,2,3
 725 -68 725 -68 662.5 -135 c 128,-1,4
 600 -202 600 -202 476 -202 c 0,5,6
 421 -202 421 -202 373 -185.5 c 128,-1,7
 325 -169 325 -169 289 -136 c 1,8,-1
 365 -23 l 1,9,10
 408 -69 408 -69 468 -69 c 0,11,12
 559 -69 559 -69 565 33 c 1,13,-1
 243 425 l 1,14,-1
 243 0 l 1,15,-1
 83 0 l 1,16,-1
 83 700 l 1,17,-1
 217 700 l 1,18,-1
 565 275 l 1,19,-1
 565 700 l 1,0,-1
EndSplineSet
Substitution2: "'ss01' Style Set 1 lookup 35 subtable" Eng.ss01
Substitution2: "'salt' Stylistic Alternatives lookup 34 subtable" Eng.ss01
Substitution2: "'c2sc' Capitals to Small Capitals lookup 29 subtable" eng.sc
AlternateSubs2: "'aalt' Access All Alternates lookup 1 subtable" eng.sc Eng.ss01
EndChar

StartChar: O
Encoding: 79 79 133
Width: 844
GlyphClass: 2
Flags: W
AnchorPoint: "Anchor-16" 616 700 basechar 0
AnchorPoint: "Anchor-15" 422 350 basechar 0
AnchorPoint: "Anchor-14" 422 700 basechar 0
AnchorPoint: "Anchor-13" 520 0 basechar 0
AnchorPoint: "Anchor-12" 422 0 basechar 0
LayerCount: 2
Fore
SplineSet
225.5 35 m 128,-1,1
 138 82 138 82 88.5 164.5 c 128,-1,2
 39 247 39 247 39 350 c 256,3,4
 39 453 39 453 88.5 535.5 c 128,-1,5
 138 618 138 618 225.5 665 c 128,-1,6
 313 712 313 712 422 712 c 256,7,8
 531 712 531 712 618 665 c 128,-1,9
 705 618 705 618 755 535.5 c 128,-1,10
 805 453 805 453 805 350 c 256,11,12
 805 247 805 247 755 164.5 c 128,-1,13
 705 82 705 82 618 35 c 128,-1,14
 531 -12 531 -12 422 -12 c 256,15,0
 313 -12 313 -12 225.5 35 c 128,-1,1
534 154.5 m 128,-1,17
 584 183 584 183 612.5 234 c 128,-1,18
 641 285 641 285 641 350 c 256,19,20
 641 415 641 415 612.5 466 c 128,-1,21
 584 517 584 517 534 545.5 c 128,-1,22
 484 574 484 574 422 574 c 256,23,24
 360 574 360 574 310 545.5 c 128,-1,25
 260 517 260 517 231.5 466 c 128,-1,26
 203 415 203 415 203 350 c 256,27,28
 203 285 203 285 231.5 234 c 128,-1,29
 260 183 260 183 310 154.5 c 128,-1,30
 360 126 360 126 422 126 c 256,31,16
 484 126 484 126 534 154.5 c 128,-1,17
EndSplineSet
Substitution2: "Single Substitution lookup 40 subtable" ordmasculine
Substitution2: "'c2sc' Capitals to Small Capitals lookup 29 subtable" o.sc
AlternateSubs2: "'aalt' Access All Alternates lookup 1 subtable" ordmasculine o.sc
EndChar

StartChar: Ohorn
Encoding: 416 416 149
Width: 844
GlyphClass: 2
Flags: W
AnchorPoint: "Anchor-14" 422 700 basechar 0
AnchorPoint: "Anchor-12" 422 0 basechar 0
LayerCount: 2
Fore
SplineSet
773.5 498.5 m 128,-1,1
 805 430 805 430 805 350 c 0,2,3
 805 247 805 247 755 164.5 c 128,-1,4
 705 82 705 82 618 35 c 128,-1,5
 531 -12 531 -12 422 -12 c 256,6,7
 313 -12 313 -12 225.5 35 c 128,-1,8
 138 82 138 82 88.5 164.5 c 128,-1,9
 39 247 39 247 39 350 c 256,10,11
 39 453 39 453 89 535.5 c 128,-1,12
 139 618 139 618 228 665 c 128,-1,13
 317 712 317 712 429 712 c 0,14,15
 473 712 473 712 539 704 c 0,16,17
 591 698 591 698 612 698 c 0,18,19
 651 698 651 698 672.5 715 c 128,-1,20
 694 732 694 732 694 764 c 0,21,22
 694 795 694 795 674 824 c 1,23,-1
 766 858 l 1,24,25
 798 813 798 813 798 758 c 256,26,27
 798 703 798 703 769 666 c 128,-1,28
 740 629 740 629 687 614 c 1,29,0
 742 567 742 567 773.5 498.5 c 128,-1,1
534 154.5 m 128,-1,31
 584 183 584 183 612.5 234 c 128,-1,32
 641 285 641 285 641 350 c 256,33,34
 641 415 641 415 612.5 466 c 128,-1,35
 584 517 584 517 534 545.5 c 128,-1,36
 484 574 484 574 422 574 c 256,37,38
 360 574 360 574 310 545.5 c 128,-1,39
 260 517 260 517 231.5 466 c 128,-1,40
 203 415 203 415 203 350 c 256,41,42
 203 285 203 285 231.5 234 c 128,-1,43
 260 183 260 183 310 154.5 c 128,-1,44
 360 126 360 126 422 126 c 256,45,30
 484 126 484 126 534 154.5 c 128,-1,31
EndSplineSet
Substitution2: "'c2sc' Capitals to Small Capitals lookup 29 subtable" ohorn.sc
Substitution2: "'aalt' Access All Alternates lookup 0 subtable" ohorn.sc
EndChar

StartChar: uni01EA
Encoding: 490 490 160
Width: 844
GlyphClass: 2
Flags: W
AnchorPoint: "Anchor-14" 422 700 basechar 0
LayerCount: 2
Fore
SplineSet
438 -44.5 m 128,-1,1
 403 -74 403 -74 403 -107 c 0,2,3
 403 -128 403 -128 418.5 -140.5 c 128,-1,4
 434 -153 434 -153 461 -153 c 0,5,6
 494 -153 494 -153 521 -138 c 1,7,-1
 544 -209 l 1,8,9
 525 -219 525 -219 497.5 -225.5 c 128,-1,10
 470 -232 470 -232 443 -232 c 0,11,12
 378 -232 378 -232 341.5 -201.5 c 128,-1,13
 305 -171 305 -171 305 -120 c 0,14,15
 305 -56 305 -56 365 -8 c 1,16,17
 270 4 270 4 196 53 c 128,-1,18
 122 102 122 102 80.5 179 c 128,-1,19
 39 256 39 256 39 350 c 0,20,21
 39 453 39 453 89 535.5 c 128,-1,22
 139 618 139 618 226 665 c 128,-1,23
 313 712 313 712 422 712 c 256,24,25
 531 712 531 712 618 665 c 128,-1,26
 705 618 705 618 755 535.5 c 128,-1,27
 805 453 805 453 805 350 c 0,28,29
 805 265 805 265 770.5 194.5 c 128,-1,30
 736 124 736 124 676.5 76 c 128,-1,31
 617 28 617 28 542 6 c 0,32,0
 473 -15 473 -15 438 -44.5 c 128,-1,1
231.5 234 m 128,-1,34
 260 183 260 183 310 154.5 c 128,-1,35
 360 126 360 126 422 126 c 256,36,37
 484 126 484 126 534 154.5 c 128,-1,38
 584 183 584 183 612.5 234 c 128,-1,39
 641 285 641 285 641 350 c 256,40,41
 641 415 641 415 612.5 466 c 128,-1,42
 584 517 584 517 534 545.5 c 128,-1,43
 484 574 484 574 422 574 c 256,44,45
 360 574 360 574 310 545.5 c 128,-1,46
 260 517 260 517 231.5 466 c 128,-1,47
 203 415 203 415 203 350 c 256,48,33
 203 285 203 285 231.5 234 c 128,-1,34
EndSplineSet
Substitution2: "'c2sc' Capitals to Small Capitals lookup 29 subtable" uni01EB.sc
Substitution2: "'aalt' Access All Alternates lookup 0 subtable" uni01EB.sc
EndChar

StartChar: Oslash
Encoding: 216 216 161
Width: 844
GlyphClass: 2
Flags: W
AnchorPoint: "Anchor-16" 616 700 basechar 0
AnchorPoint: "Anchor-15" 422 350 basechar 0
AnchorPoint: "Anchor-14" 422 700 basechar 0
AnchorPoint: "Anchor-13" 520 0 basechar 0
AnchorPoint: "Anchor-12" 422 0 basechar 0
LayerCount: 2
Fore
SplineSet
674 629 m 1,0,1
 736 579 736 579 770.5 507 c 128,-1,2
 805 435 805 435 805 350 c 0,3,4
 805 247 805 247 755 164.5 c 128,-1,5
 705 82 705 82 618 35 c 128,-1,6
 531 -12 531 -12 422 -12 c 0,7,8
 325 -12 325 -12 244 26 c 1,9,-1
 176 -70 l 1,10,-1
 71 -70 l 1,11,-1
 171 71 l 1,12,13
 109 120 109 120 74 192.5 c 128,-1,14
 39 265 39 265 39 350 c 0,15,16
 39 453 39 453 88.5 535.5 c 128,-1,17
 138 618 138 618 225.5 665 c 128,-1,18
 313 712 313 712 422 712 c 0,19,20
 517 712 517 712 601 674 c 1,21,-1
 669 770 l 1,22,-1
 774 770 l 1,23,-1
 674 629 l 1,0,1
259 195 m 1,25,-1
 516 555 l 1,26,27
 472 574 472 574 422 574 c 0,28,29
 360 574 360 574 310 545.5 c 128,-1,30
 260 517 260 517 231.5 466 c 128,-1,31
 203 415 203 415 203 350 c 0,32,24
 203 257 203 257 259 195 c 1,25,-1
534 154.5 m 128,-1,34
 584 183 584 183 612.5 234 c 128,-1,35
 641 285 641 285 641 350 c 0,36,37
 641 443 641 443 585 505 c 1,38,-1
 329 145 l 1,39,40
 373 126 373 126 422 126 c 0,41,33
 484 126 484 126 534 154.5 c 128,-1,34
EndSplineSet
Substitution2: "'c2sc' Capitals to Small Capitals lookup 29 subtable" oslash.sc
Substitution2: "'aalt' Access All Alternates lookup 0 subtable" oslash.sc
EndChar

StartChar: OE
Encoding: 338 338 167
Width: 1136
GlyphClass: 2
Flags: W
AnchorPoint: "Anchor-14" 628 700 basechar 0
AnchorPoint: "Anchor-12" 628 0 basechar 0
LayerCount: 2
Fore
SplineSet
709 130 m 1,0,-1
 1090 130 l 1,1,-1
 1090 0 l 1,2,-1
 425 0 l 2,3,4
 311 0 311 0 223.5 43.5 c 128,-1,5
 136 87 136 87 87.5 166 c 128,-1,6
 39 245 39 245 39 349 c 0,7,8
 39 454 39 454 87.5 533.5 c 128,-1,9
 136 613 136 613 223.5 656.5 c 128,-1,10
 311 700 311 700 425 700 c 2,11,-1
 1077 700 l 1,12,-1
 1077 570 l 1,13,-1
 709 570 l 1,14,-1
 709 418 l 1,15,-1
 1034 418 l 1,16,-1
 1034 292 l 1,17,-1
 709 292 l 1,18,-1
 709 130 l 1,0,-1
548 133 m 1,19,-1
 548 567 l 1,20,-1
 433 567 l 2,21,22
 328 567 328 567 265.5 508.5 c 128,-1,23
 203 450 203 450 203 349 c 0,24,25
 203 250 203 250 265.5 191.5 c 128,-1,26
 328 133 328 133 433 133 c 2,27,-1
 548 133 l 1,19,-1
EndSplineSet
Substitution2: "'c2sc' Capitals to Small Capitals lookup 29 subtable" oe.sc
Substitution2: "'aalt' Access All Alternates lookup 0 subtable" oe.sc
EndChar

StartChar: P
Encoding: 80 80 168
Width: 732
GlyphClass: 1
Flags: W
LayerCount: 2
Fore
SplineSet
386 700 m 2,0,1
 479 700 479 700 547.5 669 c 128,-1,2
 616 638 616 638 653 581 c 128,-1,3
 690 524 690 524 690 446 c 0,4,5
 690 369 690 369 653 311.5 c 128,-1,6
 616 254 616 254 547.5 223.5 c 128,-1,7
 479 193 479 193 386 193 c 2,8,-1
 245 193 l 1,9,-1
 245 0 l 1,10,-1
 83 0 l 1,11,-1
 83 700 l 1,12,-1
 386 700 l 2,0,1
377 325 m 2,13,14
 450 325 450 325 488 356.5 c 128,-1,15
 526 388 526 388 526 446 c 0,16,17
 526 505 526 505 488 536.5 c 128,-1,18
 450 568 450 568 377 568 c 2,19,-1
 245 568 l 1,20,-1
 245 325 l 1,21,-1
 377 325 l 2,13,14
EndSplineSet
Substitution2: "'c2sc' Capitals to Small Capitals lookup 29 subtable" p.sc
Substitution2: "'aalt' Access All Alternates lookup 0 subtable" p.sc
EndChar

StartChar: Thorn
Encoding: 222 222 169
Width: 732
GlyphClass: 1
Flags: W
LayerCount: 2
Fore
SplineSet
386 623 m 2,0,1
 479 623 479 623 547.5 592 c 128,-1,2
 616 561 616 561 653 504 c 128,-1,3
 690 447 690 447 690 369 c 256,4,5
 690 291 690 291 653 234 c 128,-1,6
 616 177 616 177 547.5 146 c 128,-1,7
 479 115 479 115 386 115 c 2,8,-1
 245 115 l 1,9,-1
 245 0 l 1,10,-1
 83 0 l 1,11,-1
 83 700 l 1,12,-1
 245 700 l 1,13,-1
 245 623 l 1,14,-1
 386 623 l 2,0,1
377 247 m 2,15,16
 450 247 450 247 488 278.5 c 128,-1,17
 526 310 526 310 526 369 c 256,18,19
 526 428 526 428 488 459.5 c 128,-1,20
 450 491 450 491 377 491 c 2,21,-1
 245 491 l 1,22,-1
 245 247 l 1,23,-1
 377 247 l 2,15,16
EndSplineSet
Substitution2: "'c2sc' Capitals to Small Capitals lookup 29 subtable" thorn.sc
Substitution2: "'aalt' Access All Alternates lookup 0 subtable" thorn.sc
EndChar

StartChar: Q
Encoding: 81 81 170
Width: 844
GlyphClass: 2
Flags: W
AnchorPoint: "Anchor-14" 423 700 basechar 0
LayerCount: 2
Fore
SplineSet
840 -75 m 1,0,1
 806 -117 806 -117 757.5 -139 c 128,-1,2
 709 -161 709 -161 651 -161 c 0,3,4
 573 -161 573 -161 510 -127.5 c 128,-1,5
 447 -94 447 -94 366 -9 c 1,6,7
 271 3 271 3 196.5 52 c 128,-1,8
 122 101 122 101 80.5 178.5 c 128,-1,9
 39 256 39 256 39 350 c 0,10,11
 39 453 39 453 88.5 535.5 c 128,-1,12
 138 618 138 618 225.5 665 c 128,-1,13
 313 712 313 712 422 712 c 256,14,15
 531 712 531 712 618 665 c 128,-1,16
 705 618 705 618 755 535.5 c 128,-1,17
 805 453 805 453 805 350 c 0,18,19
 805 228 805 228 736.5 136 c 128,-1,20
 668 44 668 44 555 8 c 1,21,22
 580 -18 580 -18 603.5 -29.5 c 128,-1,23
 627 -41 627 -41 654 -41 c 0,24,25
 719 -41 719 -41 768 11 c 1,26,-1
 840 -75 l 1,0,1
231.5 234 m 128,-1,28
 260 183 260 183 310 154.5 c 128,-1,29
 360 126 360 126 422 126 c 256,30,31
 484 126 484 126 534 154.5 c 128,-1,32
 584 183 584 183 612.5 234 c 128,-1,33
 641 285 641 285 641 350 c 256,34,35
 641 415 641 415 612.5 466 c 128,-1,36
 584 517 584 517 534 545.5 c 128,-1,37
 484 574 484 574 422 574 c 256,38,39
 360 574 360 574 310 545.5 c 128,-1,40
 260 517 260 517 231.5 466 c 128,-1,41
 203 415 203 415 203 350 c 256,42,27
 203 285 203 285 231.5 234 c 128,-1,28
EndSplineSet
Substitution2: "'ss01' Style Set 1 lookup 35 subtable" Q.ss01
Substitution2: "'salt' Stylistic Alternatives lookup 34 subtable" Q.ss01
Substitution2: "'c2sc' Capitals to Small Capitals lookup 29 subtable" q.sc
AlternateSubs2: "'aalt' Access All Alternates lookup 1 subtable" q.sc Q.ss01
EndChar

StartChar: R
Encoding: 82 82 171
Width: 735
GlyphClass: 2
Flags: W
AnchorPoint: "Anchor-14" 375 700 basechar 0
AnchorPoint: "Anchor-12" 375 0 basechar 0
LayerCount: 2
Fore
SplineSet
703 0 m 1,0,-1
 529 0 l 1,1,-1
 394 195 l 1,2,-1
 386 195 l 1,3,-1
 245 195 l 1,4,-1
 245 0 l 1,5,-1
 83 0 l 1,6,-1
 83 700 l 1,7,-1
 386 700 l 2,8,9
 479 700 479 700 547.5 669 c 128,-1,10
 616 638 616 638 653 581 c 128,-1,11
 690 524 690 524 690 446 c 256,12,13
 690 368 690 368 652.5 311.5 c 128,-1,14
 615 255 615 255 546 225 c 1,15,-1
 703 0 l 1,0,-1
488 536.5 m 128,-1,17
 450 568 450 568 377 568 c 2,18,-1
 245 568 l 1,19,-1
 245 324 l 1,20,-1
 377 324 l 2,21,22
 450 324 450 324 488 356 c 128,-1,23
 526 388 526 388 526 446 c 0,24,16
 526 505 526 505 488 536.5 c 128,-1,17
EndSplineSet
Substitution2: "'c2sc' Capitals to Small Capitals lookup 29 subtable" r.sc
Substitution2: "'aalt' Access All Alternates lookup 0 subtable" r.sc
EndChar

StartChar: S
Encoding: 83 83 179
Width: 638
GlyphClass: 2
Flags: W
AnchorPoint: "Anchor-14" 325 700 basechar 0
AnchorPoint: "Anchor-12" 325 0 basechar 0
LayerCount: 2
Fore
SplineSet
152.5 10.5 m 128,-1,1
 75 33 75 33 28 69 c 1,2,-1
 83 191 l 1,3,4
 128 158 128 158 190 138 c 128,-1,5
 252 118 252 118 314 118 c 0,6,7
 383 118 383 118 416 138.5 c 128,-1,8
 449 159 449 159 449 193 c 0,9,10
 449 218 449 218 429.5 234.5 c 128,-1,11
 410 251 410 251 379.5 261 c 128,-1,12
 349 271 349 271 297 283 c 0,13,14
 217 302 217 302 166 321 c 128,-1,15
 115 340 115 340 78.5 382 c 128,-1,16
 42 424 42 424 42 494 c 0,17,18
 42 555 42 555 75 604.5 c 128,-1,19
 108 654 108 654 174.5 683 c 128,-1,20
 241 712 241 712 337 712 c 0,21,22
 404 712 404 712 468 696 c 128,-1,23
 532 680 532 680 580 650 c 1,24,-1
 530 527 l 1,25,26
 433 582 433 582 336 582 c 0,27,28
 268 582 268 582 235.5 560 c 128,-1,29
 203 538 203 538 203 502 c 256,30,31
 203 466 203 466 240.5 448.5 c 128,-1,32
 278 431 278 431 355 414 c 0,33,34
 435 395 435 395 486 376 c 128,-1,35
 537 357 537 357 573.5 316 c 128,-1,36
 610 275 610 275 610 205 c 0,37,38
 610 145 610 145 576.5 95.5 c 128,-1,39
 543 46 543 46 476 17 c 128,-1,40
 409 -12 409 -12 313 -12 c 0,41,0
 230 -12 230 -12 152.5 10.5 c 128,-1,1
EndSplineSet
Substitution2: "'c2sc' Capitals to Small Capitals lookup 29 subtable" s.sc
Substitution2: "'aalt' Access All Alternates lookup 0 subtable" s.sc
EndChar

StartChar: uniA78B
Encoding: 42891 42891 182
Width: 297
GlyphClass: 1
Flags: W
LayerCount: 2
Fore
SplineSet
208 297 m 1,0,-1
 68 297 l 1,1,-1
 68 700 l 1,2,-1
 228 700 l 1,3,-1
 208 297 l 1,0,-1
EndSplineSet
Substitution2: "'c2sc' Capitals to Small Capitals lookup 29 subtable" uniA78C.sc
Substitution2: "'aalt' Access All Alternates lookup 0 subtable" uniA78C.sc
EndChar

StartChar: Scedilla
Encoding: 350 350 185
Width: 638
GlyphClass: 2
Flags: W
AnchorPoint: "Anchor-14" 325 700 basechar 0
AnchorPoint: "Anchor-12" 325 0 basechar 0
LayerCount: 2
Fore
SplineSet
582 104 m 128,-1,1
 554 58 554 58 498.5 27.5 c 128,-1,2
 443 -3 443 -3 362 -10 c 1,3,-1
 352 -50 l 1,4,5
 396 -55 396 -55 417.5 -77.5 c 128,-1,6
 439 -100 439 -100 439 -133 c 0,7,8
 439 -179 439 -179 399 -205.5 c 128,-1,9
 359 -232 359 -232 292 -232 c 0,10,11
 266 -232 266 -232 241 -226.5 c 128,-1,12
 216 -221 216 -221 199 -211 c 1,13,-1
 223 -144 l 1,14,15
 255 -159 255 -159 288 -159 c 0,16,17
 340 -159 340 -159 340 -127 c 0,18,19
 340 -98 340 -98 291 -98 c 2,20,-1
 257 -98 l 1,21,-1
 278 -11 l 1,22,23
 204 -7 204 -7 137 15 c 128,-1,24
 70 37 70 37 28 69 c 1,25,-1
 83 191 l 1,26,27
 128 158 128 158 190 138 c 128,-1,28
 252 118 252 118 314 118 c 0,29,30
 383 118 383 118 416 138.5 c 128,-1,31
 449 159 449 159 449 193 c 0,32,33
 449 218 449 218 429.5 234.5 c 128,-1,34
 410 251 410 251 379.5 261 c 128,-1,35
 349 271 349 271 297 283 c 0,36,37
 217 302 217 302 166 321 c 128,-1,38
 115 340 115 340 78.5 382 c 128,-1,39
 42 424 42 424 42 494 c 0,40,41
 42 555 42 555 75 604.5 c 128,-1,42
 108 654 108 654 174.5 683 c 128,-1,43
 241 712 241 712 337 712 c 0,44,45
 404 712 404 712 468 696 c 128,-1,46
 532 680 532 680 580 650 c 1,47,-1
 530 527 l 1,48,49
 433 582 433 582 336 582 c 0,50,51
 268 582 268 582 235.5 560 c 128,-1,52
 203 538 203 538 203 502 c 256,53,54
 203 466 203 466 240.5 448.5 c 128,-1,55
 278 431 278 431 355 414 c 0,56,57
 435 395 435 395 486 376 c 128,-1,58
 537 357 537 357 573.5 316 c 128,-1,59
 610 275 610 275 610 205 c 0,60,0
 610 150 610 150 582 104 c 128,-1,1
EndSplineSet
Substitution2: "'c2sc' Capitals to Small Capitals lookup 29 subtable" scedilla.sc
Substitution2: "'locl' Localized Forms in Latin lookup 7 per glyph data 1" uni0218
Substitution2: "'locl' Localized Forms in Latin lookup 7 per glyph data 0" uni0218
AlternateSubs2: "'aalt' Access All Alternates lookup 1 subtable" uni0218 scedilla.sc
EndChar

StartChar: uni1E9E
Encoding: 7838 7838 191
Width: 779
GlyphClass: 1
Flags: W
LayerCount: 2
Fore
SplineSet
557 417 m 1,0,1
 639 400 639 400 689.5 345 c 128,-1,2
 740 290 740 290 740 206 c 0,3,4
 740 138 740 138 706 89 c 128,-1,5
 672 40 672 40 612.5 14 c 128,-1,6
 553 -12 553 -12 477 -12 c 0,7,8
 393 -12 393 -12 331 12 c 1,9,-1
 355 140 l 1,10,11
 399 118 399 118 457 118 c 256,12,13
 515 118 515 118 545.5 142 c 128,-1,14
 576 166 576 166 576 213 c 0,15,16
 576 258 576 258 545 282.5 c 128,-1,17
 514 307 514 307 458 307 c 0,18,19
 415 307 415 307 384 296 c 1,20,-1
 356 367 l 1,21,-1
 528 565 l 1,22,23
 479 582 479 582 425 582 c 0,24,25
 334 582 334 582 286.5 532 c 128,-1,26
 239 482 239 482 239 388 c 2,27,-1
 239 0 l 1,28,-1
 77 0 l 1,29,-1
 77 392 l 2,30,31
 77 490 77 490 117 562.5 c 128,-1,32
 157 635 157 635 234.5 673.5 c 128,-1,33
 312 712 312 712 420 712 c 0,34,35
 488 712 488 712 556 694.5 c 128,-1,36
 624 677 624 677 670 645 c 1,37,-1
 670 546 l 1,38,-1
 557 417 l 1,0,1
EndSplineSet
Substitution2: "'c2sc' Capitals to Small Capitals lookup 29 subtable" germandbls.sc
Substitution2: "'aalt' Access All Alternates lookup 0 subtable" germandbls.sc
EndChar

StartChar: uni018F
Encoding: 399 399 192
Width: 817
GlyphClass: 2
Flags: W
AnchorPoint: "Anchor-14" 409 700 basechar 0
AnchorPoint: "Anchor-12" 409 0 basechar 0
LayerCount: 2
Fore
SplineSet
594 665.5 m 128,-1,1
 681 619 681 619 729.5 536.5 c 128,-1,2
 778 454 778 454 778 351 c 0,3,4
 778 247 778 247 730 164 c 128,-1,5
 682 81 682 81 598 34.5 c 128,-1,6
 514 -12 514 -12 409 -12 c 0,7,8
 303 -12 303 -12 218.5 35 c 128,-1,9
 134 82 134 82 86.5 166 c 128,-1,10
 39 250 39 250 39 357 c 2,11,-1
 39 391 l 1,12,-1
 612 391 l 1,13,14
 604 444 604 444 574 485.5 c 128,-1,15
 544 527 544 527 498 550.5 c 128,-1,16
 452 574 452 574 397 574 c 0,17,18
 341 574 341 574 286 552.5 c 128,-1,19
 231 531 231 531 194 492 c 1,20,-1
 97 597 l 1,21,22
 148 649 148 649 228 680.5 c 128,-1,23
 308 712 308 712 398 712 c 0,24,0
 507 712 507 712 594 665.5 c 128,-1,1
543.5 161 m 128,-1,26
 596 205 596 205 610 281 c 1,27,-1
 207 281 l 1,28,29
 221 204 221 204 274 160.5 c 128,-1,30
 327 117 327 117 409 117 c 256,31,25
 491 117 491 117 543.5 161 c 128,-1,26
EndSplineSet
Substitution2: "'ss01' Style Set 1 lookup 35 subtable" uni018F.ss01
Substitution2: "'salt' Stylistic Alternatives lookup 34 subtable" uni018F.ss01
Substitution2: "'c2sc' Capitals to Small Capitals lookup 29 subtable" uni0259.sc
AlternateSubs2: "'aalt' Access All Alternates lookup 1 subtable" uni0259.sc uni018F.ss01
EndChar

StartChar: T
Encoding: 84 84 193
Width: 618
GlyphClass: 2
Flags: W
AnchorPoint: "Anchor-15" 309 328 basechar 0
AnchorPoint: "Anchor-14" 309 700 basechar 0
AnchorPoint: "Anchor-12" 309 0 basechar 0
LayerCount: 2
Fore
SplineSet
390 0 m 1,0,-1
 228 0 l 1,1,-1
 228 568 l 1,2,-1
 4 568 l 1,3,-1
 4 700 l 1,4,-1
 614 700 l 1,5,-1
 614 568 l 1,6,-1
 390 568 l 1,7,-1
 390 0 l 1,0,-1
EndSplineSet
Substitution2: "'ss01' Style Set 1 lookup 35 subtable" T.ss01
Substitution2: "'salt' Stylistic Alternatives lookup 34 subtable" T.ss01
Substitution2: "'c2sc' Capitals to Small Capitals lookup 29 subtable" t.sc
AlternateSubs2: "'aalt' Access All Alternates lookup 1 subtable" t.sc T.ss01
EndChar

StartChar: Tbar
Encoding: 358 358 194
Width: 618
GlyphClass: 2
Flags: W
AnchorPoint: "Anchor-15" 309 328 basechar 0
AnchorPoint: "Anchor-14" 309 700 basechar 0
AnchorPoint: "Anchor-12" 309 0 basechar 0
LayerCount: 2
Fore
SplineSet
614 700 m 1,0,-1
 614 568 l 1,1,-1
 390 568 l 1,2,-1
 390 382 l 1,3,-1
 525 382 l 1,4,-1
 525 274 l 1,5,-1
 390 274 l 1,6,-1
 390 0 l 1,7,-1
 228 0 l 1,8,-1
 228 274 l 1,9,-1
 93 274 l 1,10,-1
 93 382 l 1,11,-1
 228 382 l 1,12,-1
 228 568 l 1,13,-1
 4 568 l 1,14,-1
 4 700 l 1,15,-1
 614 700 l 1,0,-1
EndSplineSet
Substitution2: "'ss01' Style Set 1 lookup 35 subtable" Tbar.ss01
Substitution2: "'salt' Stylistic Alternatives lookup 34 subtable" Tbar.ss01
Substitution2: "'c2sc' Capitals to Small Capitals lookup 29 subtable" tbar.sc
AlternateSubs2: "'aalt' Access All Alternates lookup 1 subtable" tbar.sc Tbar.ss01
EndChar

StartChar: uni0162
Encoding: 354 354 196
Width: 618
GlyphClass: 2
Flags: W
AnchorPoint: "Anchor-15" 309 328 basechar 0
AnchorPoint: "Anchor-14" 309 700 basechar 0
AnchorPoint: "Anchor-12" 309 0 basechar 0
LayerCount: 2
Fore
SplineSet
390 0 m 1,0,-1
 348 0 l 1,1,-1
 336 -50 l 1,2,3
 380 -55 380 -55 401.5 -77.5 c 128,-1,4
 423 -100 423 -100 423 -133 c 0,5,6
 423 -179 423 -179 383 -205.5 c 128,-1,7
 343 -232 343 -232 276 -232 c 0,8,9
 250 -232 250 -232 225 -226.5 c 128,-1,10
 200 -221 200 -221 183 -211 c 1,11,-1
 207 -144 l 1,12,13
 239 -159 239 -159 272 -159 c 0,14,15
 324 -159 324 -159 324 -127 c 0,16,17
 324 -98 324 -98 275 -98 c 2,18,-1
 241 -98 l 1,19,-1
 265 0 l 1,20,-1
 228 0 l 1,21,-1
 228 568 l 1,22,-1
 4 568 l 1,23,-1
 4 700 l 1,24,-1
 614 700 l 1,25,-1
 614 568 l 1,26,-1
 390 568 l 1,27,-1
 390 0 l 1,0,-1
EndSplineSet
Substitution2: "'ss01' Style Set 1 lookup 35 subtable" uni0162.ss01
Substitution2: "'salt' Stylistic Alternatives lookup 34 subtable" uni0162.ss01
Substitution2: "'c2sc' Capitals to Small Capitals lookup 29 subtable" uni0163.sc
Substitution2: "'locl' Localized Forms in Latin lookup 7 per glyph data 1" uni021A
Substitution2: "'locl' Localized Forms in Latin lookup 7 per glyph data 0" uni021A
AlternateSubs2: "'aalt' Access All Alternates lookup 1 subtable" uni021A uni0163.sc uni0162.ss01
EndChar

StartChar: U
Encoding: 85 85 200
Width: 788
GlyphClass: 2
Flags: W
AnchorPoint: "Anchor-16" 651 700 basechar 0
AnchorPoint: "Anchor-14" 395 700 basechar 0
AnchorPoint: "Anchor-13" 607 0 basechar 0
AnchorPoint: "Anchor-12" 395 0 basechar 0
LayerCount: 2
Fore
SplineSet
160.5 71 m 128,-1,1
 77 154 77 154 77 308 c 2,2,-1
 77 700 l 1,3,-1
 239 700 l 1,4,-1
 239 314 l 2,5,6
 239 126 239 126 395 126 c 0,7,8
 471 126 471 126 511 171.5 c 128,-1,9
 551 217 551 217 551 314 c 2,10,-1
 551 700 l 1,11,-1
 711 700 l 1,12,-1
 711 308 l 2,13,14
 711 154 711 154 627.5 71 c 128,-1,15
 544 -12 544 -12 394 -12 c 256,16,0
 244 -12 244 -12 160.5 71 c 128,-1,1
EndSplineSet
Substitution2: "'ss01' Style Set 1 lookup 35 subtable" U.ss01
Substitution2: "'salt' Stylistic Alternatives lookup 34 subtable" U.ss01
Substitution2: "'c2sc' Capitals to Small Capitals lookup 29 subtable" u.sc
AlternateSubs2: "'aalt' Access All Alternates lookup 1 subtable" u.sc U.ss01
EndChar

StartChar: Uhorn
Encoding: 431 431 210
Width: 801
GlyphClass: 2
Flags: W
AnchorPoint: "Anchor-16" 651 700 basechar 0
AnchorPoint: "Anchor-14" 395 700 basechar 0
AnchorPoint: "Anchor-13" 607 0 basechar 0
AnchorPoint: "Anchor-12" 395 0 basechar 0
LayerCount: 2
Fore
SplineSet
791 658 m 128,-1,1
 763 618 763 618 711 604 c 1,2,-1
 711 308 l 2,3,4
 711 154 711 154 627.5 71 c 128,-1,5
 544 -12 544 -12 394 -12 c 256,6,7
 244 -12 244 -12 160.5 71 c 128,-1,8
 77 154 77 154 77 308 c 2,9,-1
 77 700 l 1,10,-1
 239 700 l 1,11,-1
 239 314 l 2,12,13
 239 126 239 126 395 126 c 0,14,15
 471 126 471 126 511 171.5 c 128,-1,16
 551 217 551 217 551 314 c 2,17,-1
 551 700 l 1,18,-1
 655 700 l 2,19,20
 682 700 682 700 698.5 717.5 c 128,-1,21
 715 735 715 735 715 763 c 0,22,23
 715 798 715 798 695 823 c 1,24,-1
 787 857 l 1,25,26
 819 815 819 815 819 757 c 0,27,0
 819 698 819 698 791 658 c 128,-1,1
EndSplineSet
Substitution2: "'ss01' Style Set 1 lookup 35 subtable" Uhorn.ss01
Substitution2: "'salt' Stylistic Alternatives lookup 34 subtable" Uhorn.ss01
Substitution2: "'c2sc' Capitals to Small Capitals lookup 29 subtable" uhorn.sc
AlternateSubs2: "'aalt' Access All Alternates lookup 1 subtable" uhorn.sc Uhorn.ss01
EndChar

StartChar: Uogonek
Encoding: 370 370 220
Width: 788
GlyphClass: 1
Flags: W
LayerCount: 2
Fore
SplineSet
551 700 m 1,0,-1
 711 700 l 1,1,-1
 711 308 l 2,2,3
 711 189 711 189 662 115 c 128,-1,4
 613 41 613 41 524 8 c 0,5,6
 446 -21 446 -21 415 -49.5 c 128,-1,7
 384 -78 384 -78 384 -107 c 0,8,9
 384 -128 384 -128 399 -140.5 c 128,-1,10
 414 -153 414 -153 441 -153 c 0,11,12
 476 -153 476 -153 501 -138 c 1,13,-1
 524 -209 l 1,14,15
 505 -219 505 -219 478 -225.5 c 128,-1,16
 451 -232 451 -232 423 -232 c 0,17,18
 359 -232 359 -232 322 -201.5 c 128,-1,19
 285 -171 285 -171 285 -120 c 0,20,21
 285 -58 285 -58 344 -9 c 1,22,23
 217 4 217 4 147 86 c 128,-1,24
 77 168 77 168 77 308 c 2,25,-1
 77 700 l 1,26,-1
 239 700 l 1,27,-1
 239 314 l 2,28,29
 239 126 239 126 395 126 c 0,30,31
 471 126 471 126 511 171.5 c 128,-1,32
 551 217 551 217 551 314 c 2,33,-1
 551 700 l 1,0,-1
EndSplineSet
Substitution2: "'ss01' Style Set 1 lookup 35 subtable" Uogonek.ss01
Substitution2: "'salt' Stylistic Alternatives lookup 34 subtable" Uogonek.ss01
Substitution2: "'c2sc' Capitals to Small Capitals lookup 29 subtable" uogonek.sc
AlternateSubs2: "'aalt' Access All Alternates lookup 1 subtable" uogonek.sc Uogonek.ss01
EndChar

StartChar: V
Encoding: 86 86 224
Width: 746
GlyphClass: 1
Flags: W
LayerCount: 2
Fore
SplineSet
379 200 m 1,0,-1
 595 700 l 1,1,-1
 756 700 l 1,2,-1
 453 0 l 1,3,-1
 293 0 l 1,4,-1
 -9 700 l 1,5,-1
 166 700 l 1,6,-1
 379 200 l 1,0,-1
EndSplineSet
Substitution2: "'c2sc' Capitals to Small Capitals lookup 29 subtable" v.sc
Substitution2: "'aalt' Access All Alternates lookup 0 subtable" v.sc
EndChar

StartChar: W
Encoding: 87 87 225
Width: 1163
GlyphClass: 2
Flags: W
AnchorPoint: "Anchor-14" 582 700 basechar 0
AnchorPoint: "Anchor-12" 582 0 basechar 0
LayerCount: 2
Fore
SplineSet
823 204 m 1,0,-1
 986 700 l 1,1,-1
 1141 700 l 1,2,-1
 912 0 l 1,3,-1
 738 0 l 1,4,-1
 584 474 l 1,5,-1
 425 0 l 1,6,-1
 252 0 l 1,7,-1
 22 700 l 1,8,-1
 190 700 l 1,9,-1
 348 208 l 1,10,-1
 513 700 l 1,11,-1
 663 700 l 1,12,-1
 823 204 l 1,0,-1
EndSplineSet
Substitution2: "'ss01' Style Set 1 lookup 35 subtable" W.ss01
Substitution2: "'salt' Stylistic Alternatives lookup 34 subtable" W.ss01
Substitution2: "'c2sc' Capitals to Small Capitals lookup 29 subtable" w.sc
AlternateSubs2: "'aalt' Access All Alternates lookup 1 subtable" w.sc W.ss01
EndChar

StartChar: X
Encoding: 88 88 230
Width: 714
GlyphClass: 1
Flags: W
LayerCount: 2
Fore
SplineSet
450 362 m 1,0,-1
 711 0 l 1,1,-1
 524 0 l 1,2,-1
 355 243 l 1,3,-1
 189 0 l 1,4,-1
 3 0 l 1,5,-1
 262 356 l 1,6,-1
 16 700 l 1,7,-1
 200 700 l 1,8,-1
 361 473 l 1,9,-1
 519 700 l 1,10,-1
 694 700 l 1,11,-1
 450 362 l 1,0,-1
EndSplineSet
Substitution2: "'c2sc' Capitals to Small Capitals lookup 29 subtable" x.sc
Substitution2: "'aalt' Access All Alternates lookup 0 subtable" x.sc
EndChar

StartChar: Y
Encoding: 89 89 231
Width: 676
GlyphClass: 2
Flags: W
AnchorPoint: "Anchor-15" 334 257 basechar 0
AnchorPoint: "Anchor-14" 338 700 basechar 0
AnchorPoint: "Anchor-12" 338 0 basechar 0
LayerCount: 2
Fore
SplineSet
532 700 m 1,0,-1
 691 700 l 1,1,-1
 419 248 l 1,2,-1
 419 0 l 1,3,-1
 257 0 l 1,4,-1
 257 250 l 1,5,-1
 -14 700 l 1,6,-1
 158 700 l 1,7,-1
 345 389 l 1,8,-1
 532 700 l 1,0,-1
EndSplineSet
Substitution2: "'ss01' Style Set 1 lookup 35 subtable" Y.ss01
Substitution2: "'salt' Stylistic Alternatives lookup 34 subtable" Y.ss01
Substitution2: "'c2sc' Capitals to Small Capitals lookup 29 subtable" y.sc
AlternateSubs2: "'aalt' Access All Alternates lookup 1 subtable" y.sc Y.ss01
EndChar

StartChar: Z
Encoding: 90 90 241
Width: 671
GlyphClass: 2
Flags: W
AnchorPoint: "Anchor-14" 344 700 basechar 0
AnchorPoint: "Anchor-12" 347 0 basechar 0
LayerCount: 2
Fore
SplineSet
635 595 m 1,0,-1
 252 132 l 1,1,-1
 650 132 l 1,2,-1
 650 0 l 1,3,-1
 38 0 l 1,4,-1
 38 105 l 1,5,-1
 422 568 l 1,6,-1
 46 568 l 1,7,-1
 46 700 l 1,8,-1
 635 700 l 1,9,-1
 635 595 l 1,0,-1
EndSplineSet
Substitution2: "'ss01' Style Set 1 lookup 35 subtable" Z.ss01
Substitution2: "'salt' Stylistic Alternatives lookup 34 subtable" Z.ss01
Substitution2: "'c2sc' Capitals to Small Capitals lookup 29 subtable" z.sc
AlternateSubs2: "'aalt' Access All Alternates lookup 1 subtable" z.sc Z.ss01
EndChar

StartChar: Iacute_J.loclNLD
Encoding: 65538 -1 246
Width: 724
GlyphClass: 1
Flags: W
LayerCount: 2
Fore
SplineSet
193 757 m 1,0,-1
 84 757 l 1,1,-1
 218 901 l 1,2,-1
 374 901 l 1,3,-1
 193 757 l 1,0,-1
600 757 m 1,4,-1
 491 757 l 1,5,-1
 626 901 l 1,6,-1
 782 901 l 1,7,-1
 600 757 l 1,4,-1
181.5 13 m 128,-1,9
 113 34 113 34 61 71 c 1,10,-1
 122 191 l 1,11,12
 168 161 168 161 220 144.5 c 128,-1,13
 272 128 272 128 321 128 c 0,14,15
 403 128 403 128 443.5 172.5 c 128,-1,16
 484 217 484 217 484 311 c 2,17,-1
 484 700 l 1,18,-1
 647 700 l 1,19,-1
 647 319 l 2,20,21
 647 214 647 214 607.5 140.5 c 128,-1,22
 568 67 568 67 496 29.5 c 128,-1,23
 424 -8 424 -8 327 -8 c 0,24,8
 250 -8 250 -8 181.5 13 c 128,-1,9
239 322 m 1,25,-1
 77 322 l 1,26,-1
 77 700 l 1,27,-1
 239 700 l 1,28,-1
 239 322 l 1,25,-1
EndSplineSet
Substitution2: "'ss01' Style Set 1 lookup 35 subtable" Iacute_J.loclNLD.ss01
Substitution2: "'salt' Stylistic Alternatives lookup 34 subtable" Iacute_J.loclNLD.ss01
Substitution2: "'c2sc' Capitals to Small Capitals lookup 29 subtable" iacute_j.loclNLD.sc
Ligature2: "'locl' Localized Forms in Latin lookup 8 subtable" Iacute J
AlternateSubs2: "'aalt' Access All Alternates lookup 1 subtable" iacute_j.loclNLD.sc Iacute_J.loclNLD.ss01
EndChar

StartChar: Adieresis.alt
Encoding: 65539 -1 247
Width: 766
GlyphClass: 1
Flags: W
LayerCount: 2
Fore
SplineSet
96 582.5 m 128,-1,1
 76 602 76 602 76 632 c 256,2,3
 76 662 76 662 96 681.5 c 128,-1,4
 116 701 116 701 146 701 c 256,5,6
 176 701 176 701 195.5 681.5 c 128,-1,7
 215 662 215 662 215 632 c 256,8,9
 215 602 215 602 195.5 582.5 c 128,-1,10
 176 563 176 563 146 563 c 256,11,0
 116 563 116 563 96 582.5 c 128,-1,1
570 582.5 m 128,-1,13
 550 602 550 602 550 632 c 256,14,15
 550 662 550 662 570 681.5 c 128,-1,16
 590 701 590 701 620 701 c 256,17,18
 650 701 650 701 669.5 681.5 c 128,-1,19
 689 662 689 662 689 632 c 256,20,21
 689 602 689 602 669.5 582.5 c 128,-1,22
 650 563 650 563 620 563 c 256,23,12
 590 563 590 563 570 582.5 c 128,-1,13
776 0 m 1,24,-1
 606 0 l 1,25,-1
 547 142 l 1,26,-1
 216 142 l 1,27,-1
 157 0 l 1,28,-1
 -9 0 l 1,29,-1
 303 700 l 1,30,-1
 463 700 l 1,31,-1
 776 0 l 1,24,-1
382 541 m 1,32,-1
 267 265 l 1,33,-1
 496 265 l 1,34,-1
 382 541 l 1,32,-1
EndSplineSet
Substitution2: "'c2sc' Capitals to Small Capitals lookup 29 subtable" adieresis.alt.sc
Substitution2: "'aalt' Access All Alternates lookup 0 subtable" adieresis.alt.sc
EndChar

StartChar: Udieresis.alt
Encoding: 65540 -1 248
Width: 788
GlyphClass: 1
Flags: W
LayerCount: 2
Fore
SplineSet
347 593 m 128,-1,1
 328 612 328 612 328 641 c 256,2,3
 328 670 328 670 347 689 c 128,-1,4
 366 708 366 708 395 708 c 256,5,6
 424 708 424 708 443.5 689 c 128,-1,7
 463 670 463 670 463 641 c 256,8,9
 463 612 463 612 443.5 593 c 128,-1,10
 424 574 424 574 395 574 c 256,11,0
 366 574 366 574 347 593 c 128,-1,1
160.5 71 m 128,-1,13
 77 154 77 154 77 308 c 2,14,-1
 77 700 l 1,15,-1
 239 700 l 1,16,-1
 239 314 l 2,17,18
 239 126 239 126 395 126 c 0,19,20
 471 126 471 126 511 171.5 c 128,-1,21
 551 217 551 217 551 314 c 2,22,-1
 551 700 l 1,23,-1
 711 700 l 1,24,-1
 711 308 l 2,25,26
 711 154 711 154 627.5 71 c 128,-1,27
 544 -12 544 -12 394 -12 c 256,28,12
 244 -12 244 -12 160.5 71 c 128,-1,13
347 441 m 128,-1,30
 328 460 328 460 328 489 c 256,31,32
 328 518 328 518 347 537 c 128,-1,33
 366 556 366 556 395 556 c 256,34,35
 424 556 424 556 443.5 537 c 128,-1,36
 463 518 463 518 463 489 c 256,37,38
 463 460 463 460 443.5 441 c 128,-1,39
 424 422 424 422 395 422 c 256,40,29
 366 422 366 422 347 441 c 128,-1,30
EndSplineSet
EndChar

StartChar: Udieresis.ss01.alt
Encoding: 65541 -1 249
Width: 792
GlyphClass: 1
Flags: W
LayerCount: 2
Fore
SplineSet
345 593 m 128,-1,1
 326 612 326 612 326 641 c 256,2,3
 326 670 326 670 345 689 c 128,-1,4
 364 708 364 708 393 708 c 256,5,6
 422 708 422 708 441.5 689 c 128,-1,7
 461 670 461 670 461 641 c 256,8,9
 461 612 461 612 441.5 593 c 128,-1,10
 422 574 422 574 393 574 c 256,11,0
 364 574 364 574 345 593 c 128,-1,1
547 700 m 1,12,-1
 709 700 l 1,13,-1
 709 0 l 1,14,-1
 552 0 l 1,15,-1
 552 85 l 1,16,17
 480 -12 480 -12 340 -12 c 0,18,19
 216 -12 216 -12 146.5 66.5 c 128,-1,20
 77 145 77 145 77 290 c 2,21,-1
 77 700 l 1,22,-1
 239 700 l 1,23,-1
 239 295 l 2,24,25
 239 211 239 211 278.5 168.5 c 128,-1,26
 318 126 318 126 386 126 c 0,27,28
 459 126 459 126 503 171.5 c 128,-1,29
 547 217 547 217 547 306 c 2,30,-1
 547 700 l 1,12,-1
345 441 m 128,-1,32
 326 460 326 460 326 488 c 0,33,34
 326 517 326 517 345 536 c 128,-1,35
 364 555 364 555 393 555 c 256,36,37
 422 555 422 555 441.5 536 c 128,-1,38
 461 517 461 517 461 488 c 0,39,40
 461 460 461 460 441.5 441 c 128,-1,41
 422 422 422 422 393 422 c 256,42,31
 364 422 364 422 345 441 c 128,-1,32
EndSplineSet
EndChar

StartChar: A.ss01
Encoding: 65542 -1 250
Width: 796
GlyphClass: 2
Flags: W
AnchorPoint: "Anchor-14" 398 700 basechar 0
AnchorPoint: "Anchor-13" 719 0 basechar 0
AnchorPoint: "Anchor-12" 398 0 basechar 0
LayerCount: 2
Fore
SplineSet
567 674 m 128,-1,1
 639 636 639 636 679 562 c 128,-1,2
 719 488 719 488 719 383 c 2,3,-1
 719 0 l 1,4,-1
 557 0 l 1,5,-1
 557 168 l 1,6,-1
 237 168 l 1,7,-1
 237 0 l 1,8,-1
 77 0 l 1,9,-1
 77 383 l 2,10,11
 77 488 77 488 117 562 c 128,-1,12
 157 636 157 636 229 674 c 128,-1,13
 301 712 301 712 398 712 c 256,14,0
 495 712 495 712 567 674 c 128,-1,1
237 298 m 1,15,-1
 557 298 l 1,16,-1
 557 398 l 2,17,18
 557 485 557 485 514 529.5 c 128,-1,19
 471 574 471 574 397 574 c 0,20,21
 322 574 322 574 279.5 529.5 c 128,-1,22
 237 485 237 485 237 398 c 2,23,-1
 237 298 l 1,15,-1
EndSplineSet
EndChar

StartChar: Aogonek.ss01
Encoding: 65564 -1 272
Width: 796
GlyphClass: 2
Flags: W
AnchorPoint: "Anchor-14" 398 700 basechar 0
AnchorPoint: "Anchor-13" 719 0 basechar 0
AnchorPoint: "Anchor-12" 398 0 basechar 0
LayerCount: 2
Fore
SplineSet
743 -209 m 1,0,1
 724 -219 724 -219 697 -225.5 c 128,-1,2
 670 -232 670 -232 642 -232 c 0,3,4
 578 -232 578 -232 541 -201.5 c 128,-1,5
 504 -171 504 -171 504 -120 c 0,6,7
 504 -51 504 -51 577 0 c 1,8,-1
 557 0 l 1,9,-1
 557 168 l 1,10,-1
 237 168 l 1,11,-1
 237 0 l 1,12,-1
 77 0 l 1,13,-1
 77 383 l 2,14,15
 77 488 77 488 117 562 c 128,-1,16
 157 636 157 636 229 674 c 128,-1,17
 301 712 301 712 398 712 c 256,18,19
 495 712 495 712 567 674 c 128,-1,20
 639 636 639 636 679 562 c 128,-1,21
 719 488 719 488 719 383 c 2,22,-1
 719 1 l 1,23,-1
 720 0 l 1,24,25
 657 -28 657 -28 630 -53.5 c 128,-1,26
 603 -79 603 -79 603 -107 c 0,27,28
 603 -128 603 -128 618.5 -140.5 c 128,-1,29
 634 -153 634 -153 660 -153 c 0,30,31
 694 -153 694 -153 721 -138 c 1,32,-1
 743 -209 l 1,0,1
237 298 m 1,33,-1
 557 298 l 1,34,-1
 557 398 l 2,35,36
 557 485 557 485 514 529.5 c 128,-1,37
 471 574 471 574 397 574 c 0,38,39
 322 574 322 574 279.5 529.5 c 128,-1,40
 237 485 237 485 237 398 c 2,41,-1
 237 298 l 1,33,-1
EndSplineSet
EndChar

StartChar: AE.ss01
Encoding: 65568 -1 276
Width: 1086
GlyphClass: 2
Flags: W
AnchorPoint: "Anchor-14" 539 700 basechar 0
AnchorPoint: "Anchor-12" 539 0 basechar 0
LayerCount: 2
Fore
SplineSet
666 129 m 1,0,-1
 1049 129 l 1,1,-1
 1049 0 l 1,2,-1
 506 0 l 1,3,-1
 506 177 l 1,4,-1
 233 177 l 1,5,-1
 233 0 l 1,6,-1
 70 0 l 1,7,-1
 70 385 l 2,8,9
 70 537 70 537 151 618.5 c 128,-1,10
 232 700 232 700 384 700 c 2,11,-1
 1035 700 l 1,12,-1
 1035 571 l 1,13,-1
 666 571 l 1,14,-1
 666 417 l 1,15,-1
 993 417 l 1,16,-1
 993 294 l 1,17,-1
 666 294 l 1,18,-1
 666 129 l 1,0,-1
233 305 m 1,19,-1
 506 305 l 1,20,-1
 506 562 l 1,21,-1
 398 562 l 2,22,23
 314 562 314 562 273.5 517.5 c 128,-1,24
 233 473 233 473 233 381 c 2,25,-1
 233 305 l 1,19,-1
EndSplineSet
EndChar

StartChar: E.ss01
Encoding: 65572 -1 280
Width: 667
GlyphClass: 2
Flags: W
AnchorPoint: "Anchor-14" 362 700 basechar 0
AnchorPoint: "Anchor-13" 617 0 basechar 0
AnchorPoint: "Anchor-12" 362 0 basechar 0
LayerCount: 2
Fore
SplineSet
655 60 m 1,0,1
 605 26 605 26 529.5 7 c 128,-1,2
 454 -12 454 -12 369 -12 c 0,3,4
 263 -12 263 -12 189 14.5 c 128,-1,5
 115 41 115 41 77 88.5 c 128,-1,6
 39 136 39 136 39 197 c 0,7,8
 39 253 39 253 70 296 c 128,-1,9
 101 339 101 339 155 360 c 1,10,11
 114 382 114 382 91.5 420 c 128,-1,12
 69 458 69 458 69 505 c 0,13,14
 69 562 69 562 104 609 c 128,-1,15
 139 656 139 656 210 684 c 128,-1,16
 281 712 281 712 384 712 c 0,17,18
 452 712 452 712 517 698.5 c 128,-1,19
 582 685 582 685 630 662 c 1,20,-1
 585 538 l 1,21,22
 493 581 493 581 390 581 c 0,23,24
 312 581 312 581 272.5 557.5 c 128,-1,25
 233 534 233 534 233 494 c 0,26,27
 233 457 233 457 259.5 437.5 c 128,-1,28
 286 418 286 418 340 418 c 2,29,-1
 531 418 l 1,30,-1
 531 290 l 1,31,-1
 330 290 l 2,32,33
 269 290 269 290 236 269 c 128,-1,34
 203 248 203 248 203 208 c 0,35,36
 203 166 203 166 245.5 142.5 c 128,-1,37
 288 119 288 119 376 119 c 0,38,39
 438 119 438 119 500 135.5 c 128,-1,40
 562 152 562 152 605 182 c 1,41,-1
 655 60 l 1,0,1
EndSplineSet
EndChar

StartChar: uni1E1C.ss01
Encoding: 65576 -1 284
Width: 667
GlyphClass: 2
Flags: W
AnchorPoint: "Anchor-14" 362 700 basechar 0
AnchorPoint: "Anchor-13" 617 0 basechar 0
AnchorPoint: "Anchor-12" 362 0 basechar 0
LayerCount: 2
Fore
SplineSet
232 790 m 128,-1,1
 181 831 181 831 178 901 c 1,2,-1
 276 901 l 1,3,4
 277 869 277 869 301.5 849.5 c 128,-1,5
 326 830 326 830 362 830 c 256,6,7
 398 830 398 830 422.5 849.5 c 128,-1,8
 447 869 447 869 448 901 c 1,9,-1
 546 901 l 1,10,11
 543 831 543 831 492 790 c 128,-1,12
 441 749 441 749 362 749 c 256,13,0
 283 749 283 749 232 790 c 128,-1,1
389 -50 m 1,14,15
 433 -55 433 -55 454.5 -77.5 c 128,-1,16
 476 -100 476 -100 476 -133 c 0,17,18
 476 -179 476 -179 436 -205.5 c 128,-1,19
 396 -232 396 -232 329 -232 c 0,20,21
 303 -232 303 -232 278 -226.5 c 128,-1,22
 253 -221 253 -221 236 -211 c 1,23,-1
 260 -144 l 1,24,25
 292 -159 292 -159 325 -159 c 0,26,27
 377 -159 377 -159 377 -127 c 0,28,29
 377 -98 377 -98 328 -98 c 2,30,-1
 294 -98 l 1,31,-1
 316 -10 l 1,32,33
 182 0 182 0 110.5 55.5 c 128,-1,34
 39 111 39 111 39 197 c 0,35,36
 39 253 39 253 70 296 c 128,-1,37
 101 339 101 339 155 360 c 1,38,39
 114 382 114 382 91.5 420 c 128,-1,40
 69 458 69 458 69 505 c 0,41,42
 69 562 69 562 104 609 c 128,-1,43
 139 656 139 656 210 684 c 128,-1,44
 281 712 281 712 384 712 c 0,45,46
 452 712 452 712 517 698.5 c 128,-1,47
 582 685 582 685 630 662 c 1,48,-1
 585 538 l 1,49,50
 493 581 493 581 390 581 c 0,51,52
 312 581 312 581 272.5 557.5 c 128,-1,53
 233 534 233 534 233 494 c 0,54,55
 233 457 233 457 259.5 437.5 c 128,-1,56
 286 418 286 418 340 418 c 2,57,-1
 531 418 l 1,58,-1
 531 290 l 1,59,-1
 330 290 l 2,60,61
 269 290 269 290 236 269 c 128,-1,62
 203 248 203 248 203 208 c 0,63,64
 203 166 203 166 245.5 142.5 c 128,-1,65
 288 119 288 119 376 119 c 0,66,67
 438 119 438 119 500 135.5 c 128,-1,68
 562 152 562 152 605 182 c 1,69,-1
 655 60 l 1,70,71
 609 29 609 29 541.5 10.5 c 128,-1,72
 474 -8 474 -8 398 -11 c 1,73,-1
 389 -50 l 1,14,15
EndSplineSet
EndChar

StartChar: Eogonek.ss01
Encoding: 65593 -1 301
Width: 667
GlyphClass: 2
Flags: W
AnchorPoint: "Anchor-14" 362 700 basechar 0
AnchorPoint: "Anchor-12" 362 0 basechar 0
LayerCount: 2
Fore
SplineSet
618 -138 m 1,1,-1
 640 -209 l 1,2,3
 621 -219 621 -219 594 -225.5 c 128,-1,4
 567 -232 567 -232 540 -232 c 0,5,6
 475 -232 475 -232 438 -201.5 c 128,-1,7
 401 -171 401 -171 401 -120 c 0,8,9
 401 -56 401 -56 452 -6 c 1,10,11
 412 -12 412 -12 369 -12 c 0,12,13
 263 -12 263 -12 189 14.5 c 128,-1,14
 115 41 115 41 77 88.5 c 128,-1,15
 39 136 39 136 39 197 c 0,16,17
 39 253 39 253 70 296 c 128,-1,18
 101 339 101 339 155 360 c 1,19,20
 114 382 114 382 91.5 420 c 128,-1,21
 69 458 69 458 69 505 c 0,22,23
 69 562 69 562 104 609 c 128,-1,24
 139 656 139 656 210 684 c 128,-1,25
 281 712 281 712 384 712 c 0,26,27
 452 712 452 712 517 698.5 c 128,-1,28
 582 685 582 685 630 662 c 1,29,-1
 585 538 l 1,30,31
 493 581 493 581 390 581 c 0,32,33
 312 581 312 581 272.5 557.5 c 128,-1,34
 233 534 233 534 233 494 c 0,35,36
 233 457 233 457 259.5 437.5 c 128,-1,37
 286 418 286 418 340 418 c 2,38,-1
 531 418 l 1,39,-1
 531 290 l 1,40,-1
 330 290 l 2,41,42
 269 290 269 290 236 269 c 128,-1,43
 203 248 203 248 203 208 c 0,44,45
 203 166 203 166 245.5 142.5 c 128,-1,46
 288 119 288 119 376 119 c 0,47,48
 437 119 437 119 499 136 c 128,-1,49
 561 153 561 153 605 182 c 1,50,-1
 655 60 l 1,51,52
 500 -29 500 -29 500 -104 c 0,53,54
 500 -127 500 -127 515.5 -140 c 128,-1,55
 531 -153 531 -153 557 -153 c 0,56,0
 591 -153 591 -153 618 -138 c 1,1,-1
EndSplineSet
EndChar

StartChar: F.ss01
Encoding: 65595 -1 303
Width: 615
GlyphClass: 1
Flags: W
LayerCount: 2
Fore
SplineSet
282 537.5 m 128,-1,1
 239 501 239 501 239 428 c 2,2,-1
 239 385 l 1,3,-1
 527 385 l 1,4,-1
 527 255 l 1,5,-1
 239 255 l 1,6,-1
 239 0 l 1,7,-1
 77 0 l 1,8,-1
 77 427 l 2,9,10
 77 562 77 562 161.5 637 c 128,-1,11
 246 712 246 712 398 712 c 0,12,13
 458 712 458 712 511 699.5 c 128,-1,14
 564 687 564 687 603 663 c 1,15,-1
 553 535 l 1,16,17
 493 574 493 574 409 574 c 256,18,0
 325 574 325 574 282 537.5 c 128,-1,1
EndSplineSet
EndChar

StartChar: G.ss01
Encoding: 65596 -1 304
Width: 771
GlyphClass: 2
Flags: W
AnchorPoint: "Anchor-14" 417 700 basechar 0
AnchorPoint: "Anchor-12" 407 2 basechar 0
LayerCount: 2
Fore
SplineSet
556 361 m 1,0,-1
 704 361 l 1,1,-1
 704 0 l 1,2,-1
 582 0 l 1,3,-1
 582 42 l 1,4,5
 509 -12 509 -12 394 -12 c 0,6,7
 297 -12 297 -12 216 30 c 128,-1,8
 135 72 135 72 87 152.5 c 128,-1,9
 39 233 39 233 39 344 c 0,10,11
 39 451 39 451 88.5 534.5 c 128,-1,12
 138 618 138 618 226 665 c 128,-1,13
 314 712 314 712 424 712 c 0,14,15
 516 712 516 712 591 681 c 128,-1,16
 666 650 666 650 717 591 c 1,17,-1
 613 495 l 1,18,19
 538 574 538 574 432 574 c 0,20,21
 365 574 365 574 313 545.5 c 128,-1,22
 261 517 261 517 232 465 c 128,-1,23
 203 413 203 413 203 345 c 0,24,25
 203 274 203 274 231.5 224 c 128,-1,26
 260 174 260 174 308 148.5 c 128,-1,27
 356 123 356 123 413 123 c 0,28,29
 498 123 498 123 556 171 c 1,30,-1
 556 361 l 1,0,-1
EndSplineSet
EndChar

StartChar: uni01E4.ss01
Encoding: 65603 -1 311
Width: 816
GlyphClass: 2
Flags: W
AnchorPoint: "Anchor-14" 417 700 basechar 0
AnchorPoint: "Anchor-12" 407 2 basechar 0
LayerCount: 2
Fore
SplineSet
795 305 m 1,0,-1
 795 198 l 1,1,-1
 704 198 l 1,2,-1
 704 0 l 1,3,-1
 582 0 l 1,4,-1
 582 42 l 1,5,6
 509 -12 509 -12 394 -12 c 0,7,8
 297 -12 297 -12 216 30 c 128,-1,9
 135 72 135 72 87 152.5 c 128,-1,10
 39 233 39 233 39 344 c 0,11,12
 39 451 39 451 88.5 534.5 c 128,-1,13
 138 618 138 618 226 665 c 128,-1,14
 314 712 314 712 424 712 c 0,15,16
 516 712 516 712 591 681 c 128,-1,17
 666 650 666 650 717 591 c 1,18,-1
 613 495 l 1,19,20
 538 574 538 574 432 574 c 0,21,22
 365 574 365 574 313 545.5 c 128,-1,23
 261 517 261 517 232 465 c 128,-1,24
 203 413 203 413 203 345 c 0,25,26
 203 274 203 274 231.5 224 c 128,-1,27
 260 174 260 174 308 148.5 c 128,-1,28
 356 123 356 123 413 123 c 0,29,30
 498 123 498 123 556 171 c 1,31,-1
 556 198 l 1,32,-1
 396 198 l 1,33,-1
 396 305 l 1,34,-1
 556 305 l 1,35,-1
 556 361 l 1,36,-1
 704 361 l 1,37,-1
 704 305 l 1,38,-1
 795 305 l 1,0,-1
EndSplineSet
EndChar

StartChar: I.ss01
Encoding: 65604 -1 312
Width: 483
GlyphClass: 2
Flags: W
AnchorPoint: "Anchor-14" 242 700 basechar 0
AnchorPoint: "Anchor-13" 324 0 basechar 0
AnchorPoint: "Anchor-12" 242 0 basechar 0
LayerCount: 2
Fore
SplineSet
444 700 m 1,0,-1
 444 570 l 1,1,-1
 323 570 l 1,2,-1
 323 130 l 1,3,-1
 444 130 l 1,4,-1
 444 0 l 1,5,-1
 39 0 l 1,6,-1
 39 130 l 1,7,-1
 161 130 l 1,8,-1
 161 570 l 1,9,-1
 39 570 l 1,10,-1
 39 700 l 1,11,-1
 444 700 l 1,0,-1
EndSplineSet
EndChar

StartChar: IJ.ss01
Encoding: 65605 -1 313
Width: 724
GlyphClass: 2
Flags: W
AnchorPoint: "Anchor-14" 168 700 basechar 0
LayerCount: 2
Fore
SplineSet
181 -88.5 m 128,-1,1
 113 -68 113 -68 61 -32 c 1,2,-1
 122 90 l 1,3,4
 168 59 168 59 220.5 42.5 c 128,-1,5
 273 26 273 26 324 26 c 0,6,7
 404 26 404 26 444.5 70.5 c 128,-1,8
 485 115 485 115 485 208 c 2,9,-1
 485 700 l 1,10,-1
 647 700 l 1,11,-1
 647 218 l 2,12,13
 647 113 647 113 607.5 39.5 c 128,-1,14
 568 -34 568 -34 496 -71.5 c 128,-1,15
 424 -109 424 -109 327 -109 c 0,16,0
 249 -109 249 -109 181 -88.5 c 128,-1,1
239 222 m 1,17,-1
 77 222 l 1,18,-1
 77 700 l 1,19,-1
 239 700 l 1,20,-1
 239 222 l 1,17,-1
EndSplineSet
EndChar

StartChar: Iacute_J.loclNLD.ss01
Encoding: 65607 -1 315
Width: 724
GlyphClass: 1
Flags: W
LayerCount: 2
Fore
SplineSet
193 757 m 1,0,-1
 84 757 l 1,1,-1
 218 901 l 1,2,-1
 374 901 l 1,3,-1
 193 757 l 1,0,-1
600 757 m 1,4,-1
 491 757 l 1,5,-1
 626 901 l 1,6,-1
 782 901 l 1,7,-1
 600 757 l 1,4,-1
181.5 -87 m 128,-1,9
 113 -66 113 -66 61 -29 c 1,10,-1
 122 91 l 1,11,12
 168 61 168 61 220 44.5 c 128,-1,13
 272 28 272 28 321 28 c 0,14,15
 403 28 403 28 443.5 72.5 c 128,-1,16
 484 117 484 117 484 211 c 2,17,-1
 484 700 l 1,18,-1
 647 700 l 1,19,-1
 647 219 l 2,20,21
 647 114 647 114 607.5 40.5 c 128,-1,22
 568 -33 568 -33 496 -70.5 c 128,-1,23
 424 -108 424 -108 327 -108 c 0,24,8
 250 -108 250 -108 181.5 -87 c 128,-1,9
239 222 m 1,25,-1
 77 222 l 1,26,-1
 77 700 l 1,27,-1
 239 700 l 1,28,-1
 239 222 l 1,25,-1
EndSplineSet
EndChar

StartChar: Iogonek.ss01
Encoding: 65619 -1 327
Width: 483
GlyphClass: 2
Flags: W
AnchorPoint: "Anchor-14" 242 700 basechar 0
AnchorPoint: "Anchor-13" 324 0 basechar 0
AnchorPoint: "Anchor-12" 242 0 basechar 0
LayerCount: 2
Fore
SplineSet
444 570 m 1,0,-1
 323 570 l 1,1,-1
 323 130 l 1,2,-1
 444 130 l 1,3,-1
 444 0 l 1,4,-1
 324 0 l 1,5,6
 288 -29 288 -29 273.5 -54.5 c 128,-1,7
 259 -80 259 -80 259 -106 c 0,8,9
 259 -127 259 -127 271 -140 c 128,-1,10
 283 -153 283 -153 301 -153 c 256,11,12
 319 -153 319 -153 333 -143 c 1,13,-1
 355 -211 l 1,14,15
 326 -232 326 -232 281 -232 c 0,16,17
 227 -232 227 -232 194 -201.5 c 128,-1,18
 161 -171 161 -171 161 -121 c 0,19,20
 161 -54 161 -54 219 0 c 1,21,-1
 39 0 l 1,22,-1
 39 130 l 1,23,-1
 161 130 l 1,24,-1
 161 570 l 1,25,-1
 39 570 l 1,26,-1
 39 700 l 1,27,-1
 444 700 l 1,28,-1
 444 570 l 1,0,-1
EndSplineSet
EndChar

StartChar: J.ss01
Encoding: 65621 -1 329
Width: 540
GlyphClass: 2
Flags: W
AnchorPoint: "Anchor-14" 260 700 basechar 0
LayerCount: 2
Fore
SplineSet
80.5 -85.5 m 128,-1,1
 22 -59 22 -59 -16 -10 c 1,2,-1
 72 98 l 1,3,4
 129 21 129 21 201 21 c 0,5,6
 301 21 301 21 301 137 c 2,7,-1
 301 570 l 1,8,-1
 56 570 l 1,9,-1
 56 700 l 1,10,-1
 463 700 l 1,11,-1
 463 146 l 2,12,13
 463 17 463 17 399 -47.5 c 128,-1,14
 335 -112 335 -112 210 -112 c 0,15,0
 139 -112 139 -112 80.5 -85.5 c 128,-1,1
EndSplineSet
EndChar

StartChar: M.ss01
Encoding: 65625 -1 333
Width: 1221
GlyphClass: 2
Flags: W
AnchorPoint: "Anchor-14" 609 700 basechar 0
AnchorPoint: "Anchor-12" 611 0 basechar 0
LayerCount: 2
Fore
SplineSet
1075 639.5 m 128,-1,1
 1144 567 1144 567 1144 430 c 2,2,-1
 1144 0 l 1,3,-1
 982 0 l 1,4,-1
 982 425 l 2,5,6
 982 499 982 499 943.5 536.5 c 128,-1,7
 905 574 905 574 842 574 c 0,8,9
 773 574 773 574 732 534.5 c 128,-1,10
 691 495 691 495 691 415 c 2,11,-1
 691 0 l 1,12,-1
 529 0 l 1,13,-1
 529 425 l 2,14,15
 529 499 529 499 493 536.5 c 128,-1,16
 457 574 457 574 395 574 c 0,17,18
 327 574 327 574 286 534.5 c 128,-1,19
 245 495 245 495 245 415 c 2,20,-1
 245 0 l 1,21,-1
 83 0 l 1,22,-1
 83 700 l 1,23,-1
 240 700 l 1,24,-1
 240 614 l 1,25,26
 272 661 272 661 325 686.5 c 128,-1,27
 378 712 378 712 447 712 c 0,28,29
 519 712 519 712 573 685.5 c 128,-1,30
 627 659 627 659 656 609 c 1,31,32
 692 659 692 659 750.5 685.5 c 128,-1,33
 809 712 809 712 882 712 c 0,34,0
 1006 712 1006 712 1075 639.5 c 128,-1,1
EndSplineSet
EndChar

StartChar: N.ss01
Encoding: 65627 -1 335
Width: 796
GlyphClass: 2
Flags: W
AnchorPoint: "Anchor-14" 401 700 basechar 0
AnchorPoint: "Anchor-12" 401 0 basechar 0
LayerCount: 2
Fore
SplineSet
649 633.5 m 128,-1,1
 719 555 719 555 719 410 c 2,2,-1
 719 0 l 1,3,-1
 557 0 l 1,4,-1
 557 405 l 2,5,6
 557 489 557 489 517.5 531.5 c 128,-1,7
 478 574 478 574 408 574 c 0,8,9
 334 574 334 574 289.5 528.5 c 128,-1,10
 245 483 245 483 245 394 c 2,11,-1
 245 0 l 1,12,-1
 83 0 l 1,13,-1
 83 700 l 1,14,-1
 240 700 l 1,15,-1
 240 615 l 1,16,17
 276 663 276 663 330 687.5 c 128,-1,18
 384 712 384 712 454 712 c 0,19,0
 579 712 579 712 649 633.5 c 128,-1,1
EndSplineSet
EndChar

StartChar: Eng.ss01
Encoding: 65634 -1 342
Width: 796
GlyphClass: 1
Flags: W
LayerCount: 2
Fore
SplineSet
649 633.5 m 128,-1,1
 719 555 719 555 719 410 c 2,2,-1
 719 57 l 2,3,4
 719 -72 719 -72 655 -137 c 128,-1,5
 591 -202 591 -202 468 -202 c 0,6,7
 412 -202 412 -202 363.5 -185.5 c 128,-1,8
 315 -169 315 -169 279 -136 c 1,9,-1
 355 -20 l 1,10,11
 399 -66 399 -66 459 -66 c 0,12,13
 507 -66 507 -66 532 -37 c 128,-1,14
 557 -8 557 -8 557 50 c 2,15,-1
 557 405 l 2,16,17
 557 489 557 489 517.5 531.5 c 128,-1,18
 478 574 478 574 408 574 c 0,19,20
 334 574 334 574 289.5 528.5 c 128,-1,21
 245 483 245 483 245 394 c 2,22,-1
 245 0 l 1,23,-1
 83 0 l 1,24,-1
 83 700 l 1,25,-1
 240 700 l 1,26,-1
 240 615 l 1,27,28
 276 663 276 663 330 687.5 c 128,-1,29
 384 712 384 712 454 712 c 0,30,0
 579 712 579 712 649 633.5 c 128,-1,1
EndSplineSet
EndChar

StartChar: Q.ss01
Encoding: 65638 -1 346
Width: 844
GlyphClass: 1
Flags: W
LayerCount: 2
Fore
SplineSet
767 185.5 m 128,-1,1
 729 111 729 111 660.5 61 c 128,-1,2
 592 11 592 11 503 -5 c 1,3,-1
 503 -135 l 1,4,-1
 340 -135 l 1,5,-1
 340 -5 l 1,6,7
 252 11 252 11 183.5 61 c 128,-1,8
 115 111 115 111 77 186 c 128,-1,9
 39 261 39 261 39 350 c 0,10,11
 39 453 39 453 88.5 535.5 c 128,-1,12
 138 618 138 618 225.5 665 c 128,-1,13
 313 712 313 712 422 712 c 256,14,15
 531 712 531 712 618 665 c 128,-1,16
 705 618 705 618 755 535.5 c 128,-1,17
 805 453 805 453 805 350 c 0,18,0
 805 260 805 260 767 185.5 c 128,-1,1
496 137 m 1,19,20
 563 158 563 158 602 214.5 c 128,-1,21
 641 271 641 271 641 350 c 0,22,23
 641 415 641 415 612.5 466 c 128,-1,24
 584 517 584 517 534 545.5 c 128,-1,25
 484 574 484 574 422 574 c 256,26,27
 360 574 360 574 310 545.5 c 128,-1,28
 260 517 260 517 231.5 466 c 128,-1,29
 203 415 203 415 203 350 c 0,30,31
 203 271 203 271 241.5 215 c 128,-1,32
 280 159 280 159 346 137 c 1,33,-1
 346 281 l 1,34,-1
 496 281 l 1,35,-1
 496 137 l 1,19,20
EndSplineSet
EndChar

StartChar: uni018F.ss01
Encoding: 65639 -1 347
Width: 817
GlyphClass: 2
Flags: W
AnchorPoint: "Anchor-14" 408 700 basechar 0
AnchorPoint: "Anchor-12" 408 0 basechar 0
LayerCount: 2
Fore
SplineSet
594 665.5 m 128,-1,1
 681 619 681 619 729.5 536.5 c 128,-1,2
 778 454 778 454 778 351 c 0,3,4
 778 247 778 247 730 164 c 128,-1,5
 682 81 682 81 598 34.5 c 128,-1,6
 514 -12 514 -12 409 -12 c 0,7,8
 279 -12 279 -12 184.5 57 c 128,-1,9
 90 126 90 126 55 245 c 1,10,-1
 590 460 l 1,11,12
 563 512 563 512 512 543 c 128,-1,13
 461 574 461 574 397 574 c 0,14,15
 341 574 341 574 286 552.5 c 128,-1,16
 231 531 231 531 194 492 c 1,17,-1
 97 597 l 1,18,19
 148 649 148 649 228 680.5 c 128,-1,20
 308 712 308 712 398 712 c 0,21,0
 507 712 507 712 594 665.5 c 128,-1,1
559 175 m 128,-1,23
 614 233 614 233 614 331 c 2,24,-1
 614 349 l 1,25,-1
 245 199 l 1,26,27
 268 159 268 159 309.5 138 c 128,-1,28
 351 117 351 117 409 117 c 0,29,22
 504 117 504 117 559 175 c 128,-1,23
EndSplineSet
EndChar

StartChar: T.ss01
Encoding: 65640 -1 348
Width: 638
GlyphClass: 2
Flags: W
AnchorPoint: "Anchor-17" 238 0 basechar 0
AnchorPoint: "Anchor-15" 318 316 basechar 0
AnchorPoint: "Anchor-14" 322 700 basechar 0
AnchorPoint: "Anchor-12" 319 0 basechar 0
LayerCount: 2
Fore
SplineSet
593 504 m 1,0,1
 503 556 503 556 400 571 c 1,2,-1
 400 0 l 1,3,-1
 238 0 l 1,4,-1
 238 571 l 1,5,6
 135 556 135 556 44 504 c 1,7,-1
 -11 625 l 1,8,9
 61 668 61 668 145 690 c 128,-1,10
 229 712 229 712 318 712 c 0,11,12
 408 712 408 712 492.5 690 c 128,-1,13
 577 668 577 668 648 625 c 1,14,-1
 593 504 l 1,0,1
EndSplineSet
EndChar

StartChar: Tbar.ss01
Encoding: 65641 -1 349
Width: 638
GlyphClass: 2
Flags: W
AnchorPoint: "Anchor-17" 238 0 basechar 0
AnchorPoint: "Anchor-15" 318 316 basechar 0
AnchorPoint: "Anchor-14" 322 700 basechar 0
AnchorPoint: "Anchor-12" 319 0 basechar 0
LayerCount: 2
Fore
SplineSet
593 504 m 1,0,1
 503 556 503 556 400 571 c 1,2,-1
 400 370 l 1,3,-1
 534 370 l 1,4,-1
 534 262 l 1,5,-1
 400 262 l 1,6,-1
 400 0 l 1,7,-1
 238 0 l 1,8,-1
 238 262 l 1,9,-1
 102 262 l 1,10,-1
 102 370 l 1,11,-1
 238 370 l 1,12,-1
 238 571 l 1,13,14
 135 556 135 556 44 504 c 1,15,-1
 -11 625 l 1,16,17
 61 668 61 668 145 690 c 128,-1,18
 229 712 229 712 318 712 c 0,19,20
 408 712 408 712 492.5 690 c 128,-1,21
 577 668 577 668 648 625 c 1,22,-1
 593 504 l 1,0,1
EndSplineSet
EndChar

StartChar: uni0162.ss01
Encoding: 65643 -1 351
Width: 638
GlyphClass: 2
Flags: W
AnchorPoint: "Anchor-17" 238 0 basechar 0
AnchorPoint: "Anchor-15" 318 316 basechar 0
AnchorPoint: "Anchor-14" 322 700 basechar 0
AnchorPoint: "Anchor-12" 319 0 basechar 0
LayerCount: 2
Fore
SplineSet
400 0 m 1,0,-1
 358 0 l 1,1,-1
 346 -50 l 1,2,3
 390 -55 390 -55 411.5 -77.5 c 128,-1,4
 433 -100 433 -100 433 -133 c 0,5,6
 433 -179 433 -179 393 -205.5 c 128,-1,7
 353 -232 353 -232 286 -232 c 0,8,9
 260 -232 260 -232 235 -226.5 c 128,-1,10
 210 -221 210 -221 193 -211 c 1,11,-1
 217 -144 l 1,12,13
 249 -159 249 -159 282 -159 c 0,14,15
 334 -159 334 -159 334 -127 c 0,16,17
 334 -98 334 -98 285 -98 c 2,18,-1
 251 -98 l 1,19,-1
 275 0 l 1,20,-1
 238 0 l 1,21,-1
 238 571 l 1,22,23
 135 556 135 556 44 504 c 1,24,-1
 -11 625 l 1,25,26
 61 668 61 668 145 690 c 128,-1,27
 229 712 229 712 318 712 c 0,28,29
 408 712 408 712 492.5 690 c 128,-1,30
 577 668 577 668 648 625 c 1,31,-1
 593 504 l 1,32,33
 503 556 503 556 400 571 c 1,34,-1
 400 0 l 1,0,-1
EndSplineSet
EndChar

StartChar: U.ss01
Encoding: 65647 -1 355
Width: 792
GlyphClass: 2
Flags: W
AnchorPoint: "Anchor-16" 642 700 basechar 0
AnchorPoint: "Anchor-14" 391 700 basechar 0
AnchorPoint: "Anchor-13" 709 0 basechar 0
AnchorPoint: "Anchor-12" 391 0 basechar 0
LayerCount: 2
Fore
SplineSet
547 700 m 1,0,-1
 709 700 l 1,1,-1
 709 0 l 1,2,-1
 552 0 l 1,3,-1
 552 85 l 1,4,5
 480 -12 480 -12 340 -12 c 0,6,7
 216 -12 216 -12 146.5 66.5 c 128,-1,8
 77 145 77 145 77 290 c 2,9,-1
 77 700 l 1,10,-1
 239 700 l 1,11,-1
 239 295 l 2,12,13
 239 211 239 211 278.5 168.5 c 128,-1,14
 318 126 318 126 386 126 c 0,15,16
 459 126 459 126 503 171.5 c 128,-1,17
 547 217 547 217 547 306 c 2,18,-1
 547 700 l 1,0,-1
EndSplineSet
EndChar

StartChar: Uhorn.ss01
Encoding: 65657 -1 365
Width: 792
GlyphClass: 2
Flags: W
AnchorPoint: "Anchor-16" 642 700 basechar 0
AnchorPoint: "Anchor-14" 391 700 basechar 0
AnchorPoint: "Anchor-13" 709 0 basechar 0
AnchorPoint: "Anchor-12" 391 0 basechar 0
LayerCount: 2
Fore
SplineSet
783.5 661 m 128,-1,1
 757 622 757 622 709 606 c 1,2,-1
 709 0 l 1,3,-1
 552 0 l 1,4,-1
 552 85 l 1,5,6
 480 -12 480 -12 340 -12 c 0,7,8
 216 -12 216 -12 146.5 66.5 c 128,-1,9
 77 145 77 145 77 290 c 2,10,-1
 77 700 l 1,11,-1
 239 700 l 1,12,-1
 239 295 l 2,13,14
 239 211 239 211 278.5 168.5 c 128,-1,15
 318 126 318 126 386 126 c 0,16,17
 459 126 459 126 503 171.5 c 128,-1,18
 547 217 547 217 547 306 c 2,19,-1
 547 700 l 1,20,-1
 646 700 l 2,21,22
 673 700 673 700 689.5 717.5 c 128,-1,23
 706 735 706 735 706 763 c 0,24,25
 706 798 706 798 686 823 c 1,26,-1
 778 857 l 1,27,28
 810 815 810 815 810 757 c 0,29,0
 810 700 810 700 783.5 661 c 128,-1,1
EndSplineSet
EndChar

StartChar: Uogonek.ss01
Encoding: 65667 -1 375
Width: 792
GlyphClass: 2
Flags: W
AnchorPoint: "Anchor-16" 642 700 basechar 0
AnchorPoint: "Anchor-14" 391 700 basechar 0
AnchorPoint: "Anchor-13" 709 0 basechar 0
AnchorPoint: "Anchor-12" 391 0 basechar 0
LayerCount: 2
Fore
SplineSet
733 -209 m 1,0,1
 714 -219 714 -219 687 -225.5 c 128,-1,2
 660 -232 660 -232 632 -232 c 0,3,4
 568 -232 568 -232 531 -201.5 c 128,-1,5
 494 -171 494 -171 494 -120 c 0,6,7
 494 -51 494 -51 567 0 c 1,8,-1
 552 0 l 1,9,-1
 552 85 l 1,10,11
 480 -12 480 -12 340 -12 c 0,12,13
 216 -12 216 -12 146.5 66.5 c 128,-1,14
 77 145 77 145 77 290 c 2,15,-1
 77 700 l 1,16,-1
 239 700 l 1,17,-1
 239 295 l 2,18,19
 239 211 239 211 278.5 168.5 c 128,-1,20
 318 126 318 126 386 126 c 0,21,22
 459 126 459 126 503 171.5 c 128,-1,23
 547 217 547 217 547 306 c 2,24,-1
 547 700 l 1,25,-1
 709 700 l 1,26,-1
 709 1 l 1,27,-1
 710 0 l 1,28,29
 647 -28 647 -28 620 -53.5 c 128,-1,30
 593 -79 593 -79 593 -107 c 0,31,32
 593 -128 593 -128 608.5 -140.5 c 128,-1,33
 624 -153 624 -153 650 -153 c 0,34,35
 684 -153 684 -153 711 -138 c 1,36,-1
 733 -209 l 1,0,1
EndSplineSet
EndChar

StartChar: W.ss01
Encoding: 65671 -1 379
Width: 1201
GlyphClass: 2
Flags: W
AnchorPoint: "Anchor-14" 600 700 basechar 0
AnchorPoint: "Anchor-12" 601 0 basechar 0
LayerCount: 2
Fore
SplineSet
961 700 m 1,0,-1
 1124 700 l 1,1,-1
 1124 287 l 2,2,3
 1124 141 1124 141 1045 64.5 c 128,-1,4
 966 -12 966 -12 821 -12 c 0,5,6
 749 -12 749 -12 692.5 9 c 128,-1,7
 636 30 636 30 600 68 c 1,8,9
 563 30 563 30 507 9 c 128,-1,10
 451 -12 451 -12 380 -12 c 0,11,12
 235 -12 235 -12 156 64.5 c 128,-1,13
 77 141 77 141 77 287 c 2,14,-1
 77 700 l 1,15,-1
 239 700 l 1,16,-1
 239 292 l 2,17,18
 239 207 239 207 274 166.5 c 128,-1,19
 309 126 309 126 378 126 c 0,20,21
 519 126 519 126 519 292 c 2,22,-1
 519 700 l 1,23,-1
 681 700 l 1,24,-1
 681 292 l 2,25,26
 681 126 681 126 823 126 c 0,27,28
 961 126 961 126 961 292 c 2,29,-1
 961 700 l 1,0,-1
EndSplineSet
EndChar

StartChar: Y.ss01
Encoding: 65676 -1 384
Width: 785
GlyphClass: 2
Flags: W
AnchorPoint: "Anchor-14" 390 700 basechar 0
AnchorPoint: "Anchor-12" 671 0 basechar 0
LayerCount: 2
Fore
SplineSet
546 700 m 1,0,-1
 708 700 l 1,1,-1
 708 219 l 2,2,3
 708 61 708 61 620 -23.5 c 128,-1,4
 532 -108 532 -108 377 -108 c 0,5,6
 288 -108 288 -108 214 -83.5 c 128,-1,7
 140 -59 140 -59 88 -14 c 1,8,-1
 151 106 l 1,9,10
 246 29 246 29 373 29 c 0,11,12
 461 29 461 29 503.5 73.5 c 128,-1,13
 546 118 546 118 546 211 c 2,14,-1
 546 254 l 1,15,16
 476 168 476 168 348 168 c 0,17,18
 215 168 215 168 143.5 243.5 c 128,-1,19
 72 319 72 319 72 461 c 2,20,-1
 72 700 l 1,21,-1
 234 700 l 1,22,-1
 234 471 l 2,23,24
 234 389 234 389 273 347 c 128,-1,25
 312 305 312 305 383 305 c 0,26,27
 458 305 458 305 502 349 c 128,-1,28
 546 393 546 393 546 482 c 2,29,-1
 546 700 l 1,0,-1
EndSplineSet
EndChar

StartChar: Z.ss01
Encoding: 65686 -1 394
Width: 681
GlyphClass: 2
Flags: W
AnchorPoint: "Anchor-14" 348 700 basechar 0
AnchorPoint: "Anchor-12" 351 0 basechar 0
LayerCount: 2
Fore
SplineSet
384 294 m 1,0,-1
 249 130 l 1,1,-1
 655 130 l 1,2,-1
 655 0 l 1,3,-1
 43 0 l 1,4,-1
 43 94 l 1,5,-1
 209 296 l 1,6,-1
 98 296 l 1,7,-1
 98 417 l 1,8,-1
 308 417 l 1,9,-1
 434 570 l 1,10,-1
 50 570 l 1,11,-1
 50 700 l 1,12,-1
 640 700 l 1,13,-1
 640 607 l 1,14,-1
 482 414 l 1,15,-1
 584 414 l 1,16,-1
 584 294 l 1,17,-1
 384 294 l 1,0,-1
EndSplineSet
EndChar

StartChar: a
Encoding: 97 97 399
Width: 617
GlyphClass: 2
Flags: W
AnchorPoint: "Anchor-14" 305 538 basechar 0
AnchorPoint: "Anchor-13" 548 0 basechar 0
AnchorPoint: "Anchor-12" 293 0 basechar 0
LayerCount: 2
Fore
SplineSet
481 486.5 m 128,-1,1
 548 427 548 427 548 307 c 2,2,-1
 548 0 l 1,3,-1
 402 0 l 1,4,-1
 402 67 l 1,5,6
 358 -8 358 -8 238 -8 c 0,7,8
 176 -8 176 -8 130.5 13 c 128,-1,9
 85 34 85 34 61 71 c 128,-1,10
 37 108 37 108 37 155 c 0,11,12
 37 230 37 230 93.5 273 c 128,-1,13
 150 316 150 316 268 316 c 2,14,-1
 392 316 l 1,15,16
 392 367 392 367 361 394.5 c 128,-1,17
 330 422 330 422 268 422 c 0,18,19
 225 422 225 422 183.5 408.5 c 128,-1,20
 142 395 142 395 113 372 c 1,21,-1
 57 481 l 1,22,23
 101 512 101 512 162.5 529 c 128,-1,24
 224 546 224 546 289 546 c 0,25,0
 414 546 414 546 481 486.5 c 128,-1,1
348 115.5 m 128,-1,27
 379 134 379 134 392 170 c 1,28,-1
 392 225 l 1,29,-1
 285 225 l 2,30,31
 189 225 189 225 189 162 c 0,32,33
 189 132 189 132 212.5 114.5 c 128,-1,34
 236 97 236 97 277 97 c 0,35,26
 317 97 317 97 348 115.5 c 128,-1,27
EndSplineSet
Substitution2: "Single Substitution lookup 40 subtable" ordfeminine
Substitution2: "'ss01' Style Set 1 lookup 35 subtable" a.ss01
Substitution2: "'salt' Stylistic Alternatives lookup 34 subtable" a.ss01
Substitution2: "'smcp' Lowercase to Small Capitals lookup 30 subtable" a.sc
AlternateSubs2: "'aalt' Access All Alternates lookup 1 subtable" ordfeminine a.sc a.ss01
EndChar

StartChar: aogonek
Encoding: 261 261 421
Width: 617
GlyphClass: 2
Flags: W
AnchorPoint: "Anchor-14" 305 538 basechar 0
AnchorPoint: "Anchor-13" 548 0 basechar 0
AnchorPoint: "Anchor-12" 293 0 basechar 0
LayerCount: 2
Fore
SplineSet
572 -209 m 1,0,1
 553 -219 553 -219 526 -225.5 c 128,-1,2
 499 -232 499 -232 471 -232 c 0,3,4
 407 -232 407 -232 370 -201.5 c 128,-1,5
 333 -171 333 -171 333 -120 c 0,6,7
 333 -51 333 -51 406 0 c 1,8,-1
 402 0 l 1,9,-1
 402 67 l 1,10,11
 358 -8 358 -8 238 -8 c 0,12,13
 176 -8 176 -8 130.5 13 c 128,-1,14
 85 34 85 34 61 71 c 128,-1,15
 37 108 37 108 37 155 c 0,16,17
 37 230 37 230 93.5 273 c 128,-1,18
 150 316 150 316 268 316 c 2,19,-1
 392 316 l 1,20,21
 392 367 392 367 361 394.5 c 128,-1,22
 330 422 330 422 268 422 c 0,23,24
 225 422 225 422 183.5 408.5 c 128,-1,25
 142 395 142 395 113 372 c 1,26,-1
 57 481 l 1,27,28
 101 512 101 512 162.5 529 c 128,-1,29
 224 546 224 546 289 546 c 0,30,31
 414 546 414 546 481 486.5 c 128,-1,32
 548 427 548 427 548 307 c 2,33,-1
 548 1 l 1,34,-1
 549 0 l 1,35,36
 486 -28 486 -28 459 -53.5 c 128,-1,37
 432 -79 432 -79 432 -107 c 0,38,39
 432 -128 432 -128 447.5 -140.5 c 128,-1,40
 463 -153 463 -153 489 -153 c 0,41,42
 523 -153 523 -153 550 -138 c 1,43,-1
 572 -209 l 1,0,1
348 115.5 m 128,-1,45
 379 134 379 134 392 170 c 1,46,-1
 392 225 l 1,47,-1
 285 225 l 2,48,49
 189 225 189 225 189 162 c 0,50,51
 189 132 189 132 212.5 114.5 c 128,-1,52
 236 97 236 97 277 97 c 0,53,44
 317 97 317 97 348 115.5 c 128,-1,45
EndSplineSet
Substitution2: "'ss01' Style Set 1 lookup 35 subtable" aogonek.ss01
Substitution2: "'salt' Stylistic Alternatives lookup 34 subtable" aogonek.ss01
Substitution2: "'smcp' Lowercase to Small Capitals lookup 30 subtable" aogonek.sc
AlternateSubs2: "'aalt' Access All Alternates lookup 1 subtable" aogonek.sc aogonek.ss01
EndChar

StartChar: ae
Encoding: 230 230 425
Width: 996
GlyphClass: 2
Flags: W
AnchorPoint: "Anchor-14" 470 538 basechar 0
AnchorPoint: "Anchor-12" 476 0 basechar 0
LayerCount: 2
Fore
SplineSet
960 226 m 1,1,-1
 552 226 l 1,2,3
 563 175 563 175 603 146 c 128,-1,4
 643 117 643 117 705 117 c 0,5,6
 783 117 783 117 841 169 c 1,7,-1
 924 79 l 1,8,9
 885 36 885 36 828.5 14 c 128,-1,10
 772 -8 772 -8 702 -8 c 0,11,12
 631 -8 631 -8 571 15 c 128,-1,13
 511 38 511 38 469 85 c 1,14,15
 407 -8 407 -8 263 -8 c 0,16,17
 158 -8 158 -8 97.5 38 c 128,-1,18
 37 84 37 84 37 161 c 0,19,20
 37 231 37 231 94 274 c 128,-1,21
 151 317 151 317 268 317 c 2,22,-1
 392 317 l 1,23,24
 392 367 392 367 361 394.5 c 128,-1,25
 330 422 330 422 269 422 c 0,26,27
 226 422 226 422 184 408.5 c 128,-1,28
 142 395 142 395 113 372 c 1,29,-1
 57 481 l 1,30,31
 101 512 101 512 162 529 c 128,-1,32
 223 546 223 546 288 546 c 0,33,34
 424 546 424 546 486 470 c 1,35,36
 523 506 523 506 574 526 c 128,-1,37
 625 546 625 546 684 546 c 0,38,39
 761 546 761 546 825 512 c 128,-1,40
 889 478 889 478 926 415 c 128,-1,41
 963 352 963 352 963 271 c 0,42,0
 963 246 963 246 960 226 c 1,1,-1
596 399 m 128,-1,44
 559 370 559 370 550 317 c 1,45,-1
 812 317 l 1,46,47
 804 370 804 370 767.5 399 c 128,-1,48
 731 428 731 428 682 428 c 256,49,43
 633 428 633 428 596 399 c 128,-1,44
362 125 m 128,-1,51
 392 153 392 153 392 201 c 2,52,-1
 392 226 l 1,53,-1
 285 226 l 2,54,55
 189 226 189 226 189 164 c 0,56,57
 189 132 189 132 212.5 114.5 c 128,-1,58
 236 97 236 97 279 97 c 0,59,50
 332 97 332 97 362 125 c 128,-1,51
EndSplineSet
Substitution2: "'ss01' Style Set 1 lookup 35 subtable" ae.ss01
Substitution2: "'salt' Stylistic Alternatives lookup 34 subtable" ae.ss01
Substitution2: "'smcp' Lowercase to Small Capitals lookup 30 subtable" ae.sc
AlternateSubs2: "'aalt' Access All Alternates lookup 1 subtable" ae.sc ae.ss01
EndChar

StartChar: b
Encoding: 98 98 427
Width: 690
GlyphClass: 1
Flags: W
LayerCount: 2
Fore
SplineSet
526.5 511.5 m 128,-1,1
 588 477 588 477 623 414.5 c 128,-1,2
 658 352 658 352 658 269 c 256,3,4
 658 186 658 186 623 123.5 c 128,-1,5
 588 61 588 61 526.5 26.5 c 128,-1,6
 465 -8 465 -8 390 -8 c 0,7,8
 279 -8 279 -8 221 62 c 1,9,-1
 221 0 l 1,10,-1
 72 0 l 1,11,-1
 72 742 l 1,12,-1
 228 742 l 1,13,-1
 228 481 l 1,14,15
 287 546 287 546 390 546 c 0,16,0
 465 546 465 546 526.5 511.5 c 128,-1,1
461.5 160.5 m 128,-1,18
 500 201 500 201 500 269 c 256,19,20
 500 337 500 337 461.5 377.5 c 128,-1,21
 423 418 423 418 363 418 c 256,22,23
 303 418 303 418 264.5 377.5 c 128,-1,24
 226 337 226 337 226 269 c 256,25,26
 226 201 226 201 264.5 160.5 c 128,-1,27
 303 120 303 120 363 120 c 256,28,17
 423 120 423 120 461.5 160.5 c 128,-1,18
EndSplineSet
Substitution2: "'smcp' Lowercase to Small Capitals lookup 30 subtable" b.sc
Substitution2: "'aalt' Access All Alternates lookup 0 subtable" b.sc
EndChar

StartChar: c
Encoding: 99 99 428
Width: 591
GlyphClass: 2
Flags: W
AnchorPoint: "Anchor-14" 313 538 basechar 0
AnchorPoint: "Anchor-12" 308 0 basechar 0
LayerCount: 2
Fore
SplineSet
177.5 27.5 m 128,-1,1
 109 63 109 63 70.5 126 c 128,-1,2
 32 189 32 189 32 269 c 256,3,4
 32 349 32 349 70.5 412 c 128,-1,5
 109 475 109 475 177.5 510.5 c 128,-1,6
 246 546 246 546 332 546 c 0,7,8
 417 546 417 546 480.5 510.5 c 128,-1,9
 544 475 544 475 573 409 c 1,10,-1
 452 344 l 1,11,12
 410 418 410 418 331 418 c 0,13,14
 270 418 270 418 230 378 c 128,-1,15
 190 338 190 338 190 269 c 256,16,17
 190 200 190 200 230 160 c 128,-1,18
 270 120 270 120 331 120 c 0,19,20
 411 120 411 120 452 194 c 1,21,-1
 573 128 l 1,22,23
 544 64 544 64 480.5 28 c 128,-1,24
 417 -8 417 -8 332 -8 c 0,25,0
 246 -8 246 -8 177.5 27.5 c 128,-1,1
EndSplineSet
Substitution2: "'smcp' Lowercase to Small Capitals lookup 30 subtable" c.sc
Substitution2: "'aalt' Access All Alternates lookup 0 subtable" c.sc
EndChar

StartChar: ccedilla
Encoding: 231 231 431
Width: 591
GlyphClass: 2
Flags: W
AnchorPoint: "Anchor-14" 313 538 basechar 0
AnchorPoint: "Anchor-12" 308 0 basechar 0
LayerCount: 2
Fore
SplineSet
452 194 m 1,1,-1
 573 128 l 1,2,3
 545 66 545 66 485.5 30.5 c 128,-1,4
 426 -5 426 -5 345 -8 c 1,5,-1
 335 -50 l 1,6,7
 379 -55 379 -55 400.5 -77.5 c 128,-1,8
 422 -100 422 -100 422 -133 c 0,9,10
 422 -179 422 -179 382 -205.5 c 128,-1,11
 342 -232 342 -232 275 -232 c 0,12,13
 249 -232 249 -232 224 -226.5 c 128,-1,14
 199 -221 199 -221 182 -211 c 1,15,-1
 206 -144 l 1,16,17
 238 -159 238 -159 271 -159 c 0,18,19
 323 -159 323 -159 323 -127 c 0,20,21
 323 -98 323 -98 274 -98 c 2,22,-1
 240 -98 l 1,23,-1
 264 -2 l 1,24,25
 159 18 159 18 95.5 91.5 c 128,-1,26
 32 165 32 165 32 269 c 0,27,28
 32 349 32 349 70.5 412 c 128,-1,29
 109 475 109 475 177.5 510.5 c 128,-1,30
 246 546 246 546 332 546 c 0,31,32
 417 546 417 546 480.5 510.5 c 128,-1,33
 544 475 544 475 573 409 c 1,34,-1
 452 344 l 1,35,36
 410 418 410 418 331 418 c 0,37,38
 270 418 270 418 230 378 c 128,-1,39
 190 338 190 338 190 269 c 256,40,41
 190 200 190 200 230 160 c 128,-1,42
 270 120 270 120 331 120 c 0,43,0
 411 120 411 120 452 194 c 1,1,-1
EndSplineSet
Substitution2: "'smcp' Lowercase to Small Capitals lookup 30 subtable" ccedilla.sc
Substitution2: "'aalt' Access All Alternates lookup 0 subtable" ccedilla.sc
EndChar

StartChar: uni1E09
Encoding: 7689 7689 432
Width: 591
GlyphClass: 2
Flags: W
AnchorPoint: "Anchor-14" 313 729 basechar 0
AnchorPoint: "Anchor-12" 308 0 basechar 0
LayerCount: 2
Fore
SplineSet
357 751 m 1,0,-1
 525 751 l 1,1,-1
 344 607 l 1,2,-1
 222 607 l 1,3,-1
 357 751 l 1,0,-1
452 194 m 1,5,-1
 573 128 l 1,6,7
 545 66 545 66 485.5 30.5 c 128,-1,8
 426 -5 426 -5 345 -8 c 1,9,-1
 335 -50 l 1,10,11
 379 -55 379 -55 400.5 -77.5 c 128,-1,12
 422 -100 422 -100 422 -133 c 0,13,14
 422 -179 422 -179 382 -205.5 c 128,-1,15
 342 -232 342 -232 275 -232 c 0,16,17
 249 -232 249 -232 224 -226.5 c 128,-1,18
 199 -221 199 -221 182 -211 c 1,19,-1
 206 -144 l 1,20,21
 238 -159 238 -159 271 -159 c 0,22,23
 323 -159 323 -159 323 -127 c 0,24,25
 323 -98 323 -98 274 -98 c 2,26,-1
 240 -98 l 1,27,-1
 264 -2 l 1,28,29
 159 18 159 18 95.5 91.5 c 128,-1,30
 32 165 32 165 32 269 c 0,31,32
 32 349 32 349 70.5 412 c 128,-1,33
 109 475 109 475 177.5 510.5 c 128,-1,34
 246 546 246 546 332 546 c 0,35,36
 417 546 417 546 480.5 510.5 c 128,-1,37
 544 475 544 475 573 409 c 1,38,-1
 452 344 l 1,39,40
 410 418 410 418 331 418 c 0,41,42
 270 418 270 418 230 378 c 128,-1,43
 190 338 190 338 190 269 c 256,44,45
 190 200 190 200 230 160 c 128,-1,46
 270 120 270 120 331 120 c 0,47,4
 411 120 411 120 452 194 c 1,5,-1
EndSplineSet
Substitution2: "'smcp' Lowercase to Small Capitals lookup 30 subtable" uni1E09.sc
Substitution2: "'aalt' Access All Alternates lookup 0 subtable" uni1E09.sc
EndChar

StartChar: d
Encoding: 100 100 435
Width: 692
GlyphClass: 2
Flags: W
AnchorPoint: "Anchor-16" 702 742 basechar 0
AnchorPoint: "Anchor-15" 487 637 basechar 0
AnchorPoint: "Anchor-12" 363 0 basechar 0
LayerCount: 2
Fore
SplineSet
464 742 m 1,0,-1
 620 742 l 1,1,-1
 620 0 l 1,2,-1
 471 0 l 1,3,-1
 471 62 l 1,4,5
 413 -8 413 -8 303 -8 c 0,6,7
 227 -8 227 -8 165.5 26 c 128,-1,8
 104 60 104 60 69 123 c 128,-1,9
 34 186 34 186 34 269 c 256,10,11
 34 352 34 352 69 415 c 128,-1,12
 104 478 104 478 165.5 512 c 128,-1,13
 227 546 227 546 303 546 c 0,14,15
 406 546 406 546 464 481 c 1,16,-1
 464 742 l 1,0,-1
428 160.5 m 128,-1,18
 467 201 467 201 467 269 c 256,19,20
 467 337 467 337 428 377.5 c 128,-1,21
 389 418 389 418 330 418 c 0,22,23
 270 418 270 418 231 377.5 c 128,-1,24
 192 337 192 337 192 269 c 256,25,26
 192 201 192 201 231 160.5 c 128,-1,27
 270 120 270 120 330 120 c 0,28,17
 389 120 389 120 428 160.5 c 128,-1,18
EndSplineSet
Substitution2: "'smcp' Lowercase to Small Capitals lookup 30 subtable" d.sc
Substitution2: "'aalt' Access All Alternates lookup 0 subtable" d.sc
EndChar

StartChar: eth
Encoding: 240 240 436
Width: 657
GlyphClass: 1
Flags: W
LayerCount: 2
Fore
SplineSet
544 614 m 1,0,1
 624 512 624 512 624 342 c 0,2,3
 624 232 624 232 585 152.5 c 128,-1,4
 546 73 546 73 473.5 30.5 c 128,-1,5
 401 -12 401 -12 302 -12 c 0,6,7
 226 -12 226 -12 164.5 17 c 128,-1,8
 103 46 103 46 67.5 99 c 128,-1,9
 32 152 32 152 32 221 c 0,10,11
 32 288 32 288 65.5 339 c 128,-1,12
 99 390 99 390 157 418 c 128,-1,13
 215 446 215 446 286 446 c 0,14,15
 401 446 401 446 462 374 c 1,16,-1
 462 376 l 2,17,18
 462 497 462 497 404 560 c 1,19,-1
 151 463 l 1,20,-1
 119 542 l 1,21,-1
 306 614 l 1,22,23
 277 621 277 621 237 621 c 0,24,25
 165 621 165 621 102 600 c 1,26,-1
 83 721 l 1,27,28
 161 741 161 741 243 741 c 0,29,30
 382 741 382 741 475 678 c 1,31,-1
 565 713 l 1,32,-1
 597 634 l 1,33,-1
 544 614 l 1,0,1
406.5 140 m 128,-1,35
 442 171 442 171 442 217 c 0,36,37
 442 264 442 264 406.5 294.5 c 128,-1,38
 371 325 371 325 317 325 c 0,39,40
 259 325 259 325 225 296 c 128,-1,41
 191 267 191 267 191 217 c 0,42,43
 191 168 191 168 225 138.5 c 128,-1,44
 259 109 259 109 314 109 c 0,45,34
 371 109 371 109 406.5 140 c 128,-1,35
EndSplineSet
Substitution2: "'smcp' Lowercase to Small Capitals lookup 30 subtable" eth.sc
Substitution2: "'aalt' Access All Alternates lookup 0 subtable" eth.sc
EndChar

StartChar: dcroat
Encoding: 273 273 438
Width: 692
GlyphClass: 2
Flags: W
AnchorPoint: "Anchor-16" 702 742 basechar 0
AnchorPoint: "Anchor-15" 487 637 basechar 0
AnchorPoint: "Anchor-12" 363 0 basechar 0
LayerCount: 2
Fore
SplineSet
693 683 m 1,0,-1
 693 593 l 1,1,-1
 620 593 l 1,2,-1
 620 0 l 1,3,-1
 471 0 l 1,4,-1
 471 62 l 1,5,6
 413 -8 413 -8 303 -8 c 0,7,8
 227 -8 227 -8 165.5 26 c 128,-1,9
 104 60 104 60 69 123 c 128,-1,10
 34 186 34 186 34 269 c 256,11,12
 34 352 34 352 69 415 c 128,-1,13
 104 478 104 478 165.5 512 c 128,-1,14
 227 546 227 546 303 546 c 0,15,16
 406 546 406 546 464 481 c 1,17,-1
 464 593 l 1,18,-1
 281 593 l 1,19,-1
 281 683 l 1,20,-1
 464 683 l 1,21,-1
 464 742 l 1,22,-1
 620 742 l 1,23,-1
 620 683 l 1,24,-1
 693 683 l 1,0,-1
428 160.5 m 128,-1,26
 467 201 467 201 467 269 c 256,27,28
 467 337 467 337 428 377.5 c 128,-1,29
 389 418 389 418 330 418 c 0,30,31
 270 418 270 418 231 377.5 c 128,-1,32
 192 337 192 337 192 269 c 256,33,34
 192 201 192 201 231 160.5 c 128,-1,35
 270 120 270 120 330 120 c 0,36,25
 389 120 389 120 428 160.5 c 128,-1,26
EndSplineSet
Substitution2: "'smcp' Lowercase to Small Capitals lookup 30 subtable" dcroat.sc
Substitution2: "'aalt' Access All Alternates lookup 0 subtable" dcroat.sc
EndChar

StartChar: e
Encoding: 101 101 442
Width: 631
GlyphClass: 2
Flags: W
AnchorPoint: "Anchor-14" 316 538 basechar 0
AnchorPoint: "Anchor-13" 536 0 basechar 0
AnchorPoint: "Anchor-12" 316 0 basechar 0
LayerCount: 2
Fore
SplineSet
596 225 m 1,1,-1
 189 225 l 1,2,3
 200 175 200 175 241 146 c 128,-1,4
 282 117 282 117 343 117 c 0,5,6
 385 117 385 117 417.5 129.5 c 128,-1,7
 450 142 450 142 478 169 c 1,8,-1
 561 79 l 1,9,10
 485 -8 485 -8 339 -8 c 0,11,12
 248 -8 248 -8 178 27.5 c 128,-1,13
 108 63 108 63 70 126 c 128,-1,14
 32 189 32 189 32 269 c 0,15,16
 32 348 32 348 69.5 411.5 c 128,-1,17
 107 475 107 475 172.5 510.5 c 128,-1,18
 238 546 238 546 319 546 c 0,19,20
 398 546 398 546 462 512 c 128,-1,21
 526 478 526 478 562.5 414.5 c 128,-1,22
 599 351 599 351 599 267 c 0,23,0
 599 264 599 264 596 225 c 1,1,-1
231 398 m 128,-1,25
 195 368 195 368 187 316 c 1,26,-1
 452 316 l 1,27,28
 444 367 444 367 408 397.5 c 128,-1,29
 372 428 372 428 320 428 c 0,30,24
 267 428 267 428 231 398 c 128,-1,25
EndSplineSet
Substitution2: "'ss01' Style Set 1 lookup 35 subtable" e.ss01
Substitution2: "'salt' Stylistic Alternatives lookup 34 subtable" e.ss01
Substitution2: "'smcp' Lowercase to Small Capitals lookup 30 subtable" e.sc
AlternateSubs2: "'aalt' Access All Alternates lookup 1 subtable" e.sc e.ss01
EndChar

StartChar: uni1E1D
Encoding: 7709 7709 446
Width: 631
GlyphClass: 2
Flags: W
AnchorPoint: "Anchor-14" 316 719 basechar 0
AnchorPoint: "Anchor-13" 536 0 basechar 0
AnchorPoint: "Anchor-12" 316 0 basechar 0
LayerCount: 2
Fore
SplineSet
186 640 m 128,-1,1
 135 681 135 681 132 751 c 1,2,-1
 230 751 l 1,3,4
 231 719 231 719 255.5 699.5 c 128,-1,5
 280 680 280 680 316 680 c 256,6,7
 352 680 352 680 376.5 699.5 c 128,-1,8
 401 719 401 719 402 751 c 1,9,-1
 500 751 l 1,10,11
 497 681 497 681 446 640 c 128,-1,12
 395 599 395 599 316 599 c 256,13,0
 237 599 237 599 186 640 c 128,-1,1
596 225 m 1,15,-1
 189 225 l 1,16,17
 200 175 200 175 241 146 c 128,-1,18
 282 117 282 117 343 117 c 0,19,20
 385 117 385 117 417.5 129.5 c 128,-1,21
 450 142 450 142 478 169 c 1,22,-1
 561 79 l 1,23,24
 488 -4 488 -4 353 -8 c 1,25,-1
 343 -50 l 1,26,27
 387 -55 387 -55 408.5 -77.5 c 128,-1,28
 430 -100 430 -100 430 -133 c 0,29,30
 430 -179 430 -179 390 -205.5 c 128,-1,31
 350 -232 350 -232 283 -232 c 0,32,33
 257 -232 257 -232 232 -226.5 c 128,-1,34
 207 -221 207 -221 190 -211 c 1,35,-1
 214 -144 l 1,36,37
 246 -159 246 -159 279 -159 c 0,38,39
 331 -159 331 -159 331 -127 c 0,40,41
 331 -98 331 -98 282 -98 c 2,42,-1
 248 -98 l 1,43,-1
 271 -2 l 1,44,45
 161 16 161 16 96.5 90 c 128,-1,46
 32 164 32 164 32 269 c 0,47,48
 32 348 32 348 69.5 411.5 c 128,-1,49
 107 475 107 475 172.5 510.5 c 128,-1,50
 238 546 238 546 319 546 c 0,51,52
 398 546 398 546 462 512 c 128,-1,53
 526 478 526 478 562.5 414.5 c 128,-1,54
 599 351 599 351 599 267 c 0,55,14
 599 264 599 264 596 225 c 1,15,-1
231 398 m 128,-1,57
 195 368 195 368 187 316 c 1,58,-1
 452 316 l 1,59,60
 444 367 444 367 408 397.5 c 128,-1,61
 372 428 372 428 320 428 c 0,62,56
 267 428 267 428 231 398 c 128,-1,57
EndSplineSet
Substitution2: "'ss01' Style Set 1 lookup 35 subtable" uni1E1D.ss01
Substitution2: "'salt' Stylistic Alternatives lookup 34 subtable" uni1E1D.ss01
Substitution2: "'smcp' Lowercase to Small Capitals lookup 30 subtable" uni1E1D.sc
AlternateSubs2: "'aalt' Access All Alternates lookup 1 subtable" uni1E1D.sc uni1E1D.ss01
EndChar

StartChar: eogonek
Encoding: 281 281 463
Width: 631
GlyphClass: 2
Flags: W
AnchorPoint: "Anchor-14" 325 538 basechar 0
AnchorPoint: "Anchor-12" 325 0 basechar 0
LayerCount: 2
Fore
SplineSet
596 225 m 1,1,-1
 189 225 l 1,2,3
 200 175 200 175 241 146 c 128,-1,4
 282 117 282 117 343 117 c 0,5,6
 385 117 385 117 417.5 129.5 c 128,-1,7
 450 142 450 142 478 169 c 1,8,-1
 562 79 l 1,9,10
 542 58 542 58 521 43 c 0,11,12
 458 -3 458 -3 434 -37 c 128,-1,13
 410 -71 410 -71 410 -102 c 0,14,15
 410 -126 410 -126 425.5 -139.5 c 128,-1,16
 441 -153 441 -153 468 -153 c 0,17,18
 500 -153 500 -153 527 -138 c 1,19,-1
 550 -209 l 1,20,21
 531 -219 531 -219 503.5 -225.5 c 128,-1,22
 476 -232 476 -232 449 -232 c 0,23,24
 385 -232 385 -232 348 -200.5 c 128,-1,25
 311 -169 311 -169 311 -116 c 0,26,27
 311 -88 311 -88 323.5 -59.5 c 128,-1,28
 336 -31 336 -31 360 -7 c 1,29,30
 353 -8 353 -8 339 -8 c 0,31,32
 248 -8 248 -8 178 27.5 c 128,-1,33
 108 63 108 63 70 126 c 128,-1,34
 32 189 32 189 32 269 c 0,35,36
 32 348 32 348 69.5 411.5 c 128,-1,37
 107 475 107 475 172.5 510.5 c 128,-1,38
 238 546 238 546 319 546 c 0,39,40
 398 546 398 546 462 512 c 128,-1,41
 526 478 526 478 562.5 414.5 c 128,-1,42
 599 351 599 351 599 267 c 0,43,0
 599 264 599 264 596 225 c 1,1,-1
231 398 m 128,-1,45
 195 368 195 368 187 316 c 1,46,-1
 452 316 l 1,47,48
 444 367 444 367 408 397.5 c 128,-1,49
 372 428 372 428 320 428 c 0,50,44
 267 428 267 428 231 398 c 128,-1,45
EndSplineSet
Substitution2: "'ss01' Style Set 1 lookup 35 subtable" eogonek.ss01
Substitution2: "'salt' Stylistic Alternatives lookup 34 subtable" eogonek.ss01
Substitution2: "'smcp' Lowercase to Small Capitals lookup 30 subtable" eogonek.sc
AlternateSubs2: "'aalt' Access All Alternates lookup 1 subtable" eogonek.sc eogonek.ss01
EndChar

StartChar: uni0259
Encoding: 601 601 465
Width: 631
GlyphClass: 2
Flags: W
AnchorPoint: "Anchor-14" 315 538 basechar 0
AnchorPoint: "Anchor-13" 96 538 basechar 0
AnchorPoint: "Anchor-12" 315 0 basechar 0
LayerCount: 2
Fore
SplineSet
453.5 510.5 m 128,-1,1
 523 475 523 475 561 412 c 128,-1,2
 599 349 599 349 599 269 c 0,3,4
 599 190 599 190 562 126.5 c 128,-1,5
 525 63 525 63 459.5 27.5 c 128,-1,6
 394 -8 394 -8 312 -8 c 0,7,8
 233 -8 233 -8 169 26 c 128,-1,9
 105 60 105 60 68.5 123.5 c 128,-1,10
 32 187 32 187 32 271 c 0,11,12
 32 274 32 274 35 313 c 1,13,-1
 442 313 l 1,14,15
 431 363 431 363 390 392 c 128,-1,16
 349 421 349 421 288 421 c 0,17,18
 246 421 246 421 213.5 408.5 c 128,-1,19
 181 396 181 396 153 369 c 1,20,-1
 70 459 l 1,21,22
 146 546 146 546 293 546 c 0,23,0
 384 546 384 546 453.5 510.5 c 128,-1,1
400.5 140 m 128,-1,25
 436 170 436 170 444 222 c 1,26,-1
 180 222 l 1,27,28
 188 171 188 171 223.5 140.5 c 128,-1,29
 259 110 259 110 312 110 c 256,30,24
 365 110 365 110 400.5 140 c 128,-1,25
EndSplineSet
Substitution2: "'ss01' Style Set 1 lookup 35 subtable" uni0259.ss01
Substitution2: "'salt' Stylistic Alternatives lookup 34 subtable" uni0259.ss01
Substitution2: "'smcp' Lowercase to Small Capitals lookup 30 subtable" uni0259.sc
AlternateSubs2: "'aalt' Access All Alternates lookup 1 subtable" uni0259.sc uni0259.ss01
EndChar

StartChar: f
Encoding: 102 102 468
Width: 387
GlyphClass: 1
Flags: W
LayerCount: 2
Fore
SplineSet
243 526 m 1,0,-1
 381 526 l 1,1,-1
 381 406 l 1,2,-1
 247 406 l 1,3,-1
 247 0 l 1,4,-1
 91 0 l 1,5,-1
 91 406 l 1,6,-1
 8 406 l 1,7,-1
 8 526 l 1,8,-1
 91 526 l 1,9,-1
 91 550 l 2,10,11
 91 642 91 642 145.5 696 c 128,-1,12
 200 750 200 750 299 750 c 0,13,14
 334 750 334 750 365.5 742.5 c 128,-1,15
 397 735 397 735 418 721 c 1,16,-1
 377 608 l 1,17,18
 350 627 350 627 314 627 c 0,19,20
 243 627 243 627 243 549 c 2,21,-1
 243 526 l 1,0,-1
EndSplineSet
Substitution2: "'ss01' Style Set 1 lookup 35 subtable" f.ss01
Substitution2: "'salt' Stylistic Alternatives lookup 34 subtable" f.ss01
Substitution2: "'smcp' Lowercase to Small Capitals lookup 30 subtable" f.sc
AlternateSubs2: "'aalt' Access All Alternates lookup 1 subtable" f.sc f.ss01
EndChar

StartChar: g
Encoding: 103 103 469
Width: 700
GlyphClass: 2
Flags: W
AnchorPoint: "Anchor-14" 341 538 basechar 0
LayerCount: 2
Fore
SplineSet
479 538 m 1,0,-1
 627 538 l 1,1,-1
 627 90 l 2,2,3
 627 -58 627 -58 550 -130 c 128,-1,4
 473 -202 473 -202 325 -202 c 0,5,6
 247 -202 247 -202 177 -183 c 128,-1,7
 107 -164 107 -164 61 -128 c 1,8,-1
 123 -16 l 1,9,10
 157 -44 157 -44 209 -60.5 c 128,-1,11
 261 -77 261 -77 313 -77 c 0,12,13
 394 -77 394 -77 432.5 -40.5 c 128,-1,14
 471 -4 471 -4 471 70 c 2,15,-1
 471 93 l 1,16,17
 410 26 410 26 301 26 c 0,18,19
 227 26 227 26 165.5 58.5 c 128,-1,20
 104 91 104 91 68 150 c 128,-1,21
 32 209 32 209 32 286 c 256,22,23
 32 363 32 363 68 422 c 128,-1,24
 104 481 104 481 165.5 513.5 c 128,-1,25
 227 546 227 546 301 546 c 0,26,27
 418 546 418 546 479 469 c 1,28,-1
 479 538 l 1,0,-1
433.5 190.5 m 128,-1,30
 473 227 473 227 473 286 c 256,31,32
 473 345 473 345 433.5 381.5 c 128,-1,33
 394 418 394 418 332 418 c 256,34,35
 270 418 270 418 230 381.5 c 128,-1,36
 190 345 190 345 190 286 c 256,37,38
 190 227 190 227 230 190.5 c 128,-1,39
 270 154 270 154 332 154 c 256,40,29
 394 154 394 154 433.5 190.5 c 128,-1,30
EndSplineSet
Substitution2: "'smcp' Lowercase to Small Capitals lookup 30 subtable" g.sc
Substitution2: "'aalt' Access All Alternates lookup 0 subtable" g.sc
EndChar

StartChar: uni01E5
Encoding: 485 485 476
Width: 711
GlyphClass: 1
Flags: W
LayerCount: 2
Fore
SplineSet
691 39 m 1,0,-1
 691 -38 l 1,1,-1
 608 -38 l 1,2,3
 550 -202 550 -202 323 -202 c 0,4,5
 246 -202 246 -202 176.5 -182.5 c 128,-1,6
 107 -163 107 -163 61 -128 c 1,7,-1
 123 -20 l 1,8,9
 157 -48 157 -48 209 -64.5 c 128,-1,10
 261 -81 261 -81 314 -81 c 0,11,12
 400 -81 400 -81 439 -38 c 1,13,-1
 273 -38 l 1,14,-1
 273 38 l 1,15,-1
 470 38 l 1,16,17
 471 47 471 47 471 66 c 2,18,-1
 471 130 l 1,19,20
 409 65 409 65 297 65 c 0,21,22
 220 65 220 65 160 95.5 c 128,-1,23
 100 126 100 126 66 181 c 128,-1,24
 32 236 32 236 32 306 c 256,25,26
 32 376 32 376 66 430 c 128,-1,27
 100 484 100 484 160 514.5 c 128,-1,28
 220 545 220 545 297 545 c 0,29,30
 354 545 354 545 401 526.5 c 128,-1,31
 448 508 448 508 479 471 c 1,32,-1
 479 538 l 1,33,-1
 627 538 l 1,34,-1
 627 90 l 2,35,36
 627 63 627 63 624 39 c 1,37,-1
 691 39 l 1,0,-1
434 215 m 128,-1,39
 473 249 473 249 473 306 c 0,40,41
 473 362 473 362 434 396 c 128,-1,42
 395 430 395 430 332 430 c 256,43,44
 269 430 269 430 229.5 396 c 128,-1,45
 190 362 190 362 190 306 c 0,46,47
 190 249 190 249 229.5 215 c 128,-1,48
 269 181 269 181 332 181 c 256,49,38
 395 181 395 181 434 215 c 128,-1,39
EndSplineSet
Substitution2: "'smcp' Lowercase to Small Capitals lookup 30 subtable" uni01E5.sc
Substitution2: "'aalt' Access All Alternates lookup 0 subtable" uni01E5.sc
EndChar

StartChar: h
Encoding: 104 104 477
Width: 691
GlyphClass: 2
Flags: W
AnchorPoint: "Anchor-16" 282 538 basechar 0
AnchorPoint: "Anchor-15" 206 637 basechar 0
AnchorPoint: "Anchor-14" 150 742 basechar 0
AnchorPoint: "Anchor-12" 348 0 basechar 0
LayerCount: 2
Fore
SplineSet
560.5 486 m 128,-1,1
 622 426 622 426 622 308 c 2,2,-1
 622 0 l 1,3,-1
 466 0 l 1,4,-1
 466 284 l 2,5,6
 466 348 466 348 438 379.5 c 128,-1,7
 410 411 410 411 357 411 c 0,8,9
 298 411 298 411 263 374.5 c 128,-1,10
 228 338 228 338 228 266 c 2,11,-1
 228 0 l 1,12,-1
 72 0 l 1,13,-1
 72 742 l 1,14,-1
 228 742 l 1,15,-1
 228 482 l 1,16,17
 259 513 259 513 303 529.5 c 128,-1,18
 347 546 347 546 399 546 c 0,19,0
 499 546 499 546 560.5 486 c 128,-1,1
EndSplineSet
Substitution2: "'smcp' Lowercase to Small Capitals lookup 30 subtable" h.sc
Substitution2: "'aalt' Access All Alternates lookup 0 subtable" h.sc
EndChar

StartChar: hbar
Encoding: 295 295 478
Width: 691
GlyphClass: 2
Flags: W
AnchorPoint: "Anchor-16" 282 538 basechar 0
AnchorPoint: "Anchor-15" 206 637 basechar 0
AnchorPoint: "Anchor-14" 150 742 basechar 0
AnchorPoint: "Anchor-12" 348 0 basechar 0
LayerCount: 2
Fore
SplineSet
560.5 486 m 128,-1,1
 622 426 622 426 622 308 c 2,2,-1
 622 0 l 1,3,-1
 466 0 l 1,4,-1
 466 284 l 2,5,6
 466 348 466 348 438 379.5 c 128,-1,7
 410 411 410 411 357 411 c 0,8,9
 298 411 298 411 263 374.5 c 128,-1,10
 228 338 228 338 228 266 c 2,11,-1
 228 0 l 1,12,-1
 72 0 l 1,13,-1
 72 593 l 1,14,-1
 0 593 l 1,15,-1
 0 683 l 1,16,-1
 72 683 l 1,17,-1
 72 742 l 1,18,-1
 228 742 l 1,19,-1
 228 683 l 1,20,-1
 412 683 l 1,21,-1
 412 593 l 1,22,-1
 228 593 l 1,23,-1
 228 482 l 1,24,25
 259 513 259 513 303 529.5 c 128,-1,26
 347 546 347 546 399 546 c 0,27,0
 499 546 499 546 560.5 486 c 128,-1,1
EndSplineSet
Substitution2: "'smcp' Lowercase to Small Capitals lookup 30 subtable" hbar.sc
Substitution2: "'aalt' Access All Alternates lookup 0 subtable" hbar.sc
EndChar

StartChar: dotlessi
Encoding: 305 305 484
Width: 301
GlyphClass: 2
Flags: W
AnchorPoint: "Anchor-14" 150 538 basechar 0
AnchorPoint: "Anchor-13" 228 0 basechar 0
AnchorPoint: "Anchor-12" 150 0 basechar 0
LayerCount: 2
Fore
SplineSet
228 0 m 1,0,-1
 72 0 l 1,1,-1
 72 538 l 1,2,-1
 228 538 l 1,3,-1
 228 0 l 1,0,-1
EndSplineSet
Substitution2: "'smcp' Lowercase to Small Capitals lookup 30 subtable" dotlessi.sc
Substitution2: "'aalt' Access All Alternates lookup 0 subtable" dotlessi.sc
EndChar

StartChar: iogonek
Encoding: 303 303 498
Width: 301
GlyphClass: 2
Flags: W
AnchorPoint: "Anchor-14" 150 750 basechar 0
AnchorPoint: "Anchor-13" 228 0 basechar 0
AnchorPoint: "Anchor-12" 150 0 basechar 0
LayerCount: 2
Fore
SplineSet
80 638 m 128,-1,1
 53 663 53 663 53 700 c 256,2,3
 53 737 53 737 80 762 c 128,-1,4
 107 787 107 787 150 787 c 256,5,6
 193 787 193 787 220 763 c 128,-1,7
 247 739 247 739 247 703 c 0,8,9
 247 664 247 664 220 638.5 c 128,-1,10
 193 613 193 613 150 613 c 256,11,0
 107 613 107 613 80 638 c 128,-1,1
260 -211 m 1,12,13
 231 -232 231 -232 186 -232 c 0,14,15
 132 -232 132 -232 99 -201.5 c 128,-1,16
 66 -171 66 -171 66 -121 c 0,17,18
 66 -54 66 -54 124 0 c 1,19,-1
 72 0 l 1,20,-1
 72 538 l 1,21,-1
 228 538 l 1,22,-1
 228 1 l 1,23,-1
 229 0 l 1,24,25
 193 -29 193 -29 178.5 -54.5 c 128,-1,26
 164 -80 164 -80 164 -106 c 0,27,28
 164 -127 164 -127 176 -140 c 128,-1,29
 188 -153 188 -153 206 -153 c 256,30,31
 224 -153 224 -153 238 -143 c 1,32,-1
 260 -211 l 1,12,13
EndSplineSet
Substitution2: "'smcp' Lowercase to Small Capitals lookup 30 subtable" iogonek.sc
Substitution2: "'aalt' Access All Alternates lookup 0 subtable" iogonek.sc
EndChar

StartChar: uni0237
Encoding: 567 567 501
Width: 307
GlyphClass: 2
Flags: W
AnchorPoint: "Anchor-14" 157 538 basechar 0
LayerCount: 2
Fore
SplineSet
-93 -172 m 1,1,-1
 -51 -59 l 1,2,3
 -24 -78 -24 -78 15 -78 c 0,4,5
 45 -78 45 -78 62 -58.5 c 128,-1,6
 79 -39 79 -39 79 0 c 2,7,-1
 79 538 l 1,8,-1
 235 538 l 1,9,-1
 235 1 l 2,10,11
 235 -93 235 -93 181.5 -147.5 c 128,-1,12
 128 -202 128 -202 32 -202 c 0,13,0
 -50 -202 -50 -202 -93 -172 c 1,1,-1
EndSplineSet
Substitution2: "'smcp' Lowercase to Small Capitals lookup 30 subtable" j.sc
Substitution2: "'aalt' Access All Alternates lookup 0 subtable" j.sc
EndChar

StartChar: k
Encoding: 107 107 504
Width: 660
GlyphClass: 2
Flags: W
AnchorPoint: "Anchor-16" 277 538 basechar 0
AnchorPoint: "Anchor-14" 150 742 basechar 0
AnchorPoint: "Anchor-12" 318 0 basechar 0
LayerCount: 2
Fore
SplineSet
662 0 m 1,0,-1
 473 0 l 1,1,-1
 303 211 l 1,2,-1
 228 137 l 1,3,-1
 228 0 l 1,4,-1
 72 0 l 1,5,-1
 72 742 l 1,6,-1
 228 742 l 1,7,-1
 228 322 l 1,8,-1
 456 538 l 1,9,-1
 642 538 l 1,10,-1
 418 310 l 1,11,-1
 662 0 l 1,0,-1
EndSplineSet
Substitution2: "'smcp' Lowercase to Small Capitals lookup 30 subtable" k.sc
Substitution2: "'aalt' Access All Alternates lookup 0 subtable" k.sc
EndChar

StartChar: kgreenlandic
Encoding: 312 312 507
Width: 660
GlyphClass: 2
Flags: W
AnchorPoint: "Anchor-14" 304 538 basechar 0
AnchorPoint: "Anchor-12" 304 0 basechar 0
LayerCount: 2
Fore
SplineSet
662 0 m 1,0,-1
 473 0 l 1,1,-1
 303 211 l 1,2,-1
 228 137 l 1,3,-1
 228 0 l 1,4,-1
 72 0 l 1,5,-1
 72 538 l 1,6,-1
 228 538 l 1,7,-1
 228 322 l 1,8,-1
 456 538 l 1,9,-1
 642 538 l 1,10,-1
 418 310 l 1,11,-1
 662 0 l 1,0,-1
EndSplineSet
Substitution2: "'smcp' Lowercase to Small Capitals lookup 30 subtable" kgreenlandic.sc
Substitution2: "'aalt' Access All Alternates lookup 0 subtable" kgreenlandic.sc
EndChar

StartChar: l
Encoding: 108 108 508
Width: 301
GlyphClass: 2
Flags: W
AnchorPoint: "Anchor-16" 308 742 basechar 0
AnchorPoint: "Anchor-15" 150 364 basechar 0
AnchorPoint: "Anchor-14" 150 742 basechar 0
AnchorPoint: "Anchor-12" 150 0 basechar 0
LayerCount: 2
Fore
SplineSet
228 0 m 1,0,-1
 72 0 l 1,1,-1
 72 742 l 1,2,-1
 228 742 l 1,3,-1
 228 0 l 1,0,-1
EndSplineSet
Substitution2: "'ss01' Style Set 1 lookup 35 subtable" l.ss01
Substitution2: "'salt' Stylistic Alternatives lookup 34 subtable" l.ss01
Substitution2: "'smcp' Lowercase to Small Capitals lookup 30 subtable" l.sc
AlternateSubs2: "'aalt' Access All Alternates lookup 1 subtable" l.sc l.ss01
EndChar

StartChar: lslash
Encoding: 322 322 516
Width: 327
GlyphClass: 2
Flags: W
AnchorPoint: "Anchor-16" 321 742 basechar 0
AnchorPoint: "Anchor-15" 163 364 basechar 0
AnchorPoint: "Anchor-14" 163 742 basechar 0
AnchorPoint: "Anchor-12" 163 0 basechar 0
LayerCount: 2
Fore
SplineSet
296 525 m 1,0,-1
 353 445 l 1,1,-1
 241 361 l 1,2,-1
 241 0 l 1,3,-1
 85 0 l 1,4,-1
 85 244 l 1,5,-1
 30 203 l 1,6,-1
 -28 281 l 1,7,-1
 85 366 l 1,8,-1
 85 742 l 1,9,-1
 241 742 l 1,10,-1
 241 484 l 1,11,-1
 296 525 l 1,0,-1
EndSplineSet
Substitution2: "'ss01' Style Set 1 lookup 35 subtable" lslash.ss01
Substitution2: "'salt' Stylistic Alternatives lookup 34 subtable" lslash.ss01
Substitution2: "'smcp' Lowercase to Small Capitals lookup 30 subtable" lslash.sc
AlternateSubs2: "'aalt' Access All Alternates lookup 1 subtable" lslash.sc lslash.ss01
EndChar

StartChar: m
Encoding: 109 109 517
Width: 1049
GlyphClass: 2
Flags: W
AnchorPoint: "Anchor-12" 525 0 basechar 0
LayerCount: 2
Fore
SplineSet
921.5 486.5 m 128,-1,1
 981 427 981 427 981 308 c 2,2,-1
 981 0 l 1,3,-1
 825 0 l 1,4,-1
 825 284 l 2,5,6
 825 348 825 348 798.5 379.5 c 128,-1,7
 772 411 772 411 723 411 c 0,8,9
 668 411 668 411 636 375.5 c 128,-1,10
 604 340 604 340 604 270 c 2,11,-1
 604 0 l 1,12,-1
 448 0 l 1,13,-1
 448 284 l 2,14,15
 448 411 448 411 346 411 c 0,16,17
 292 411 292 411 260 375.5 c 128,-1,18
 228 340 228 340 228 270 c 2,19,-1
 228 0 l 1,20,-1
 72 0 l 1,21,-1
 72 538 l 1,22,-1
 221 538 l 1,23,-1
 221 476 l 1,24,25
 251 510 251 510 294.5 528 c 128,-1,26
 338 546 338 546 390 546 c 0,27,28
 447 546 447 546 493 523.5 c 128,-1,29
 539 501 539 501 567 458 c 1,30,31
 600 500 600 500 650.5 523 c 128,-1,32
 701 546 701 546 761 546 c 0,33,0
 862 546 862 546 921.5 486.5 c 128,-1,1
EndSplineSet
Substitution2: "'smcp' Lowercase to Small Capitals lookup 30 subtable" m.sc
Substitution2: "'aalt' Access All Alternates lookup 0 subtable" m.sc
EndChar

StartChar: n
Encoding: 110 110 519
Width: 691
GlyphClass: 2
Flags: W
AnchorPoint: "Anchor-14" 348 538 basechar 0
AnchorPoint: "Anchor-12" 348 0 basechar 0
LayerCount: 2
Fore
SplineSet
560.5 486 m 128,-1,1
 622 426 622 426 622 308 c 2,2,-1
 622 0 l 1,3,-1
 466 0 l 1,4,-1
 466 284 l 2,5,6
 466 348 466 348 438 379.5 c 128,-1,7
 410 411 410 411 357 411 c 0,8,9
 298 411 298 411 263 374.5 c 128,-1,10
 228 338 228 338 228 266 c 2,11,-1
 228 0 l 1,12,-1
 72 0 l 1,13,-1
 72 538 l 1,14,-1
 221 538 l 1,15,-1
 221 475 l 1,16,17
 252 509 252 509 298 527.5 c 128,-1,18
 344 546 344 546 399 546 c 0,19,0
 499 546 499 546 560.5 486 c 128,-1,1
EndSplineSet
Substitution2: "'smcp' Lowercase to Small Capitals lookup 30 subtable" n.sc
Substitution2: "'aalt' Access All Alternates lookup 0 subtable" n.sc
EndChar

StartChar: eng
Encoding: 331 331 526
Width: 691
GlyphClass: 1
Flags: W
LayerCount: 2
Fore
SplineSet
560.5 486 m 128,-1,1
 622 426 622 426 622 308 c 2,2,-1
 622 1 l 2,3,4
 622 -93 622 -93 569 -147.5 c 128,-1,5
 516 -202 516 -202 420 -202 c 0,6,7
 338 -202 338 -202 294 -172 c 1,8,-1
 336 -59 l 1,9,10
 363 -78 363 -78 402 -78 c 0,11,12
 433 -78 433 -78 449.5 -58.5 c 128,-1,13
 466 -39 466 -39 466 0 c 2,14,-1
 466 284 l 2,15,16
 466 348 466 348 438 379.5 c 128,-1,17
 410 411 410 411 357 411 c 0,18,19
 298 411 298 411 263 374.5 c 128,-1,20
 228 338 228 338 228 266 c 2,21,-1
 228 0 l 1,22,-1
 72 0 l 1,23,-1
 72 538 l 1,24,-1
 221 538 l 1,25,-1
 221 475 l 1,26,27
 252 509 252 509 298 527.5 c 128,-1,28
 344 546 344 546 399 546 c 0,29,0
 499 546 499 546 560.5 486 c 128,-1,1
EndSplineSet
Substitution2: "'smcp' Lowercase to Small Capitals lookup 30 subtable" eng.sc
Substitution2: "'aalt' Access All Alternates lookup 0 subtable" eng.sc
EndChar

StartChar: o
Encoding: 111 111 530
Width: 655
GlyphClass: 2
Flags: W
AnchorPoint: "Anchor-16" 444 538 basechar 0
AnchorPoint: "Anchor-15" 326 269 basechar 0
AnchorPoint: "Anchor-14" 326 538 basechar 0
AnchorPoint: "Anchor-13" 436 0 basechar 0
AnchorPoint: "Anchor-12" 326 0 basechar 0
LayerCount: 2
Fore
SplineSet
175.5 27.5 m 128,-1,1
 108 63 108 63 70 126 c 128,-1,2
 32 189 32 189 32 269 c 256,3,4
 32 349 32 349 70 412 c 128,-1,5
 108 475 108 475 175.5 510.5 c 128,-1,6
 243 546 243 546 328 546 c 256,7,8
 413 546 413 546 480 510.5 c 128,-1,9
 547 475 547 475 585 412 c 128,-1,10
 623 349 623 349 623 269 c 256,11,12
 623 189 623 189 585 126 c 128,-1,13
 547 63 547 63 480 27.5 c 128,-1,14
 413 -8 413 -8 328 -8 c 256,15,0
 243 -8 243 -8 175.5 27.5 c 128,-1,1
426.5 160.5 m 128,-1,17
 465 201 465 201 465 269 c 256,18,19
 465 337 465 337 426.5 377.5 c 128,-1,20
 388 418 388 418 328 418 c 256,21,22
 268 418 268 418 229 377.5 c 128,-1,23
 190 337 190 337 190 269 c 256,24,25
 190 201 190 201 229 160.5 c 128,-1,26
 268 120 268 120 328 120 c 256,27,16
 388 120 388 120 426.5 160.5 c 128,-1,17
EndSplineSet
Substitution2: "Single Substitution lookup 40 subtable" ordmasculine
Substitution2: "'smcp' Lowercase to Small Capitals lookup 30 subtable" o.sc
AlternateSubs2: "'aalt' Access All Alternates lookup 1 subtable" ordmasculine o.sc
EndChar

StartChar: ohorn
Encoding: 417 417 546
Width: 655
GlyphClass: 2
Flags: W
AnchorPoint: "Anchor-14" 328 538 basechar 0
AnchorPoint: "Anchor-12" 328 0 basechar 0
LayerCount: 2
Fore
SplineSet
601.5 379.5 m 128,-1,1
 623 329 623 329 623 269 c 0,2,3
 623 189 623 189 585 126 c 128,-1,4
 547 63 547 63 480 27.5 c 128,-1,5
 413 -8 413 -8 328 -8 c 256,6,7
 243 -8 243 -8 175.5 27.5 c 128,-1,8
 108 63 108 63 70 126 c 128,-1,9
 32 189 32 189 32 269 c 256,10,11
 32 349 32 349 70.5 412 c 128,-1,12
 109 475 109 475 176.5 510.5 c 128,-1,13
 244 546 244 546 329 546 c 0,14,15
 349 546 349 546 399 541 c 0,16,17
 433 537 433 537 448 537 c 0,18,19
 479 537 479 537 495.5 555 c 128,-1,20
 512 573 512 573 512 602 c 0,21,22
 512 634 512 634 491 662 c 1,23,-1
 582 696 l 1,24,25
 616 650 616 650 616 596 c 0,26,27
 616 553 616 553 596 519.5 c 128,-1,28
 576 486 576 486 540 467 c 1,29,0
 580 430 580 430 601.5 379.5 c 128,-1,1
426 160.5 m 128,-1,31
 465 201 465 201 465 269 c 256,32,33
 465 337 465 337 426.5 377.5 c 128,-1,34
 388 418 388 418 328 418 c 256,35,36
 268 418 268 418 229 377.5 c 128,-1,37
 190 337 190 337 190 269 c 256,38,39
 190 201 190 201 229 160.5 c 128,-1,40
 268 120 268 120 328 120 c 0,41,30
 387 120 387 120 426 160.5 c 128,-1,31
EndSplineSet
Substitution2: "'smcp' Lowercase to Small Capitals lookup 30 subtable" ohorn.sc
Substitution2: "'aalt' Access All Alternates lookup 0 subtable" ohorn.sc
EndChar

StartChar: uni1EE1
Encoding: 7905 7905 551
Width: 655
GlyphClass: 2
Flags: W
AnchorPoint: "Anchor-14" 319 719 basechar 0
AnchorPoint: "Anchor-12" 328 0 basechar 0
LayerCount: 2
Fore
SplineSet
233.5 652.5 m 128,-1,1
 222 638 222 638 221 611 c 1,2,-1
 152 611 l 1,3,4
 154 678 154 678 181 717.5 c 128,-1,5
 208 757 208 757 254 757 c 0,6,7
 276 757 276 757 293.5 746.5 c 128,-1,8
 311 736 311 736 334 717 c 0,9,10
 348 705 348 705 357 699 c 128,-1,11
 366 693 366 693 375 693 c 0,12,13
 393 693 393 693 404 707.5 c 128,-1,14
 415 722 415 722 417 747 c 1,15,-1
 485 747 l 1,16,17
 484 682 484 682 457 643 c 128,-1,18
 430 604 430 604 384 604 c 0,19,20
 361 604 361 604 342.5 614.5 c 128,-1,21
 324 625 324 625 304 643 c 0,22,23
 290 655 290 655 281 661 c 128,-1,24
 272 667 272 667 263 667 c 0,25,0
 245 667 245 667 233.5 652.5 c 128,-1,1
601.5 379.5 m 128,-1,27
 623 329 623 329 623 269 c 0,28,29
 623 189 623 189 585 126 c 128,-1,30
 547 63 547 63 480 27.5 c 128,-1,31
 413 -8 413 -8 328 -8 c 256,32,33
 243 -8 243 -8 175.5 27.5 c 128,-1,34
 108 63 108 63 70 126 c 128,-1,35
 32 189 32 189 32 269 c 256,36,37
 32 349 32 349 70.5 412 c 128,-1,38
 109 475 109 475 176.5 510.5 c 128,-1,39
 244 546 244 546 329 546 c 0,40,41
 349 546 349 546 399 541 c 0,42,43
 433 537 433 537 448 537 c 0,44,45
 479 537 479 537 495.5 555 c 128,-1,46
 512 573 512 573 512 602 c 0,47,48
 512 634 512 634 491 662 c 1,49,-1
 582 696 l 1,50,51
 616 650 616 650 616 596 c 0,52,53
 616 553 616 553 596 519.5 c 128,-1,54
 576 486 576 486 540 467 c 1,55,26
 580 430 580 430 601.5 379.5 c 128,-1,27
426 160.5 m 128,-1,57
 465 201 465 201 465 269 c 256,58,59
 465 337 465 337 426.5 377.5 c 128,-1,60
 388 418 388 418 328 418 c 256,61,62
 268 418 268 418 229 377.5 c 128,-1,63
 190 337 190 337 190 269 c 256,64,65
 190 201 190 201 229 160.5 c 128,-1,66
 268 120 268 120 328 120 c 0,67,56
 387 120 387 120 426 160.5 c 128,-1,57
EndSplineSet
Substitution2: "'smcp' Lowercase to Small Capitals lookup 30 subtable" uni1EE1.sc
Substitution2: "'aalt' Access All Alternates lookup 0 subtable" uni1EE1.sc
EndChar

StartChar: uni01EB
Encoding: 491 491 557
Width: 655
GlyphClass: 2
Flags: W
AnchorPoint: "Anchor-16" 443 538 basechar 0
AnchorPoint: "Anchor-15" 326 269 basechar 0
AnchorPoint: "Anchor-14" 326 538 basechar 0
AnchorPoint: "Anchor-12" 326 0 basechar 0
LayerCount: 2
Fore
SplineSet
346.5 -45.5 m 128,-1,1
 318 -75 318 -75 318 -106 c 0,2,3
 318 -127 318 -127 333.5 -140 c 128,-1,4
 349 -153 349 -153 376 -153 c 0,5,6
 409 -153 409 -153 436 -138 c 1,7,-1
 459 -209 l 1,8,9
 440 -219 440 -219 412.5 -225.5 c 128,-1,10
 385 -232 385 -232 358 -232 c 0,11,12
 293 -232 293 -232 256.5 -201.5 c 128,-1,13
 220 -171 220 -171 220 -121 c 0,14,15
 220 -53 220 -53 284 -5 c 1,16,17
 210 4 210 4 153 41 c 128,-1,18
 96 78 96 78 64 137 c 128,-1,19
 32 196 32 196 32 269 c 0,20,21
 32 349 32 349 70 412 c 128,-1,22
 108 475 108 475 175.5 510.5 c 128,-1,23
 243 546 243 546 328 546 c 256,24,25
 413 546 413 546 480 510.5 c 128,-1,26
 547 475 547 475 585 412 c 128,-1,27
 623 349 623 349 623 269 c 0,28,29
 623 181 623 181 576 114 c 128,-1,30
 529 47 529 47 448 13 c 0,31,0
 375 -16 375 -16 346.5 -45.5 c 128,-1,1
229 160.5 m 128,-1,33
 268 120 268 120 328 120 c 256,34,35
 388 120 388 120 426.5 160.5 c 128,-1,36
 465 201 465 201 465 269 c 256,37,38
 465 337 465 337 426.5 377.5 c 128,-1,39
 388 418 388 418 328 418 c 256,40,41
 268 418 268 418 229 377.5 c 128,-1,42
 190 337 190 337 190 269 c 256,43,32
 190 201 190 201 229 160.5 c 128,-1,33
EndSplineSet
Substitution2: "'smcp' Lowercase to Small Capitals lookup 30 subtable" uni01EB.sc
Substitution2: "'aalt' Access All Alternates lookup 0 subtable" uni01EB.sc
EndChar

StartChar: oslash
Encoding: 248 248 558
Width: 655
GlyphClass: 2
Flags: W
AnchorPoint: "Anchor-16" 444 538 basechar 0
AnchorPoint: "Anchor-15" 326 269 basechar 0
AnchorPoint: "Anchor-14" 323 538 basechar 0
AnchorPoint: "Anchor-13" 436 0 basechar 0
AnchorPoint: "Anchor-12" 326 0 basechar 0
LayerCount: 2
Fore
SplineSet
511 491 m 1,0,1
 564 454 564 454 593.5 396.5 c 128,-1,2
 623 339 623 339 623 269 c 0,3,4
 623 189 623 189 585 126 c 128,-1,5
 547 63 547 63 480 27.5 c 128,-1,6
 413 -8 413 -8 328 -8 c 0,7,8
 258 -8 258 -8 201 16 c 1,9,-1
 144 -71 l 1,10,-1
 67 -71 l 1,11,-1
 144 47 l 1,12,13
 91 84 91 84 61.5 142 c 128,-1,14
 32 200 32 200 32 269 c 0,15,16
 32 349 32 349 70 412 c 128,-1,17
 108 475 108 475 175.5 510.5 c 128,-1,18
 243 546 243 546 328 546 c 0,19,20
 396 546 396 546 454 523 c 1,21,-1
 507 604 l 1,22,-1
 585 604 l 1,23,-1
 511 491 l 1,0,1
223 168 m 1,25,-1
 380 409 l 1,26,27
 356 418 356 418 328 418 c 0,28,29
 268 418 268 418 229 377.5 c 128,-1,30
 190 337 190 337 190 269 c 0,31,24
 190 207 190 207 223 168 c 1,25,-1
426.5 160.5 m 128,-1,33
 465 201 465 201 465 269 c 0,34,35
 465 329 465 329 433 371 c 1,36,-1
 275 130 l 1,37,38
 298 120 298 120 328 120 c 0,39,32
 388 120 388 120 426.5 160.5 c 128,-1,33
EndSplineSet
Substitution2: "'smcp' Lowercase to Small Capitals lookup 30 subtable" oslash.sc
Substitution2: "'aalt' Access All Alternates lookup 0 subtable" oslash.sc
EndChar

StartChar: oe
Encoding: 339 339 564
Width: 1064
GlyphClass: 2
Flags: W
AnchorPoint: "Anchor-14" 542 538 basechar 0
AnchorPoint: "Anchor-12" 542 0 basechar 0
LayerCount: 2
Fore
SplineSet
1029 225 m 1,1,-1
 621 225 l 1,2,3
 632 174 632 174 673 145.5 c 128,-1,4
 714 117 714 117 776 117 c 0,5,6
 816 117 816 117 848.5 130 c 128,-1,7
 881 143 881 143 910 169 c 1,8,-1
 994 79 l 1,9,10
 956 36 956 36 899 14 c 128,-1,11
 842 -8 842 -8 771 -8 c 0,12,13
 697 -8 697 -8 638.5 16.5 c 128,-1,14
 580 41 580 41 542 85 c 1,15,16
 504 41 504 41 449 16.5 c 128,-1,17
 394 -8 394 -8 326 -8 c 0,18,19
 242 -8 242 -8 175 27.5 c 128,-1,20
 108 63 108 63 70 126 c 128,-1,21
 32 189 32 189 32 269 c 256,22,23
 32 349 32 349 70 412 c 128,-1,24
 108 475 108 475 175 510.5 c 128,-1,25
 242 546 242 546 326 546 c 0,26,27
 394 546 394 546 449.5 522 c 128,-1,28
 505 498 505 498 541 454 c 1,29,30
 577 498 577 498 631.5 522 c 128,-1,31
 686 546 686 546 752 546 c 0,32,33
 831 546 831 546 894.5 512 c 128,-1,34
 958 478 958 478 995 415 c 128,-1,35
 1032 352 1032 352 1032 268 c 0,36,0
 1032 245 1032 245 1029 225 c 1,1,-1
663 398 m 128,-1,38
 627 368 627 368 619 316 c 1,39,-1
 883 316 l 1,40,41
 875 367 875 367 840 397.5 c 128,-1,42
 805 428 805 428 752 428 c 256,43,37
 699 428 699 428 663 398 c 128,-1,38
426.5 160.5 m 128,-1,45
 465 201 465 201 465 269 c 256,46,47
 465 337 465 337 426.5 377.5 c 128,-1,48
 388 418 388 418 328 418 c 256,49,50
 268 418 268 418 229 377.5 c 128,-1,51
 190 337 190 337 190 269 c 256,52,53
 190 201 190 201 229 160.5 c 128,-1,54
 268 120 268 120 328 120 c 256,55,44
 388 120 388 120 426.5 160.5 c 128,-1,45
EndSplineSet
Substitution2: "'ss01' Style Set 1 lookup 35 subtable" oe.ss01
Substitution2: "'salt' Stylistic Alternatives lookup 34 subtable" oe.ss01
Substitution2: "'smcp' Lowercase to Small Capitals lookup 30 subtable" oe.sc
AlternateSubs2: "'aalt' Access All Alternates lookup 1 subtable" oe.sc oe.ss01
EndChar

StartChar: p
Encoding: 112 112 565
Width: 690
GlyphClass: 2
Flags: W
AnchorPoint: "Anchor-14" 363 538 basechar 0
AnchorPoint: "Anchor-12" 398 0 basechar 0
LayerCount: 2
Fore
SplineSet
526.5 511.5 m 128,-1,1
 588 477 588 477 623 414.5 c 128,-1,2
 658 352 658 352 658 269 c 256,3,4
 658 186 658 186 623 123.5 c 128,-1,5
 588 61 588 61 526.5 26.5 c 128,-1,6
 465 -8 465 -8 390 -8 c 0,7,8
 287 -8 287 -8 228 57 c 1,9,-1
 228 -194 l 1,10,-1
 72 -194 l 1,11,-1
 72 538 l 1,12,-1
 221 538 l 1,13,-1
 221 476 l 1,14,15
 279 546 279 546 390 546 c 0,16,0
 465 546 465 546 526.5 511.5 c 128,-1,1
461.5 160.5 m 128,-1,18
 500 201 500 201 500 269 c 256,19,20
 500 337 500 337 461.5 377.5 c 128,-1,21
 423 418 423 418 363 418 c 256,22,23
 303 418 303 418 264.5 377.5 c 128,-1,24
 226 337 226 337 226 269 c 256,25,26
 226 201 226 201 264.5 160.5 c 128,-1,27
 303 120 303 120 363 120 c 256,28,17
 423 120 423 120 461.5 160.5 c 128,-1,18
EndSplineSet
Substitution2: "'smcp' Lowercase to Small Capitals lookup 30 subtable" p.sc
Substitution2: "'aalt' Access All Alternates lookup 0 subtable" p.sc
EndChar

StartChar: thorn
Encoding: 254 254 566
Width: 690
GlyphClass: 2
Flags: W
AnchorPoint: "Anchor-14" 396 538 basechar 0
AnchorPoint: "Anchor-12" 396 0 basechar 0
LayerCount: 2
Fore
SplineSet
526.5 511.5 m 128,-1,1
 588 477 588 477 623 414.5 c 128,-1,2
 658 352 658 352 658 269 c 256,3,4
 658 186 658 186 623 123.5 c 128,-1,5
 588 61 588 61 526.5 26.5 c 128,-1,6
 465 -8 465 -8 390 -8 c 0,7,8
 287 -8 287 -8 228 57 c 1,9,-1
 228 -194 l 1,10,-1
 72 -194 l 1,11,-1
 72 742 l 1,12,-1
 228 742 l 1,13,-1
 228 484 l 1,14,15
 286 546 286 546 390 546 c 0,16,0
 465 546 465 546 526.5 511.5 c 128,-1,1
461.5 160.5 m 128,-1,18
 500 201 500 201 500 269 c 256,19,20
 500 337 500 337 461.5 377.5 c 128,-1,21
 423 418 423 418 363 418 c 256,22,23
 303 418 303 418 264.5 377.5 c 128,-1,24
 226 337 226 337 226 269 c 256,25,26
 226 201 226 201 264.5 160.5 c 128,-1,27
 303 120 303 120 363 120 c 256,28,17
 423 120 423 120 461.5 160.5 c 128,-1,18
EndSplineSet
Substitution2: "'smcp' Lowercase to Small Capitals lookup 30 subtable" thorn.sc
Substitution2: "'aalt' Access All Alternates lookup 0 subtable" thorn.sc
EndChar

StartChar: q
Encoding: 113 113 567
Width: 690
GlyphClass: 2
Flags: W
AnchorPoint: "Anchor-14" 328 538 basechar 0
AnchorPoint: "Anchor-12" 294 0 basechar 0
LayerCount: 2
Fore
SplineSet
469 538 m 1,0,-1
 618 538 l 1,1,-1
 618 -194 l 1,2,-1
 462 -194 l 1,3,-1
 462 57 l 1,4,5
 404 -8 404 -8 301 -8 c 0,6,7
 225 -8 225 -8 163.5 26 c 128,-1,8
 102 60 102 60 67 123 c 128,-1,9
 32 186 32 186 32 269 c 256,10,11
 32 352 32 352 67 415 c 128,-1,12
 102 478 102 478 163.5 512 c 128,-1,13
 225 546 225 546 301 546 c 0,14,15
 411 546 411 546 469 476 c 1,16,-1
 469 538 l 1,0,-1
426 160.5 m 128,-1,18
 465 201 465 201 465 269 c 256,19,20
 465 337 465 337 426 377.5 c 128,-1,21
 387 418 387 418 328 418 c 0,22,23
 268 418 268 418 229 377.5 c 128,-1,24
 190 337 190 337 190 269 c 256,25,26
 190 201 190 201 229 160.5 c 128,-1,27
 268 120 268 120 328 120 c 0,28,17
 387 120 387 120 426 160.5 c 128,-1,18
EndSplineSet
Substitution2: "'smcp' Lowercase to Small Capitals lookup 30 subtable" q.sc
Substitution2: "'aalt' Access All Alternates lookup 0 subtable" q.sc
EndChar

StartChar: r
Encoding: 114 114 568
Width: 431
GlyphClass: 2
Flags: W
AnchorPoint: "Anchor-14" 239 538 basechar 0
AnchorPoint: "Anchor-12" 150 0 basechar 0
LayerCount: 2
Fore
SplineSet
221 467 m 1,0,1
 249 506 249 506 296.5 526 c 128,-1,2
 344 546 344 546 406 546 c 1,3,-1
 406 402 l 1,4,5
 380 404 380 404 371 404 c 0,6,7
 304 404 304 404 266 366.5 c 128,-1,8
 228 329 228 329 228 254 c 2,9,-1
 228 0 l 1,10,-1
 72 0 l 1,11,-1
 72 538 l 1,12,-1
 221 538 l 1,13,-1
 221 467 l 1,0,1
EndSplineSet
Substitution2: "'smcp' Lowercase to Small Capitals lookup 30 subtable" r.sc
Substitution2: "'aalt' Access All Alternates lookup 0 subtable" r.sc
EndChar

StartChar: s
Encoding: 115 115 576
Width: 531
GlyphClass: 2
Flags: W
AnchorPoint: "Anchor-14" 261 538 basechar 0
AnchorPoint: "Anchor-12" 261 0 basechar 0
LayerCount: 2
Fore
SplineSet
122 8.5 m 128,-1,1
 58 25 58 25 20 50 c 1,2,-1
 72 162 l 1,3,4
 108 139 108 139 159 124.5 c 128,-1,5
 210 110 210 110 259 110 c 0,6,7
 358 110 358 110 358 159 c 0,8,9
 358 182 358 182 331 192 c 128,-1,10
 304 202 304 202 248 209 c 0,11,12
 182 219 182 219 139 232 c 128,-1,13
 96 245 96 245 64.5 278 c 128,-1,14
 33 311 33 311 33 372 c 0,15,16
 33 423 33 423 62.5 462.5 c 128,-1,17
 92 502 92 502 148.5 524 c 128,-1,18
 205 546 205 546 282 546 c 0,19,20
 339 546 339 546 395.5 533.5 c 128,-1,21
 452 521 452 521 489 499 c 1,22,-1
 437 388 l 1,23,24
 366 428 366 428 282 428 c 0,25,26
 232 428 232 428 207 414 c 128,-1,27
 182 400 182 400 182 378 c 0,28,29
 182 353 182 353 209 343 c 128,-1,30
 236 333 236 333 295 324 c 0,31,32
 361 313 361 313 403 300.5 c 128,-1,33
 445 288 445 288 476 255 c 128,-1,34
 507 222 507 222 507 163 c 0,35,36
 507 113 507 113 477 74 c 128,-1,37
 447 35 447 35 389.5 13.5 c 128,-1,38
 332 -8 332 -8 253 -8 c 0,39,0
 186 -8 186 -8 122 8.5 c 128,-1,1
EndSplineSet
Substitution2: "'smcp' Lowercase to Small Capitals lookup 30 subtable" s.sc
Substitution2: "'aalt' Access All Alternates lookup 0 subtable" s.sc
EndChar

StartChar: uniA78C
Encoding: 42892 42892 579
Width: 292
GlyphClass: 1
Flags: W
LayerCount: 2
Fore
SplineSet
203 297 m 1,0,-1
 68 297 l 1,1,-1
 69 680 l 1,2,-1
 223 680 l 1,3,-1
 203 297 l 1,0,-1
EndSplineSet
Substitution2: "'smcp' Lowercase to Small Capitals lookup 30 subtable" uniA78C.sc
Substitution2: "'aalt' Access All Alternates lookup 0 subtable" uniA78C.sc
EndChar

StartChar: scedilla
Encoding: 351 351 582
Width: 531
GlyphClass: 2
Flags: W
AnchorPoint: "Anchor-14" 261 538 basechar 0
AnchorPoint: "Anchor-12" 261 0 basechar 0
LayerCount: 2
Fore
SplineSet
452 49 m 128,-1,1
 397 3 397 3 299 -6 c 1,2,-1
 288 -50 l 1,3,4
 332 -55 332 -55 353.5 -77.5 c 128,-1,5
 375 -100 375 -100 375 -133 c 0,6,7
 375 -179 375 -179 335 -205.5 c 128,-1,8
 295 -232 295 -232 228 -232 c 0,9,10
 202 -232 202 -232 177 -226.5 c 128,-1,11
 152 -221 152 -221 135 -211 c 1,12,-1
 159 -144 l 1,13,14
 191 -159 191 -159 224 -159 c 0,15,16
 276 -159 276 -159 276 -127 c 0,17,18
 276 -98 276 -98 227 -98 c 2,19,-1
 193 -98 l 1,20,-1
 215 -7 l 1,21,22
 158 -3 158 -3 105.5 13 c 128,-1,23
 53 29 53 29 20 50 c 1,24,-1
 72 162 l 1,25,26
 108 139 108 139 159 124.5 c 128,-1,27
 210 110 210 110 259 110 c 0,28,29
 358 110 358 110 358 159 c 0,30,31
 358 182 358 182 331 192 c 128,-1,32
 304 202 304 202 248 209 c 0,33,34
 182 219 182 219 139 232 c 128,-1,35
 96 245 96 245 64.5 278 c 128,-1,36
 33 311 33 311 33 372 c 0,37,38
 33 423 33 423 62.5 462.5 c 128,-1,39
 92 502 92 502 148.5 524 c 128,-1,40
 205 546 205 546 282 546 c 0,41,42
 339 546 339 546 395.5 533.5 c 128,-1,43
 452 521 452 521 489 499 c 1,44,-1
 437 388 l 1,45,46
 366 428 366 428 282 428 c 0,47,48
 232 428 232 428 207 414 c 128,-1,49
 182 400 182 400 182 378 c 0,50,51
 182 353 182 353 209 343 c 128,-1,52
 236 333 236 333 295 324 c 0,53,54
 361 313 361 313 403 300.5 c 128,-1,55
 445 288 445 288 476 255 c 128,-1,56
 507 222 507 222 507 163 c 0,57,0
 507 95 507 95 452 49 c 128,-1,1
EndSplineSet
Substitution2: "'smcp' Lowercase to Small Capitals lookup 30 subtable" scedilla.sc
Substitution2: "'locl' Localized Forms in Latin lookup 7 per glyph data 1" uni0219
Substitution2: "'locl' Localized Forms in Latin lookup 7 per glyph data 0" uni0219
AlternateSubs2: "'aalt' Access All Alternates lookup 1 subtable" uni0219 scedilla.sc
EndChar

StartChar: germandbls
Encoding: 223 223 588
Width: 693
GlyphClass: 1
Flags: W
LayerCount: 2
Fore
SplineSet
625 323 m 128,-1,1
 661 276 661 276 661 207 c 0,2,3
 661 107 661 107 592 49.5 c 128,-1,4
 523 -8 523 -8 409 -8 c 0,5,6
 378 -8 378 -8 345.5 -3.5 c 128,-1,7
 313 1 313 1 291 8 c 1,8,-1
 309 132 l 1,9,10
 347 120 347 120 393 120 c 0,11,12
 444 120 444 120 473.5 143.5 c 128,-1,13
 503 167 503 167 503 211 c 256,14,15
 503 255 503 255 471 278.5 c 128,-1,16
 439 302 439 302 382 302 c 2,17,-1
 328 302 l 1,18,-1
 328 425 l 1,19,20
 384 426 384 426 417 454.5 c 128,-1,21
 450 483 450 483 450 530 c 0,22,23
 450 572 450 572 422 597.5 c 128,-1,24
 394 623 394 623 345 623 c 0,25,26
 290 623 290 623 259 591.5 c 128,-1,27
 228 560 228 560 228 502 c 2,28,-1
 228 0 l 1,29,-1
 72 0 l 1,30,-1
 72 483 l 2,31,32
 72 569 72 569 108 629 c 128,-1,33
 144 689 144 689 205.5 719.5 c 128,-1,34
 267 750 267 750 345 750 c 256,35,36
 423 750 423 750 481 722.5 c 128,-1,37
 539 695 539 695 569.5 647.5 c 128,-1,38
 600 600 600 600 600 541 c 0,39,40
 600 495 600 495 579.5 457 c 128,-1,41
 559 419 559 419 524 392 c 1,42,0
 589 370 589 370 625 323 c 128,-1,1
EndSplineSet
Substitution2: "'smcp' Lowercase to Small Capitals lookup 30 subtable" germandbls.sc
Substitution2: "'aalt' Access All Alternates lookup 0 subtable" germandbls.sc
EndChar

StartChar: longs
Encoding: 383 383 589
Width: 333
GlyphClass: 1
Flags: W
LayerCount: 2
Fore
SplineSet
376.5 742.5 m 128,-1,1
 408 735 408 735 429 721 c 1,2,-1
 388 608 l 1,3,4
 361 627 361 627 325 627 c 0,5,6
 258 627 258 627 258 549 c 2,7,-1
 258 0 l 1,8,-1
 102 0 l 1,9,-1
 102 406 l 1,10,-1
 19 406 l 1,11,-1
 19 526 l 1,12,-1
 102 526 l 1,13,-1
 102 550 l 2,14,15
 102 642 102 642 157 696 c 128,-1,16
 212 750 212 750 310 750 c 0,17,0
 345 750 345 750 376.5 742.5 c 128,-1,1
EndSplineSet
EndChar

StartChar: t
Encoding: 116 116 590
Width: 435
GlyphClass: 2
Flags: W
AnchorPoint: "Anchor-16" 315 742 basechar 0
AnchorPoint: "Anchor-15" 195 275 basechar 0
AnchorPoint: "Anchor-14" 169 657 basechar 0
AnchorPoint: "Anchor-12" 263 0 basechar 0
LayerCount: 2
Fore
SplineSet
419 26 m 1,0,1
 396 9 396 9 362.5 0.5 c 128,-1,2
 329 -8 329 -8 292 -8 c 0,3,4
 196 -8 196 -8 143.5 41 c 128,-1,5
 91 90 91 90 91 185 c 2,6,-1
 91 406 l 1,7,-1
 8 406 l 1,8,-1
 8 526 l 1,9,-1
 91 526 l 1,10,-1
 91 657 l 1,11,-1
 247 657 l 1,12,-1
 247 526 l 1,13,-1
 381 526 l 1,14,-1
 381 406 l 1,15,-1
 247 406 l 1,16,-1
 247 187 l 2,17,18
 247 153 247 153 264.5 134.5 c 128,-1,19
 282 116 282 116 314 116 c 0,20,21
 351 116 351 116 377 136 c 1,22,-1
 419 26 l 1,0,1
EndSplineSet
Substitution2: "'ss01' Style Set 1 lookup 35 subtable" t.ss01
Substitution2: "'salt' Stylistic Alternatives lookup 34 subtable" t.ss01
Substitution2: "'smcp' Lowercase to Small Capitals lookup 30 subtable" t.sc
AlternateSubs2: "'aalt' Access All Alternates lookup 1 subtable" t.sc t.ss01
EndChar

StartChar: tbar
Encoding: 359 359 591
Width: 445
GlyphClass: 2
Flags: W
AnchorPoint: "Anchor-16" 320 742 basechar 0
AnchorPoint: "Anchor-15" 200 275 basechar 0
AnchorPoint: "Anchor-14" 174 657 basechar 0
AnchorPoint: "Anchor-12" 268 0 basechar 0
LayerCount: 2
Fore
SplineSet
424 26 m 1,0,1
 401 9 401 9 367.5 0.5 c 128,-1,2
 334 -8 334 -8 297 -8 c 0,3,4
 201 -8 201 -8 148.5 41 c 128,-1,5
 96 90 96 90 96 185 c 2,6,-1
 96 231 l 1,7,-1
 25 231 l 1,8,-1
 25 321 l 1,9,-1
 96 321 l 1,10,-1
 96 406 l 1,11,-1
 13 406 l 1,12,-1
 13 526 l 1,13,-1
 96 526 l 1,14,-1
 96 657 l 1,15,-1
 252 657 l 1,16,-1
 252 526 l 1,17,-1
 386 526 l 1,18,-1
 386 406 l 1,19,-1
 252 406 l 1,20,-1
 252 321 l 1,21,-1
 374 321 l 1,22,-1
 374 231 l 1,23,-1
 252 231 l 1,24,-1
 252 187 l 2,25,26
 252 153 252 153 269.5 134.5 c 128,-1,27
 287 116 287 116 319 116 c 0,28,29
 356 116 356 116 382 136 c 1,30,-1
 424 26 l 1,0,1
EndSplineSet
Substitution2: "'ss01' Style Set 1 lookup 35 subtable" tbar.ss01
Substitution2: "'salt' Stylistic Alternatives lookup 34 subtable" tbar.ss01
Substitution2: "'smcp' Lowercase to Small Capitals lookup 30 subtable" tbar.sc
AlternateSubs2: "'aalt' Access All Alternates lookup 1 subtable" tbar.sc tbar.ss01
EndChar

StartChar: uni0163
Encoding: 355 355 593
Width: 435
GlyphClass: 2
Flags: W
AnchorPoint: "Anchor-16" 315 742 basechar 0
AnchorPoint: "Anchor-15" 195 275 basechar 0
AnchorPoint: "Anchor-14" 169 657 basechar 0
AnchorPoint: "Anchor-12" 263 0 basechar 0
LayerCount: 2
Fore
SplineSet
290 -50 m 1,0,1
 334 -55 334 -55 355.5 -77.5 c 128,-1,2
 377 -100 377 -100 377 -133 c 0,3,4
 377 -179 377 -179 337 -205.5 c 128,-1,5
 297 -232 297 -232 230 -232 c 0,6,7
 204 -232 204 -232 179 -226.5 c 128,-1,8
 154 -221 154 -221 137 -211 c 1,9,-1
 161 -144 l 1,10,11
 193 -159 193 -159 226 -159 c 0,12,13
 278 -159 278 -159 278 -127 c 0,14,15
 278 -98 278 -98 229 -98 c 2,16,-1
 195 -98 l 1,17,-1
 219 1 l 1,18,19
 157 17 157 17 124 63.5 c 128,-1,20
 91 110 91 110 91 185 c 2,21,-1
 91 406 l 1,22,-1
 8 406 l 1,23,-1
 8 526 l 1,24,-1
 91 526 l 1,25,-1
 91 657 l 1,26,-1
 247 657 l 1,27,-1
 247 526 l 1,28,-1
 381 526 l 1,29,-1
 381 406 l 1,30,-1
 247 406 l 1,31,-1
 247 187 l 2,32,33
 247 153 247 153 264.5 134.5 c 128,-1,34
 282 116 282 116 314 116 c 0,35,36
 351 116 351 116 377 136 c 1,37,-1
 419 26 l 1,38,39
 397 10 397 10 366 1.5 c 128,-1,40
 335 -7 335 -7 300 -8 c 1,41,-1
 290 -50 l 1,0,1
EndSplineSet
Substitution2: "'ss01' Style Set 1 lookup 35 subtable" uni0163.ss01
Substitution2: "'salt' Stylistic Alternatives lookup 34 subtable" uni0163.ss01
Substitution2: "'smcp' Lowercase to Small Capitals lookup 30 subtable" uni0163.sc
Substitution2: "'locl' Localized Forms in Latin lookup 7 per glyph data 1" uni021B
Substitution2: "'locl' Localized Forms in Latin lookup 7 per glyph data 0" uni021B
AlternateSubs2: "'aalt' Access All Alternates lookup 1 subtable" uni021B uni0163.sc uni0163.ss01
EndChar

StartChar: u
Encoding: 117 117 598
Width: 687
GlyphClass: 2
Flags: W
AnchorPoint: "Anchor-16" 537 538 basechar 0
AnchorPoint: "Anchor-14" 341 538 basechar 0
AnchorPoint: "Anchor-13" 614 0 basechar 0
AnchorPoint: "Anchor-12" 341 0 basechar 0
LayerCount: 2
Fore
SplineSet
458 538 m 1,0,-1
 614 538 l 1,1,-1
 614 0 l 1,2,-1
 466 0 l 1,3,-1
 466 64 l 1,4,5
 435 29 435 29 392 10.5 c 128,-1,6
 349 -8 349 -8 299 -8 c 0,7,8
 193 -8 193 -8 131 53 c 128,-1,9
 69 114 69 114 69 234 c 2,10,-1
 69 538 l 1,11,-1
 225 538 l 1,12,-1
 225 257 l 2,13,14
 225 127 225 127 334 127 c 0,15,16
 390 127 390 127 424 163.5 c 128,-1,17
 458 200 458 200 458 272 c 2,18,-1
 458 538 l 1,0,-1
EndSplineSet
Substitution2: "'smcp' Lowercase to Small Capitals lookup 30 subtable" u.sc
Substitution2: "'aalt' Access All Alternates lookup 0 subtable" u.sc
EndChar

StartChar: uhorn
Encoding: 432 432 608
Width: 701
GlyphClass: 2
Flags: W
AnchorPoint: "Anchor-16" 537 538 basechar 0
AnchorPoint: "Anchor-14" 341 538 basechar 0
AnchorPoint: "Anchor-13" 614 0 basechar 0
AnchorPoint: "Anchor-12" 341 0 basechar 0
LayerCount: 2
Fore
SplineSet
681.5 503 m 128,-1,1
 658 465 658 465 614 448 c 1,2,-1
 614 0 l 1,3,-1
 466 0 l 1,4,-1
 466 64 l 1,5,6
 435 29 435 29 392 10.5 c 128,-1,7
 349 -8 349 -8 299 -8 c 0,8,9
 193 -8 193 -8 131 53 c 128,-1,10
 69 114 69 114 69 234 c 2,11,-1
 69 538 l 1,12,-1
 225 538 l 1,13,-1
 225 257 l 2,14,15
 225 127 225 127 334 127 c 0,16,17
 390 127 390 127 424 163.5 c 128,-1,18
 458 200 458 200 458 272 c 2,19,-1
 458 538 l 1,20,-1
 541 538 l 2,21,22
 568 538 568 538 584.5 555.5 c 128,-1,23
 601 573 601 573 601 601 c 0,24,25
 601 636 601 636 581 661 c 1,26,-1
 673 695 l 1,27,28
 705 653 705 653 705 595 c 0,29,0
 705 541 705 541 681.5 503 c 128,-1,1
EndSplineSet
Substitution2: "'smcp' Lowercase to Small Capitals lookup 30 subtable" uhorn.sc
Substitution2: "'aalt' Access All Alternates lookup 0 subtable" uhorn.sc
EndChar

StartChar: uogonek
Encoding: 371 371 618
Width: 687
GlyphClass: 2
Flags: W
AnchorPoint: "Anchor-16" 537 538 basechar 0
AnchorPoint: "Anchor-14" 341 538 basechar 0
AnchorPoint: "Anchor-13" 614 0 basechar 0
AnchorPoint: "Anchor-12" 341 0 basechar 0
LayerCount: 2
Fore
SplineSet
638 -209 m 1,0,1
 619 -219 619 -219 592 -225.5 c 128,-1,2
 565 -232 565 -232 537 -232 c 0,3,4
 473 -232 473 -232 436 -201.5 c 128,-1,5
 399 -171 399 -171 399 -120 c 0,6,7
 399 -51 399 -51 472 0 c 1,8,-1
 466 0 l 1,9,-1
 466 64 l 1,10,11
 435 29 435 29 392 10.5 c 128,-1,12
 349 -8 349 -8 299 -8 c 0,13,14
 193 -8 193 -8 131 53 c 128,-1,15
 69 114 69 114 69 234 c 2,16,-1
 69 538 l 1,17,-1
 225 538 l 1,18,-1
 225 257 l 2,19,20
 225 127 225 127 334 127 c 0,21,22
 390 127 390 127 424 163.5 c 128,-1,23
 458 200 458 200 458 272 c 2,24,-1
 458 538 l 1,25,-1
 614 538 l 1,26,-1
 614 1 l 1,27,-1
 615 0 l 1,28,29
 552 -28 552 -28 525 -53.5 c 128,-1,30
 498 -79 498 -79 498 -107 c 0,31,32
 498 -128 498 -128 513.5 -140.5 c 128,-1,33
 529 -153 529 -153 555 -153 c 0,34,35
 589 -153 589 -153 616 -138 c 1,36,-1
 638 -209 l 1,0,1
EndSplineSet
Substitution2: "'smcp' Lowercase to Small Capitals lookup 30 subtable" uogonek.sc
Substitution2: "'aalt' Access All Alternates lookup 0 subtable" uogonek.sc
EndChar

StartChar: v
Encoding: 118 118 622
Width: 598
GlyphClass: 2
Flags: W
AnchorPoint: "Anchor-14" 299 538 basechar 0
AnchorPoint: "Anchor-12" 299 0 basechar 0
LayerCount: 2
Fore
SplineSet
302 172 m 1,0,-1
 456 538 l 1,1,-1
 606 538 l 1,2,-1
 379 0 l 1,3,-1
 218 0 l 1,4,-1
 -8 538 l 1,5,-1
 153 538 l 1,6,-1
 302 172 l 1,0,-1
EndSplineSet
Substitution2: "'smcp' Lowercase to Small Capitals lookup 30 subtable" v.sc
Substitution2: "'aalt' Access All Alternates lookup 0 subtable" v.sc
EndChar

StartChar: w
Encoding: 119 119 623
Width: 937
GlyphClass: 2
Flags: W
AnchorPoint: "Anchor-14" 467 537 basechar 0
AnchorPoint: "Anchor-12" 467 0 basechar 0
LayerCount: 2
Fore
SplineSet
667 174 m 1,0,-1
 798 538 l 1,1,-1
 936 538 l 1,2,-1
 741 0 l 1,3,-1
 591 0 l 1,4,-1
 470 334 l 1,5,-1
 345 0 l 1,6,-1
 195 0 l 1,7,-1
 1 538 l 1,8,-1
 148 538 l 1,9,-1
 275 174 l 1,10,-1
 407 538 l 1,11,-1
 539 538 l 1,12,-1
 667 174 l 1,0,-1
EndSplineSet
Substitution2: "'ss01' Style Set 1 lookup 35 subtable" w.ss01
Substitution2: "'salt' Stylistic Alternatives lookup 34 subtable" w.ss01
Substitution2: "'smcp' Lowercase to Small Capitals lookup 30 subtable" w.sc
AlternateSubs2: "'aalt' Access All Alternates lookup 1 subtable" w.sc w.ss01
EndChar

StartChar: x
Encoding: 120 120 628
Width: 595
GlyphClass: 1
Flags: W
LayerCount: 2
Fore
SplineSet
383 275 m 1,0,-1
 591 0 l 1,1,-1
 414 0 l 1,2,-1
 296 165 l 1,3,-1
 174 0 l 1,4,-1
 4 0 l 1,5,-1
 211 271 l 1,6,-1
 11 538 l 1,7,-1
 186 538 l 1,8,-1
 300 381 l 1,9,-1
 417 538 l 1,10,-1
 583 538 l 1,11,-1
 383 275 l 1,0,-1
EndSplineSet
Substitution2: "'smcp' Lowercase to Small Capitals lookup 30 subtable" x.sc
Substitution2: "'aalt' Access All Alternates lookup 0 subtable" x.sc
EndChar

StartChar: y
Encoding: 121 121 629
Width: 598
GlyphClass: 2
Flags: W
AnchorPoint: "Anchor-14" 288 538 basechar 0
AnchorPoint: "Anchor-12" 464 0 basechar 0
LayerCount: 2
Fore
SplineSet
456 538 m 1,0,-1
 606 538 l 1,1,-1
 363 -33 l 2,2,3
 326 -126 326 -126 271.5 -164 c 128,-1,4
 217 -202 217 -202 140 -202 c 0,5,6
 98 -202 98 -202 57 -189 c 128,-1,7
 16 -176 16 -176 -10 -153 c 1,8,-1
 47 -42 l 1,9,10
 65 -58 65 -58 88.5 -67 c 128,-1,11
 112 -76 112 -76 135 -76 c 0,12,13
 167 -76 167 -76 187 -60.5 c 128,-1,14
 207 -45 207 -45 223 -9 c 2,15,-1
 225 -4 l 1,16,-1
 -8 538 l 1,17,-1
 153 538 l 1,18,-1
 304 173 l 1,19,-1
 456 538 l 1,0,-1
EndSplineSet
Substitution2: "'ss01' Style Set 1 lookup 35 subtable" y.ss01
Substitution2: "'salt' Stylistic Alternatives lookup 34 subtable" y.ss01
Substitution2: "'smcp' Lowercase to Small Capitals lookup 30 subtable" y.sc
AlternateSubs2: "'aalt' Access All Alternates lookup 1 subtable" y.sc y.ss01
EndChar

StartChar: z
Encoding: 122 122 639
Width: 543
GlyphClass: 2
Flags: W
AnchorPoint: "Anchor-14" 275 538 basechar 0
AnchorPoint: "Anchor-12" 278 0 basechar 0
LayerCount: 2
Fore
SplineSet
506 444 m 1,0,-1
 232 120 l 1,1,-1
 515 120 l 1,2,-1
 515 0 l 1,3,-1
 35 0 l 1,4,-1
 35 94 l 1,5,-1
 309 418 l 1,6,-1
 42 418 l 1,7,-1
 42 538 l 1,8,-1
 506 538 l 1,9,-1
 506 444 l 1,0,-1
EndSplineSet
Substitution2: "'ss01' Style Set 1 lookup 35 subtable" z.ss01
Substitution2: "'salt' Stylistic Alternatives lookup 34 subtable" z.ss01
Substitution2: "'smcp' Lowercase to Small Capitals lookup 30 subtable" z.sc
AlternateSubs2: "'aalt' Access All Alternates lookup 1 subtable" z.sc z.ss01
EndChar

StartChar: iacute_j.loclNLD
Encoding: 65693 -1 644
Width: 606
GlyphClass: 1
Flags: W
LayerCount: 2
Fore
SplineSet
175 607 m 1,0,-1
 65 607 l 1,1,-1
 200 751 l 1,2,-1
 356 751 l 1,3,-1
 175 607 l 1,0,-1
480 607 m 1,4,-1
 371 607 l 1,5,-1
 506 751 l 1,6,-1
 662 751 l 1,7,-1
 480 607 l 1,4,-1
227 0 m 1,8,-1
 72 0 l 1,9,-1
 72 538 l 1,10,-1
 227 538 l 1,11,-1
 227 0 l 1,8,-1
264 -194.5 m 128,-1,13
 231 -187 231 -187 208 -172 c 1,14,-1
 248 -59 l 1,15,16
 275 -78 275 -78 312 -78 c 0,17,18
 343 -78 343 -78 360.5 -58.5 c 128,-1,19
 378 -39 378 -39 378 0 c 2,20,-1
 378 538 l 1,21,-1
 534 538 l 1,22,-1
 534 -2 l 2,23,24
 534 -94 534 -94 481 -148 c 128,-1,25
 428 -202 428 -202 335 -202 c 0,26,12
 297 -202 297 -202 264 -194.5 c 128,-1,13
EndSplineSet
Substitution2: "'smcp' Lowercase to Small Capitals lookup 30 subtable" iacute_j.loclNLD.sc
Ligature2: "'locl' Localized Forms in Latin lookup 8 subtable" iacute j
Substitution2: "'aalt' Access All Alternates lookup 0 subtable" iacute_j.loclNLD.sc
EndChar

StartChar: a.ss01
Encoding: 65694 -1 645
Width: 690
GlyphClass: 2
Flags: W
AnchorPoint: "Anchor-14" 349 538 basechar 0
AnchorPoint: "Anchor-13" 618 0 basechar 0
AnchorPoint: "Anchor-12" 349 0 basechar 0
LayerCount: 2
Fore
SplineSet
462 538 m 1,0,-1
 618 538 l 1,1,-1
 618 0 l 1,2,-1
 469 0 l 1,3,-1
 469 62 l 1,4,5
 411 -8 411 -8 301 -8 c 0,6,7
 225 -8 225 -8 163.5 26 c 128,-1,8
 102 60 102 60 67 123 c 128,-1,9
 32 186 32 186 32 269 c 256,10,11
 32 352 32 352 67 415 c 128,-1,12
 102 478 102 478 163.5 512 c 128,-1,13
 225 546 225 546 301 546 c 0,14,15
 404 546 404 546 462 481 c 1,16,-1
 462 538 l 1,0,-1
426 160.5 m 128,-1,18
 465 201 465 201 465 269 c 256,19,20
 465 337 465 337 426 377.5 c 128,-1,21
 387 418 387 418 328 418 c 0,22,23
 268 418 268 418 229 377.5 c 128,-1,24
 190 337 190 337 190 269 c 256,25,26
 190 201 190 201 229 160.5 c 128,-1,27
 268 120 268 120 328 120 c 0,28,17
 387 120 387 120 426 160.5 c 128,-1,18
EndSplineSet
EndChar

StartChar: aogonek.ss01
Encoding: 65716 -1 667
Width: 690
GlyphClass: 2
Flags: W
AnchorPoint: "Anchor-14" 349 538 basechar 0
AnchorPoint: "Anchor-13" 618 0 basechar 0
AnchorPoint: "Anchor-12" 349 0 basechar 0
LayerCount: 2
Fore
SplineSet
641 -209 m 1,0,1
 622 -219 622 -219 595 -225.5 c 128,-1,2
 568 -232 568 -232 540 -232 c 0,3,4
 476 -232 476 -232 439 -201.5 c 128,-1,5
 402 -171 402 -171 402 -120 c 0,6,7
 402 -51 402 -51 475 0 c 1,8,-1
 469 0 l 1,9,-1
 469 62 l 1,10,11
 411 -8 411 -8 301 -8 c 0,12,13
 225 -8 225 -8 163.5 26 c 128,-1,14
 102 60 102 60 67 123 c 128,-1,15
 32 186 32 186 32 269 c 256,16,17
 32 352 32 352 67 415 c 128,-1,18
 102 478 102 478 163.5 512 c 128,-1,19
 225 546 225 546 301 546 c 0,20,21
 404 546 404 546 462 481 c 1,22,-1
 462 538 l 1,23,-1
 618 538 l 1,24,-1
 618 0 l 1,25,26
 555 -28 555 -28 528 -53.5 c 128,-1,27
 501 -79 501 -79 501 -107 c 0,28,29
 501 -128 501 -128 516.5 -140.5 c 128,-1,30
 532 -153 532 -153 558 -153 c 0,31,32
 592 -153 592 -153 619 -138 c 1,33,-1
 641 -209 l 1,0,1
426 160.5 m 128,-1,35
 465 201 465 201 465 269 c 256,36,37
 465 337 465 337 426 377.5 c 128,-1,38
 387 418 387 418 328 418 c 0,39,40
 268 418 268 418 229 377.5 c 128,-1,41
 190 337 190 337 190 269 c 256,42,43
 190 201 190 201 229 160.5 c 128,-1,44
 268 120 268 120 328 120 c 0,45,34
 387 120 387 120 426 160.5 c 128,-1,35
EndSplineSet
EndChar

StartChar: ae.ss01
Encoding: 65720 -1 671
Width: 995
GlyphClass: 2
Flags: W
AnchorPoint: "Anchor-14" 482 538 basechar 0
LayerCount: 2
Fore
SplineSet
779.5 129.5 m 128,-1,1
 811 142 811 142 841 169 c 1,2,-1
 925 79 l 1,3,4
 847 -8 847 -8 705 -8 c 0,5,6
 634 -8 634 -8 573.5 15 c 128,-1,7
 513 38 513 38 470 86 c 1,8,9
 409 -8 409 -8 263 -8 c 0,10,11
 158 -8 158 -8 97.5 38 c 128,-1,12
 37 84 37 84 37 161 c 0,13,14
 37 231 37 231 94 274 c 128,-1,15
 151 317 151 317 268 317 c 2,16,-1
 392 317 l 1,17,18
 392 367 392 367 361.5 394.5 c 128,-1,19
 331 422 331 422 269 422 c 0,20,21
 226 422 226 422 184 408.5 c 128,-1,22
 142 395 142 395 113 372 c 1,23,-1
 57 481 l 1,24,25
 101 512 101 512 162 529 c 128,-1,26
 223 546 223 546 288 546 c 0,27,28
 424 546 424 546 486 470 c 1,29,30
 524 506 524 506 576 526 c 128,-1,31
 628 546 628 546 686 546 c 0,32,33
 762 546 762 546 824.5 513.5 c 128,-1,34
 887 481 887 481 924.5 419 c 128,-1,35
 962 357 962 357 963 273 c 1,36,-1
 563 196 l 1,37,38
 581 158 581 158 619 137.5 c 128,-1,39
 657 117 657 117 709 117 c 0,40,0
 748 117 748 117 779.5 129.5 c 128,-1,1
586.5 389 m 128,-1,42
 548 350 548 350 548 287 c 2,43,-1
 548 286 l 1,44,-1
 810 336 l 1,45,46
 798 378 798 378 764.5 403 c 128,-1,47
 731 428 731 428 684 428 c 0,48,41
 625 428 625 428 586.5 389 c 128,-1,42
362 125 m 128,-1,50
 392 153 392 153 392 201 c 2,51,-1
 392 226 l 1,52,-1
 285 226 l 2,53,54
 189 226 189 226 189 164 c 0,55,56
 189 132 189 132 212.5 114.5 c 128,-1,57
 236 97 236 97 279 97 c 0,58,49
 332 97 332 97 362 125 c 128,-1,50
EndSplineSet
EndChar

StartChar: e.ss01
Encoding: 65723 -1 674
Width: 631
GlyphClass: 2
Flags: W
AnchorPoint: "Anchor-14" 317 538 basechar 0
AnchorPoint: "Anchor-13" 447 0 basechar 0
AnchorPoint: "Anchor-12" 317 0 basechar 0
LayerCount: 2
Fore
SplineSet
417.5 129.5 m 128,-1,1
 450 142 450 142 478 169 c 1,2,-1
 561 79 l 1,3,4
 485 -8 485 -8 339 -8 c 0,5,6
 248 -8 248 -8 178 27.5 c 128,-1,7
 108 63 108 63 70 126 c 128,-1,8
 32 189 32 189 32 269 c 0,9,10
 32 348 32 348 69.5 411.5 c 128,-1,11
 107 475 107 475 172.5 510.5 c 128,-1,12
 238 546 238 546 320 546 c 0,13,14
 397 546 397 546 460 513.5 c 128,-1,15
 523 481 523 481 560.5 419.5 c 128,-1,16
 598 358 598 358 598 274 c 1,17,-1
 200 197 l 1,18,19
 217 157 217 157 253.5 137 c 128,-1,20
 290 117 290 117 343 117 c 0,21,0
 385 117 385 117 417.5 129.5 c 128,-1,1
224 390 m 128,-1,23
 187 352 187 352 185 285 c 1,24,-1
 447 336 l 1,25,26
 436 378 436 378 402 403 c 128,-1,27
 368 428 368 428 320 428 c 0,28,22
 261 428 261 428 224 390 c 128,-1,23
EndSplineSet
EndChar

StartChar: uni1E1D.ss01
Encoding: 65727 -1 678
Width: 631
GlyphClass: 2
Flags: W
AnchorPoint: "Anchor-14" 317 719 basechar 0
AnchorPoint: "Anchor-13" 447 0 basechar 0
AnchorPoint: "Anchor-12" 317 0 basechar 0
LayerCount: 2
Fore
SplineSet
187 640 m 128,-1,1
 136 681 136 681 133 751 c 1,2,-1
 231 751 l 1,3,4
 232 719 232 719 256.5 699.5 c 128,-1,5
 281 680 281 680 317 680 c 256,6,7
 353 680 353 680 377.5 699.5 c 128,-1,8
 402 719 402 719 403 751 c 1,9,-1
 501 751 l 1,10,11
 498 681 498 681 447 640 c 128,-1,12
 396 599 396 599 317 599 c 256,13,0
 238 599 238 599 187 640 c 128,-1,1
417.5 129.5 m 128,-1,15
 450 142 450 142 478 169 c 1,16,-1
 561 79 l 1,17,18
 489 -3 489 -3 354 -8 c 1,19,-1
 344 -50 l 1,20,21
 388 -55 388 -55 409.5 -77.5 c 128,-1,22
 431 -100 431 -100 431 -133 c 0,23,24
 431 -179 431 -179 391 -205.5 c 128,-1,25
 351 -232 351 -232 284 -232 c 0,26,27
 258 -232 258 -232 233 -226.5 c 128,-1,28
 208 -221 208 -221 191 -211 c 1,29,-1
 215 -144 l 1,30,31
 247 -159 247 -159 280 -159 c 0,32,33
 332 -159 332 -159 332 -127 c 0,34,35
 332 -98 332 -98 283 -98 c 2,36,-1
 249 -98 l 1,37,-1
 272 -3 l 1,38,39
 162 16 162 16 97 90 c 128,-1,40
 32 164 32 164 32 269 c 0,41,42
 32 348 32 348 69.5 411.5 c 128,-1,43
 107 475 107 475 172.5 510.5 c 128,-1,44
 238 546 238 546 320 546 c 0,45,46
 397 546 397 546 460 513.5 c 128,-1,47
 523 481 523 481 560.5 419.5 c 128,-1,48
 598 358 598 358 598 274 c 1,49,-1
 200 197 l 1,50,51
 217 157 217 157 253.5 137 c 128,-1,52
 290 117 290 117 343 117 c 0,53,14
 385 117 385 117 417.5 129.5 c 128,-1,15
224 390 m 128,-1,55
 187 352 187 352 185 285 c 1,56,-1
 447 336 l 1,57,58
 436 378 436 378 402 403 c 128,-1,59
 368 428 368 428 320 428 c 0,60,54
 261 428 261 428 224 390 c 128,-1,55
EndSplineSet
EndChar

StartChar: eogonek.ss01
Encoding: 65744 -1 695
Width: 631
GlyphClass: 2
Flags: W
AnchorPoint: "Anchor-14" 324 538 basechar 0
AnchorPoint: "Anchor-12" 324 0 basechar 0
LayerCount: 2
Fore
SplineSet
417.5 129.5 m 128,-1,1
 450 142 450 142 478 169 c 1,2,-1
 561 79 l 1,3,4
 541 58 541 58 520 43 c 0,5,6
 458 -4 458 -4 433.5 -37.5 c 128,-1,7
 409 -71 409 -71 409 -103 c 0,8,9
 409 -127 409 -127 424.5 -140 c 128,-1,10
 440 -153 440 -153 467 -153 c 0,11,12
 499 -153 499 -153 526 -138 c 1,13,-1
 549 -209 l 1,14,15
 530 -219 530 -219 502.5 -225.5 c 128,-1,16
 475 -232 475 -232 448 -232 c 0,17,18
 384 -232 384 -232 347 -200.5 c 128,-1,19
 310 -169 310 -169 310 -116 c 0,20,21
 310 -88 310 -88 322.5 -59.5 c 128,-1,22
 335 -31 335 -31 358 -8 c 1,23,-1
 339 -8 l 2,24,25
 248 -8 248 -8 178 27.5 c 128,-1,26
 108 63 108 63 70 126 c 128,-1,27
 32 189 32 189 32 269 c 0,28,29
 32 348 32 348 69.5 411.5 c 128,-1,30
 107 475 107 475 172.5 510.5 c 128,-1,31
 238 546 238 546 320 546 c 0,32,33
 397 546 397 546 460 513.5 c 128,-1,34
 523 481 523 481 560.5 419.5 c 128,-1,35
 598 358 598 358 598 274 c 1,36,-1
 200 197 l 1,37,38
 217 157 217 157 253.5 137 c 128,-1,39
 290 117 290 117 343 117 c 0,40,0
 385 117 385 117 417.5 129.5 c 128,-1,1
224 390 m 128,-1,42
 187 352 187 352 185 285 c 1,43,-1
 447 336 l 1,44,45
 436 378 436 378 402 403 c 128,-1,46
 368 428 368 428 320 428 c 0,47,41
 261 428 261 428 224 390 c 128,-1,42
EndSplineSet
EndChar

StartChar: uni0259.ss01
Encoding: 65746 -1 697
Width: 631
GlyphClass: 2
Flags: W
AnchorPoint: "Anchor-14" 314 538 basechar 0
AnchorPoint: "Anchor-13" 184 538 basechar 0
AnchorPoint: "Anchor-12" 314 0 basechar 0
LayerCount: 2
Fore
SplineSet
452.5 510.5 m 128,-1,1
 522 475 522 475 560 412 c 128,-1,2
 598 349 598 349 598 269 c 0,3,4
 598 190 598 190 561 126.5 c 128,-1,5
 524 63 524 63 458.5 27.5 c 128,-1,6
 393 -8 393 -8 311 -8 c 0,7,8
 234 -8 234 -8 171 24.5 c 128,-1,9
 108 57 108 57 70.5 118.5 c 128,-1,10
 33 180 33 180 32 264 c 1,11,-1
 431 341 l 1,12,13
 413 381 413 381 376.5 401 c 128,-1,14
 340 421 340 421 287 421 c 0,15,16
 246 421 246 421 213.5 408.5 c 128,-1,17
 181 396 181 396 152 369 c 1,18,-1
 70 459 l 1,19,20
 146 546 146 546 292 546 c 0,21,0
 383 546 383 546 452.5 510.5 c 128,-1,1
407 148 m 128,-1,23
 444 186 444 186 446 253 c 1,24,-1
 184 202 l 1,25,26
 195 160 195 160 229 135 c 128,-1,27
 263 110 263 110 310 110 c 0,28,22
 370 110 370 110 407 148 c 128,-1,23
EndSplineSet
EndChar

StartChar: f.ss01
Encoding: 65747 -1 698
Width: 368
GlyphClass: 1
Flags: W
LayerCount: 2
Fore
SplineSet
224 526 m 1,0,-1
 362 526 l 1,1,-1
 362 406 l 1,2,-1
 228 406 l 1,3,-1
 228 0 l 1,4,-1
 72 0 l 1,5,-1
 72 550 l 2,6,7
 72 642 72 642 126.5 696 c 128,-1,8
 181 750 181 750 280 750 c 0,9,10
 315 750 315 750 346.5 742.5 c 128,-1,11
 378 735 378 735 399 721 c 1,12,-1
 358 608 l 1,13,14
 331 627 331 627 295 627 c 0,15,16
 224 627 224 627 224 549 c 2,17,-1
 224 526 l 1,0,-1
EndSplineSet
EndChar

StartChar: l.ss01
Encoding: 65748 -1 699
Width: 351
GlyphClass: 2
Flags: W
AnchorPoint: "Anchor-16" 307 742 basechar 0
AnchorPoint: "Anchor-15" 150 364 basechar 0
AnchorPoint: "Anchor-14" 150 742 basechar 0
AnchorPoint: "Anchor-12" 217 0 basechar 0
LayerCount: 2
Fore
SplineSet
123 40.5 m 128,-1,1
 72 89 72 89 72 178 c 2,2,-1
 72 742 l 1,3,-1
 228 742 l 1,4,-1
 228 187 l 2,5,6
 228 153 228 153 245.5 134.5 c 128,-1,7
 263 116 263 116 295 116 c 0,8,9
 307 116 307 116 319.5 119 c 128,-1,10
 332 122 332 122 339 126 c 1,11,-1
 346 5 l 1,12,13
 307 -8 307 -8 265 -8 c 0,14,0
 174 -8 174 -8 123 40.5 c 128,-1,1
EndSplineSet
EndChar

StartChar: lslash.ss01
Encoding: 65756 -1 707
Width: 351
GlyphClass: 2
Flags: W
AnchorPoint: "Anchor-16" 307 742 basechar 0
AnchorPoint: "Anchor-15" 150 364 basechar 0
AnchorPoint: "Anchor-14" 150 742 basechar 0
AnchorPoint: "Anchor-12" 217 0 basechar 0
LayerCount: 2
Fore
SplineSet
346 5 m 1,0,1
 307 -8 307 -8 265 -8 c 0,2,3
 174 -8 174 -8 123 40.5 c 128,-1,4
 72 89 72 89 72 178 c 2,5,-1
 72 244 l 1,6,-1
 17 203 l 1,7,-1
 -41 281 l 1,8,-1
 72 366 l 1,9,-1
 72 742 l 1,10,-1
 228 742 l 1,11,-1
 228 484 l 1,12,-1
 283 525 l 1,13,-1
 340 445 l 1,14,-1
 228 361 l 1,15,-1
 228 187 l 2,16,17
 228 153 228 153 245.5 134.5 c 128,-1,18
 263 116 263 116 295 116 c 0,19,20
 307 116 307 116 319.5 119 c 128,-1,21
 332 122 332 122 339 126 c 1,22,-1
 346 5 l 1,0,1
EndSplineSet
EndChar

StartChar: oe.ss01
Encoding: 65757 -1 708
Width: 1077
GlyphClass: 2
Flags: W
AnchorPoint: "Anchor-14" 539 538 basechar 0
AnchorPoint: "Anchor-12" 539 0 basechar 0
LayerCount: 2
Fore
SplineSet
859 129.5 m 128,-1,1
 892 142 892 142 922 169 c 1,2,-1
 1007 79 l 1,3,4
 928 -8 928 -8 778 -8 c 0,5,6
 702 -8 702 -8 642 16.5 c 128,-1,7
 582 41 582 41 542 86 c 1,8,9
 505 41 505 41 450 16.5 c 128,-1,10
 395 -8 395 -8 326 -8 c 0,11,12
 242 -8 242 -8 175 27.5 c 128,-1,13
 108 63 108 63 70 126 c 128,-1,14
 32 189 32 189 32 269 c 256,15,16
 32 349 32 349 70 412 c 128,-1,17
 108 475 108 475 175 510.5 c 128,-1,18
 242 546 242 546 326 546 c 0,19,20
 394 546 394 546 449.5 522 c 128,-1,21
 505 498 505 498 541 454 c 1,22,23
 579 498 579 498 635 522 c 128,-1,24
 691 546 691 546 759 546 c 0,25,26
 838 546 838 546 903 513.5 c 128,-1,27
 968 481 968 481 1006.5 419 c 128,-1,28
 1045 357 1045 357 1045 273 c 1,29,-1
 635 196 l 1,30,31
 653 158 653 158 691.5 137.5 c 128,-1,32
 730 117 730 117 782 117 c 0,33,0
 826 117 826 117 859 129.5 c 128,-1,1
658.5 389.5 m 128,-1,35
 620 351 620 351 620 287 c 2,36,-1
 620 285 l 1,37,-1
 890 336 l 1,38,39
 878 378 878 378 843 403 c 128,-1,40
 808 428 808 428 759 428 c 0,41,34
 697 428 697 428 658.5 389.5 c 128,-1,35
426.5 160.5 m 128,-1,43
 465 201 465 201 465 269 c 256,44,45
 465 337 465 337 426.5 377.5 c 128,-1,46
 388 418 388 418 328 418 c 256,47,48
 268 418 268 418 229 377.5 c 128,-1,49
 190 337 190 337 190 269 c 256,50,51
 190 201 190 201 229 160.5 c 128,-1,52
 268 120 268 120 328 120 c 256,53,42
 388 120 388 120 426.5 160.5 c 128,-1,43
EndSplineSet
EndChar

StartChar: t.ss01
Encoding: 65758 -1 709
Width: 412
GlyphClass: 2
Flags: W
AnchorPoint: "Anchor-16" 296 742 basechar 0
AnchorPoint: "Anchor-15" 172 275 basechar 0
AnchorPoint: "Anchor-14" 147 657 basechar 0
AnchorPoint: "Anchor-12" 240 0 basechar 0
LayerCount: 2
Fore
SplineSet
396 26 m 1,0,1
 373 9 373 9 339.5 0.5 c 128,-1,2
 306 -8 306 -8 270 -8 c 0,3,4
 173 -8 173 -8 121 41 c 128,-1,5
 69 90 69 90 69 185 c 2,6,-1
 69 657 l 1,7,-1
 225 657 l 1,8,-1
 225 526 l 1,9,-1
 358 526 l 1,10,-1
 358 406 l 1,11,-1
 225 406 l 1,12,-1
 225 187 l 2,13,14
 225 153 225 153 242 134.5 c 128,-1,15
 259 116 259 116 291 116 c 0,16,17
 327 116 327 116 355 136 c 1,18,-1
 396 26 l 1,0,1
EndSplineSet
EndChar

StartChar: tbar.ss01
Encoding: 65759 -1 710
Width: 422
GlyphClass: 2
Flags: W
AnchorPoint: "Anchor-16" 301 742 basechar 0
AnchorPoint: "Anchor-15" 177 275 basechar 0
AnchorPoint: "Anchor-14" 152 657 basechar 0
AnchorPoint: "Anchor-12" 245 0 basechar 0
LayerCount: 2
Fore
SplineSet
401 26 m 1,0,1
 378 9 378 9 344.5 0.5 c 128,-1,2
 311 -8 311 -8 275 -8 c 0,3,4
 178 -8 178 -8 126 41 c 128,-1,5
 74 90 74 90 74 185 c 2,6,-1
 74 231 l 1,7,-1
 2 231 l 1,8,-1
 2 321 l 1,9,-1
 74 321 l 1,10,-1
 74 657 l 1,11,-1
 230 657 l 1,12,-1
 230 526 l 1,13,-1
 363 526 l 1,14,-1
 363 406 l 1,15,-1
 230 406 l 1,16,-1
 230 321 l 1,17,-1
 351 321 l 1,18,-1
 351 231 l 1,19,-1
 230 231 l 1,20,-1
 230 187 l 2,21,22
 230 153 230 153 247 134.5 c 128,-1,23
 264 116 264 116 296 116 c 0,24,25
 332 116 332 116 360 136 c 1,26,-1
 401 26 l 1,0,1
EndSplineSet
EndChar

StartChar: uni0163.ss01
Encoding: 65761 -1 712
Width: 412
GlyphClass: 2
Flags: W
AnchorPoint: "Anchor-16" 296 742 basechar 0
AnchorPoint: "Anchor-15" 172 275 basechar 0
AnchorPoint: "Anchor-14" 147 657 basechar 0
AnchorPoint: "Anchor-12" 240 0 basechar 0
LayerCount: 2
Fore
SplineSet
267 -50 m 1,0,1
 311 -55 311 -55 332.5 -77.5 c 128,-1,2
 354 -100 354 -100 354 -133 c 0,3,4
 354 -179 354 -179 314 -205.5 c 128,-1,5
 274 -232 274 -232 207 -232 c 0,6,7
 181 -232 181 -232 156 -226.5 c 128,-1,8
 131 -221 131 -221 114 -211 c 1,9,-1
 138 -144 l 1,10,11
 170 -159 170 -159 203 -159 c 0,12,13
 255 -159 255 -159 255 -127 c 0,14,15
 255 -98 255 -98 206 -98 c 2,16,-1
 172 -98 l 1,17,-1
 196 1 l 1,18,19
 134 17 134 17 101.5 63.5 c 128,-1,20
 69 110 69 110 69 185 c 2,21,-1
 69 657 l 1,22,-1
 225 657 l 1,23,-1
 225 526 l 1,24,-1
 358 526 l 1,25,-1
 358 406 l 1,26,-1
 225 406 l 1,27,-1
 225 187 l 2,28,29
 225 153 225 153 242 134.5 c 128,-1,30
 259 116 259 116 291 116 c 0,31,32
 327 116 327 116 355 136 c 1,33,-1
 396 26 l 1,34,35
 374 10 374 10 343 1.5 c 128,-1,36
 312 -7 312 -7 277 -8 c 1,37,-1
 267 -50 l 1,0,1
EndSplineSet
EndChar

StartChar: w.ss01
Encoding: 65766 -1 717
Width: 991
GlyphClass: 2
Flags: W
AnchorPoint: "Anchor-14" 496 538 basechar 0
AnchorPoint: "Anchor-12" 496 0 basechar 0
LayerCount: 2
Fore
SplineSet
767 538 m 1,0,-1
 923 538 l 1,1,-1
 923 241 l 2,2,3
 923 122 923 122 858 57 c 128,-1,4
 793 -8 793 -8 673 -8 c 0,5,6
 615 -8 615 -8 570.5 10 c 128,-1,7
 526 28 526 28 496 68 c 1,8,9
 466 28 466 28 422 10 c 128,-1,10
 378 -8 378 -8 318 -8 c 0,11,12
 197 -8 197 -8 133 57 c 128,-1,13
 69 122 69 122 69 241 c 2,14,-1
 69 538 l 1,15,-1
 225 538 l 1,16,-1
 225 253 l 2,17,18
 225 186 225 186 248 154.5 c 128,-1,19
 271 123 271 123 320 123 c 0,20,21
 370 123 370 123 394 155 c 128,-1,22
 418 187 418 187 418 253 c 2,23,-1
 418 538 l 1,24,-1
 574 538 l 1,25,-1
 574 253 l 2,26,27
 574 187 574 187 598 155 c 128,-1,28
 622 123 622 123 672 123 c 0,29,30
 721 123 721 123 744 154.5 c 128,-1,31
 767 186 767 186 767 253 c 2,32,-1
 767 538 l 1,0,-1
EndSplineSet
EndChar

StartChar: y.ss01
Encoding: 65771 -1 722
Width: 687
GlyphClass: 2
Flags: W
AnchorPoint: "Anchor-14" 341 538 basechar 0
AnchorPoint: "Anchor-12" 679 0 basechar 0
LayerCount: 2
Fore
SplineSet
458 538 m 1,0,-1
 614 538 l 1,1,-1
 614 90 l 2,2,3
 614 -58 614 -58 539 -130 c 128,-1,4
 464 -202 464 -202 321 -202 c 0,5,6
 245 -202 245 -202 177.5 -183 c 128,-1,7
 110 -164 110 -164 64 -128 c 1,8,-1
 126 -16 l 1,9,10
 160 -44 160 -44 209 -60 c 128,-1,11
 258 -76 258 -76 308 -76 c 0,12,13
 386 -76 386 -76 422 -40 c 128,-1,14
 458 -4 458 -4 458 70 c 2,15,-1
 458 88 l 1,16,17
 428 58 428 58 387 42 c 128,-1,18
 346 26 346 26 299 26 c 0,19,20
 193 26 193 26 131 86.5 c 128,-1,21
 69 147 69 147 69 268 c 2,22,-1
 69 538 l 1,23,-1
 225 538 l 1,24,-1
 225 291 l 2,25,26
 225 160 225 160 334 160 c 0,27,28
 390 160 390 160 424 196.5 c 128,-1,29
 458 233 458 233 458 305 c 2,30,-1
 458 538 l 1,0,-1
EndSplineSet
EndChar

StartChar: z.ss01
Encoding: 65781 -1 732
Width: 553
GlyphClass: 2
Flags: W
AnchorPoint: "Anchor-14" 276 538 basechar 0
AnchorPoint: "Anchor-12" 276 0 basechar 0
LayerCount: 2
Fore
SplineSet
321 219 m 1,0,-1
 237 120 l 1,1,-1
 520 120 l 1,2,-1
 520 0 l 1,3,-1
 40 0 l 1,4,-1
 40 94 l 1,5,-1
 147 220 l 1,6,-1
 74 220 l 1,7,-1
 74 324 l 1,8,-1
 235 324 l 1,9,-1
 314 418 l 1,10,-1
 47 418 l 1,11,-1
 47 538 l 1,12,-1
 511 538 l 1,13,-1
 511 444 l 1,14,-1
 409 323 l 1,15,-1
 485 323 l 1,16,-1
 485 219 l 1,17,-1
 321 219 l 1,0,-1
EndSplineSet
EndChar

StartChar: T_h
Encoding: 65786 -1 737
Width: 1243
GlyphClass: 3
Flags: W
LayerCount: 2
Fore
SplineSet
1113.5 486 m 128,-1,1
 1175 426 1175 426 1175 308 c 2,2,-1
 1175 0 l 1,3,-1
 1019 0 l 1,4,-1
 1019 284 l 2,5,6
 1019 348 1019 348 990.5 379.5 c 128,-1,7
 962 411 962 411 910 411 c 0,8,9
 851 411 851 411 816 374.5 c 128,-1,10
 781 338 781 338 781 266 c 2,11,-1
 781 0 l 1,12,-1
 625 0 l 1,13,-1
 625 568 l 1,14,-1
 390 568 l 1,15,-1
 390 0 l 1,16,-1
 228 0 l 1,17,-1
 228 568 l 1,18,-1
 4 568 l 1,19,-1
 4 700 l 1,20,-1
 781 700 l 1,21,-1
 781 482 l 1,22,23
 812 513 812 513 856 529.5 c 128,-1,24
 900 546 900 546 951 546 c 0,25,0
 1052 546 1052 546 1113.5 486 c 128,-1,1
EndSplineSet
Ligature2: "'dlig' Discretionary Ligatures lookup 32 subtable" T h
EndChar

StartChar: fl.ss01
Encoding: 65788 -1 741
Width: 716
GlyphClass: 3
Flags: W
LayerCount: 2
Fore
SplineSet
712 -96 m 1,0,1
 672 -109 672 -109 630 -109 c 0,2,3
 539 -109 539 -109 488 -60.5 c 128,-1,4
 437 -12 437 -12 437 77 c 2,5,-1
 437 523 l 2,6,7
 437 574 437 574 412.5 600 c 128,-1,8
 388 626 388 626 342 626 c 0,9,10
 297 626 297 626 272.5 601 c 128,-1,11
 248 576 248 576 247 526 c 1,12,-1
 381 526 l 1,13,-1
 381 406 l 1,14,-1
 247 406 l 1,15,-1
 247 0 l 1,16,-1
 91 0 l 1,17,-1
 91 406 l 1,18,-1
 8 406 l 1,19,-1
 8 526 l 1,20,-1
 91 526 l 1,21,22
 96 630 96 630 162 690 c 128,-1,23
 228 750 228 750 343 750 c 0,24,25
 465 750 465 750 529 687 c 128,-1,26
 593 624 593 624 593 513 c 2,27,-1
 593 87 l 2,28,29
 593 52 593 52 610.5 33.5 c 128,-1,30
 628 15 628 15 660 15 c 0,31,32
 683 15 683 15 705 25 c 1,33,-1
 712 -96 l 1,0,1
EndSplineSet
EndChar

StartChar: adieresis.sc.alt
Encoding: 65789 -1 742
Width: 655
GlyphClass: 1
Flags: W
LayerCount: 2
Fore
SplineSet
49.5 467 m 128,-1,1
 30 486 30 486 30 516 c 0,2,3
 30 547 30 547 50 566.5 c 128,-1,4
 70 586 70 586 99 586 c 256,5,6
 128 586 128 586 147.5 566 c 128,-1,7
 167 546 167 546 167 516 c 256,8,9
 167 486 167 486 147.5 467 c 128,-1,10
 128 448 128 448 99 448 c 0,11,0
 69 448 69 448 49.5 467 c 128,-1,1
507.5 467 m 128,-1,13
 488 486 488 486 488 516 c 256,14,15
 488 546 488 546 507.5 566 c 128,-1,16
 527 586 527 586 556 586 c 0,17,18
 586 586 586 586 605.5 566.5 c 128,-1,19
 625 547 625 547 625 516 c 0,20,21
 625 486 625 486 605.5 467 c 128,-1,22
 586 448 586 448 556 448 c 0,23,12
 527 448 527 448 507.5 467 c 128,-1,13
664 0 m 1,24,-1
 508 0 l 1,25,-1
 461 113 l 1,26,-1
 192 113 l 1,27,-1
 144 0 l 1,28,-1
 -9 0 l 1,29,-1
 249 575 l 1,30,-1
 405 575 l 1,31,-1
 664 0 l 1,24,-1
327 436 m 1,32,-1
 240 228 l 1,33,-1
 413 228 l 1,34,-1
 327 436 l 1,32,-1
EndSplineSet
EndChar

StartChar: udieresis.sc.alt
Encoding: 65790 -1 743
Width: 686
GlyphClass: 1
Flags: W
LayerCount: 2
Fore
SplineSet
302.5 487.5 m 128,-1,1
 286 504 286 504 286 528 c 0,2,3
 286 553 286 553 302.5 569.5 c 128,-1,4
 319 586 319 586 343 586 c 0,5,6
 369 586 369 586 385.5 569.5 c 128,-1,7
 402 553 402 553 402 528 c 0,8,9
 402 504 402 504 385 487.5 c 128,-1,10
 368 471 368 471 343 471 c 0,11,0
 319 471 319 471 302.5 487.5 c 128,-1,1
143 58 m 128,-1,13
 71 127 71 127 71 248 c 2,14,-1
 71 575 l 1,15,-1
 230 575 l 1,16,-1
 230 253 l 2,17,18
 230 186 230 186 259.5 152.5 c 128,-1,19
 289 119 289 119 345 119 c 256,20,21
 401 119 401 119 430 152.5 c 128,-1,22
 459 186 459 186 459 253 c 2,23,-1
 459 575 l 1,24,-1
 615 575 l 1,25,-1
 615 248 l 2,26,27
 615 127 615 127 543 58 c 128,-1,28
 471 -11 471 -11 343 -11 c 256,29,12
 215 -11 215 -11 143 58 c 128,-1,13
302.5 353.5 m 128,-1,31
 286 370 286 370 286 395 c 0,32,33
 286 419 286 419 302.5 435.5 c 128,-1,34
 319 452 319 452 344 452 c 256,35,36
 369 452 369 452 385.5 435.5 c 128,-1,37
 402 419 402 419 402 395 c 0,38,39
 402 370 402 370 385.5 353.5 c 128,-1,40
 369 337 369 337 344 337 c 256,41,30
 319 337 319 337 302.5 353.5 c 128,-1,31
EndSplineSet
EndChar

StartChar: udieresis.sc.ss01.alt
Encoding: 65791 -1 744
Width: 693
GlyphClass: 1
Flags: W
LayerCount: 2
Fore
SplineSet
302 487.5 m 128,-1,1
 286 504 286 504 286 528 c 0,2,3
 286 553 286 553 302 569.5 c 128,-1,4
 318 586 318 586 343 586 c 256,5,6
 368 586 368 586 385 569.5 c 128,-1,7
 402 553 402 553 402 528 c 0,8,9
 402 504 402 504 385 487.5 c 128,-1,10
 368 471 368 471 343 471 c 256,11,0
 318 471 318 471 302 487.5 c 128,-1,1
458 575 m 1,12,-1
 617 575 l 1,13,-1
 617 0 l 1,14,-1
 464 0 l 1,15,-1
 464 55 l 1,16,17
 404 -11 404 -11 294 -11 c 0,18,19
 188 -11 188 -11 129.5 53 c 128,-1,20
 71 117 71 117 71 232 c 2,21,-1
 71 575 l 1,22,-1
 229 575 l 1,23,-1
 229 241 l 2,24,25
 229 180 229 180 257 149 c 128,-1,26
 285 118 285 118 337 118 c 0,27,28
 392 118 392 118 425 151.5 c 128,-1,29
 458 185 458 185 458 246 c 2,30,-1
 458 575 l 1,12,-1
302 353.5 m 128,-1,32
 286 370 286 370 286 395 c 0,33,34
 286 419 286 419 302 435.5 c 128,-1,35
 318 452 318 452 343 452 c 256,36,37
 368 452 368 452 385 435.5 c 128,-1,38
 402 419 402 419 402 395 c 0,39,40
 402 370 402 370 385 353.5 c 128,-1,41
 368 337 368 337 343 337 c 256,42,31
 318 337 318 337 302 353.5 c 128,-1,32
EndSplineSet
EndChar

StartChar: a.sc
Encoding: 65792 -1 745
Width: 655
GlyphClass: 2
Flags: W
AnchorPoint: "Anchor-14" 327 575 basechar 0
AnchorPoint: "Anchor-13" 664 0 basechar 0
AnchorPoint: "Anchor-12" 327 0 basechar 0
LayerCount: 2
Fore
SplineSet
664 0 m 1,0,-1
 508 0 l 1,1,-1
 461 114 l 1,2,-1
 192 114 l 1,3,-1
 144 0 l 1,4,-1
 -9 0 l 1,5,-1
 249 575 l 1,6,-1
 405 575 l 1,7,-1
 664 0 l 1,0,-1
327 436 m 1,8,-1
 240 228 l 1,9,-1
 413 228 l 1,10,-1
 327 436 l 1,8,-1
EndSplineSet
Substitution2: "'ss01' Style Set 1 lookup 35 subtable" a.sc.ss01
Substitution2: "'salt' Stylistic Alternatives lookup 34 subtable" a.sc.ss01
Substitution2: "'aalt' Access All Alternates lookup 0 subtable" a.sc.ss01
EndChar

StartChar: aogonek.sc
Encoding: 65815 -1 768
Width: 655
GlyphClass: 2
Flags: W
AnchorPoint: "Anchor-14" 327 575 basechar 0
AnchorPoint: "Anchor-13" 664 0 basechar 0
AnchorPoint: "Anchor-12" 327 0 basechar 0
LayerCount: 2
Fore
SplineSet
687 -209 m 1,0,1
 668 -219 668 -219 641 -225.5 c 128,-1,2
 614 -232 614 -232 586 -232 c 0,3,4
 522 -232 522 -232 485 -201.5 c 128,-1,5
 448 -171 448 -171 448 -120 c 0,6,7
 448 -51 448 -51 521 0 c 1,8,-1
 508 0 l 1,9,-1
 461 114 l 1,10,-1
 192 114 l 1,11,-1
 144 0 l 1,12,-1
 -9 0 l 1,13,-1
 249 575 l 1,14,-1
 405 575 l 1,15,-1
 664 0 l 1,16,17
 601 -28 601 -28 574 -53.5 c 128,-1,18
 547 -79 547 -79 547 -107 c 0,19,20
 547 -128 547 -128 562.5 -140.5 c 128,-1,21
 578 -153 578 -153 604 -153 c 0,22,23
 638 -153 638 -153 665 -138 c 1,24,-1
 687 -209 l 1,0,1
327 436 m 1,25,-1
 240 228 l 1,26,-1
 413 228 l 1,27,-1
 327 436 l 1,25,-1
EndSplineSet
Substitution2: "'ss01' Style Set 1 lookup 35 subtable" aogonek.sc.ss01
Substitution2: "'salt' Stylistic Alternatives lookup 34 subtable" aogonek.sc.ss01
Substitution2: "'aalt' Access All Alternates lookup 0 subtable" aogonek.sc.ss01
EndChar

StartChar: ae.sc
Encoding: 65819 -1 772
Width: 919
GlyphClass: 2
Flags: W
AnchorPoint: "Anchor-14" 496 575 basechar 0
AnchorPoint: "Anchor-12" 496 0 basechar 0
LayerCount: 2
Fore
SplineSet
574 234 m 1,0,-1
 574 121 l 1,1,-1
 881 121 l 1,2,-1
 881 0 l 1,3,-1
 418 0 l 1,4,-1
 418 114 l 1,5,-1
 214 114 l 1,6,-1
 153 0 l 1,7,-1
 -9 0 l 1,8,-1
 311 575 l 1,9,-1
 870 575 l 1,10,-1
 870 454 l 1,11,-1
 574 454 l 1,12,-1
 574 349 l 1,13,-1
 835 349 l 1,14,-1
 835 234 l 1,15,-1
 574 234 l 1,0,-1
397 453 m 1,16,-1
 276 228 l 1,17,-1
 418 228 l 1,18,-1
 418 453 l 1,19,-1
 397 453 l 1,16,-1
EndSplineSet
Substitution2: "'ss01' Style Set 1 lookup 35 subtable" ae.sc.ss01
Substitution2: "'salt' Stylistic Alternatives lookup 34 subtable" ae.sc.ss01
Substitution2: "'aalt' Access All Alternates lookup 0 subtable" ae.sc.ss01
EndChar

StartChar: b.sc
Encoding: 65821 -1 774
Width: 658
GlyphClass: 2
Flags: W
AnchorPoint: "Anchor-14" 333 575 basechar 0
AnchorPoint: "Anchor-12" 333 0 basechar 0
LayerCount: 2
Fore
SplineSet
600.5 246 m 128,-1,1
 627 210 627 210 627 158 c 0,2,3
 627 83 627 83 565.5 41.5 c 128,-1,4
 504 0 504 0 387 0 c 2,5,-1
 77 0 l 1,6,-1
 77 575 l 1,7,-1
 371 575 l 2,8,9
 482 575 482 575 540 534 c 128,-1,10
 598 493 598 493 598 424 c 0,11,12
 598 383 598 383 579.5 351 c 128,-1,13
 561 319 561 319 526 300 c 1,14,0
 574 282 574 282 600.5 246 c 128,-1,1
233 464 m 1,15,-1
 233 343 l 1,16,-1
 351 343 l 2,17,18
 394 343 394 343 417 358.5 c 128,-1,19
 440 374 440 374 440 403 c 0,20,21
 440 433 440 433 417.5 448.5 c 128,-1,22
 395 464 395 464 351 464 c 2,23,-1
 233 464 l 1,15,-1
376 111 m 2,24,25
 468 111 468 111 468 174 c 256,26,27
 468 237 468 237 376 237 c 2,28,-1
 233 237 l 1,29,-1
 233 111 l 1,30,-1
 376 111 l 2,24,25
EndSplineSet
EndChar

StartChar: c.sc
Encoding: 65822 -1 775
Width: 626
GlyphClass: 2
Flags: W
AnchorPoint: "Anchor-14" 352 576 basechar 0
AnchorPoint: "Anchor-12" 335 0 basechar 0
LayerCount: 2
Fore
SplineSet
192 27.5 m 128,-1,1
 119 66 119 66 77 134 c 128,-1,2
 35 202 35 202 35 287 c 256,3,4
 35 372 35 372 77 440.5 c 128,-1,5
 119 509 119 509 192 547.5 c 128,-1,6
 265 586 265 586 356 586 c 0,7,8
 439 586 439 586 499.5 561 c 128,-1,9
 560 536 560 536 604 481 c 1,10,-1
 502 388 l 1,11,12
 445 457 445 457 362 457 c 0,13,14
 289 457 289 457 241.5 410 c 128,-1,15
 194 363 194 363 194 287 c 0,16,17
 194 237 194 237 215.5 198.5 c 128,-1,18
 237 160 237 160 275.5 139 c 128,-1,19
 314 118 314 118 362 118 c 0,20,21
 445 118 445 118 502 187 c 1,22,-1
 604 94 l 1,23,24
 561 40 561 40 499.5 14.5 c 128,-1,25
 438 -11 438 -11 356 -11 c 0,26,0
 265 -11 265 -11 192 27.5 c 128,-1,1
EndSplineSet
EndChar

StartChar: ccedilla.sc
Encoding: 65825 -1 778
Width: 626
GlyphClass: 2
Flags: W
AnchorPoint: "Anchor-14" 352 576 basechar 0
AnchorPoint: "Anchor-12" 335 0 basechar 0
LayerCount: 2
Fore
SplineSet
502 187 m 1,1,-1
 604 94 l 1,2,3
 563 42 563 42 505 16.5 c 128,-1,4
 447 -9 447 -9 371 -11 c 1,5,-1
 362 -50 l 1,6,7
 406 -55 406 -55 427.5 -77.5 c 128,-1,8
 449 -100 449 -100 449 -133 c 0,9,10
 449 -179 449 -179 409 -205.5 c 128,-1,11
 369 -232 369 -232 302 -232 c 0,12,13
 276 -232 276 -232 251 -226.5 c 128,-1,14
 226 -221 226 -221 209 -211 c 1,15,-1
 233 -144 l 1,16,17
 265 -159 265 -159 298 -159 c 0,18,19
 350 -159 350 -159 350 -127 c 0,20,21
 350 -98 350 -98 301 -98 c 2,22,-1
 267 -98 l 1,23,-1
 290 -5 l 1,24,25
 215 8 215 8 157.5 48.5 c 128,-1,26
 100 89 100 89 67.5 151 c 128,-1,27
 35 213 35 213 35 287 c 0,28,29
 35 372 35 372 77 440.5 c 128,-1,30
 119 509 119 509 192 547.5 c 128,-1,31
 265 586 265 586 356 586 c 0,32,33
 439 586 439 586 499.5 561 c 128,-1,34
 560 536 560 536 604 481 c 1,35,-1
 502 388 l 1,36,37
 445 457 445 457 362 457 c 0,38,39
 289 457 289 457 241.5 410 c 128,-1,40
 194 363 194 363 194 287 c 0,41,42
 194 237 194 237 215.5 198.5 c 128,-1,43
 237 160 237 160 275.5 139 c 128,-1,44
 314 118 314 118 362 118 c 0,45,0
 445 118 445 118 502 187 c 1,1,-1
EndSplineSet
EndChar

StartChar: uni1E09.sc
Encoding: 65826 -1 779
Width: 626
GlyphClass: 2
Flags: W
AnchorPoint: "Anchor-14" 352 767 basechar 0
AnchorPoint: "Anchor-12" 335 0 basechar 0
LayerCount: 2
Fore
SplineSet
396 789 m 1,0,-1
 564 789 l 1,1,-1
 383 645 l 1,2,-1
 261 645 l 1,3,-1
 396 789 l 1,0,-1
502 187 m 1,5,-1
 604 94 l 1,6,7
 563 42 563 42 505 16.5 c 128,-1,8
 447 -9 447 -9 371 -11 c 1,9,-1
 362 -50 l 1,10,11
 406 -55 406 -55 427.5 -77.5 c 128,-1,12
 449 -100 449 -100 449 -133 c 0,13,14
 449 -179 449 -179 409 -205.5 c 128,-1,15
 369 -232 369 -232 302 -232 c 0,16,17
 276 -232 276 -232 251 -226.5 c 128,-1,18
 226 -221 226 -221 209 -211 c 1,19,-1
 233 -144 l 1,20,21
 265 -159 265 -159 298 -159 c 0,22,23
 350 -159 350 -159 350 -127 c 0,24,25
 350 -98 350 -98 301 -98 c 2,26,-1
 267 -98 l 1,27,-1
 290 -5 l 1,28,29
 215 8 215 8 157.5 48.5 c 128,-1,30
 100 89 100 89 67.5 151 c 128,-1,31
 35 213 35 213 35 287 c 0,32,33
 35 372 35 372 77 440.5 c 128,-1,34
 119 509 119 509 192 547.5 c 128,-1,35
 265 586 265 586 356 586 c 0,36,37
 439 586 439 586 499.5 561 c 128,-1,38
 560 536 560 536 604 481 c 1,39,-1
 502 388 l 1,40,41
 445 457 445 457 362 457 c 0,42,43
 289 457 289 457 241.5 410 c 128,-1,44
 194 363 194 363 194 287 c 0,45,46
 194 237 194 237 215.5 198.5 c 128,-1,47
 237 160 237 160 275.5 139 c 128,-1,48
 314 118 314 118 362 118 c 0,49,4
 445 118 445 118 502 187 c 1,5,-1
EndSplineSet
EndChar

StartChar: d.sc
Encoding: 65829 -1 782
Width: 710
GlyphClass: 2
Flags: W
AnchorPoint: "Anchor-15" 186 291 basechar 0
AnchorPoint: "Anchor-14" 320 575 basechar 0
AnchorPoint: "Anchor-12" 322 0 basechar 0
LayerCount: 2
Fore
SplineSet
77 0 m 1,0,-1
 77 575 l 1,1,-1
 348 575 l 2,2,3
 446 575 446 575 520 540 c 128,-1,4
 594 505 594 505 634.5 440 c 128,-1,5
 675 375 675 375 675 287 c 0,6,7
 675 200 675 200 634.5 135 c 128,-1,8
 594 70 594 70 520 35 c 128,-1,9
 446 0 446 0 348 0 c 2,10,-1
 77 0 l 1,0,-1
343 124 m 2,11,12
 423 124 423 124 469 166.5 c 128,-1,13
 515 209 515 209 515 287 c 256,14,15
 515 365 515 365 469 408 c 128,-1,16
 423 451 423 451 343 451 c 2,17,-1
 235 451 l 1,18,-1
 235 124 l 1,19,-1
 343 124 l 2,11,12
EndSplineSet
EndChar

StartChar: eth.sc
Encoding: 65830 -1 783
Width: 730
GlyphClass: 2
Flags: W
AnchorPoint: "Anchor-15" 206 291 basechar 0
AnchorPoint: "Anchor-14" 340 575 basechar 0
AnchorPoint: "Anchor-12" 342 0 basechar 0
LayerCount: 2
Fore
SplineSet
368 575 m 2,0,1
 466 575 466 575 540 540 c 128,-1,2
 614 505 614 505 654.5 440 c 128,-1,3
 695 375 695 375 695 287 c 0,4,5
 695 200 695 200 654.5 135 c 128,-1,6
 614 70 614 70 540 35 c 128,-1,7
 466 0 466 0 368 0 c 2,8,-1
 97 0 l 1,9,-1
 97 241 l 1,10,-1
 18 241 l 1,11,-1
 18 340 l 1,12,-1
 97 340 l 1,13,-1
 97 575 l 1,14,-1
 368 575 l 2,0,1
363 124 m 2,15,16
 443 124 443 124 489 166.5 c 128,-1,17
 535 209 535 209 535 287 c 256,18,19
 535 365 535 365 489 408 c 128,-1,20
 443 451 443 451 363 451 c 2,21,-1
 255 451 l 1,22,-1
 255 340 l 1,23,-1
 391 340 l 1,24,-1
 391 241 l 1,25,-1
 255 241 l 1,26,-1
 255 124 l 1,27,-1
 363 124 l 2,15,16
EndSplineSet
EndChar

StartChar: e.sc
Encoding: 65836 -1 789
Width: 578
GlyphClass: 2
Flags: W
AnchorPoint: "Anchor-14" 303 575 basechar 0
AnchorPoint: "Anchor-13" 540 0 basechar 0
AnchorPoint: "Anchor-12" 307 0 basechar 0
LayerCount: 2
Fore
SplineSet
233 234 m 1,0,-1
 233 121 l 1,1,-1
 540 121 l 1,2,-1
 540 0 l 1,3,-1
 77 0 l 1,4,-1
 77 575 l 1,5,-1
 529 575 l 1,6,-1
 529 454 l 1,7,-1
 233 454 l 1,8,-1
 233 349 l 1,9,-1
 495 349 l 1,10,-1
 495 234 l 1,11,-1
 233 234 l 1,0,-1
EndSplineSet
Substitution2: "'ss01' Style Set 1 lookup 35 subtable" e.sc.ss01
Substitution2: "'salt' Stylistic Alternatives lookup 34 subtable" e.sc.ss01
Substitution2: "'aalt' Access All Alternates lookup 0 subtable" e.sc.ss01
EndChar

StartChar: uni1E1D.sc
Encoding: 65840 -1 793
Width: 578
GlyphClass: 2
Flags: W
AnchorPoint: "Anchor-14" 303 756 basechar 0
AnchorPoint: "Anchor-13" 540 0 basechar 0
AnchorPoint: "Anchor-12" 307 0 basechar 0
LayerCount: 2
Fore
SplineSet
173 677 m 128,-1,1
 122 718 122 718 119 788 c 1,2,-1
 217 788 l 1,3,4
 218 756 218 756 242.5 736.5 c 128,-1,5
 267 717 267 717 303 717 c 256,6,7
 339 717 339 717 363.5 736.5 c 128,-1,8
 388 756 388 756 389 788 c 1,9,-1
 487 788 l 1,10,11
 484 718 484 718 433 677 c 128,-1,12
 382 636 382 636 303 636 c 256,13,0
 224 636 224 636 173 677 c 128,-1,1
540 0 m 1,14,-1
 346 0 l 1,15,-1
 334 -50 l 1,16,17
 378 -55 378 -55 399.5 -77.5 c 128,-1,18
 421 -100 421 -100 421 -133 c 0,19,20
 421 -179 421 -179 381 -205.5 c 128,-1,21
 341 -232 341 -232 274 -232 c 0,22,23
 248 -232 248 -232 223 -226.5 c 128,-1,24
 198 -221 198 -221 181 -211 c 1,25,-1
 205 -144 l 1,26,27
 237 -159 237 -159 270 -159 c 0,28,29
 322 -159 322 -159 322 -127 c 0,30,31
 322 -98 322 -98 273 -98 c 2,32,-1
 239 -98 l 1,33,-1
 263 0 l 1,34,-1
 77 0 l 1,35,-1
 77 575 l 1,36,-1
 529 575 l 1,37,-1
 529 454 l 1,38,-1
 233 454 l 1,39,-1
 233 349 l 1,40,-1
 495 349 l 1,41,-1
 495 234 l 1,42,-1
 233 234 l 1,43,-1
 233 121 l 1,44,-1
 540 121 l 1,45,-1
 540 0 l 1,14,-1
EndSplineSet
Substitution2: "'ss01' Style Set 1 lookup 35 subtable" uni1E1D.sc.ss01
Substitution2: "'salt' Stylistic Alternatives lookup 34 subtable" uni1E1D.sc.ss01
Substitution2: "'aalt' Access All Alternates lookup 0 subtable" uni1E1D.sc.ss01
EndChar

StartChar: eogonek.sc
Encoding: 65857 -1 810
Width: 578
GlyphClass: 2
Flags: W
AnchorPoint: "Anchor-14" 303 575 basechar 0
AnchorPoint: "Anchor-13" 540 0 basechar 0
AnchorPoint: "Anchor-12" 307 0 basechar 0
LayerCount: 2
Fore
SplineSet
564 -209 m 1,0,1
 545 -219 545 -219 518 -225.5 c 128,-1,2
 491 -232 491 -232 463 -232 c 0,3,4
 399 -232 399 -232 362 -201.5 c 128,-1,5
 325 -171 325 -171 325 -120 c 0,6,7
 325 -51 325 -51 398 0 c 1,8,-1
 77 0 l 1,9,-1
 77 575 l 1,10,-1
 529 575 l 1,11,-1
 529 454 l 1,12,-1
 233 454 l 1,13,-1
 233 349 l 1,14,-1
 495 349 l 1,15,-1
 495 234 l 1,16,-1
 233 234 l 1,17,-1
 233 121 l 1,18,-1
 540 121 l 1,19,-1
 540 1 l 1,20,-1
 541 0 l 1,21,22
 478 -28 478 -28 451 -53.5 c 128,-1,23
 424 -79 424 -79 424 -107 c 0,24,25
 424 -128 424 -128 439.5 -140.5 c 128,-1,26
 455 -153 455 -153 481 -153 c 0,27,28
 515 -153 515 -153 542 -138 c 1,29,-1
 564 -209 l 1,0,1
EndSplineSet
Substitution2: "'ss01' Style Set 1 lookup 35 subtable" eogonek.sc.ss01
Substitution2: "'salt' Stylistic Alternatives lookup 34 subtable" eogonek.sc.ss01
Substitution2: "'aalt' Access All Alternates lookup 0 subtable" eogonek.sc.ss01
EndChar

StartChar: uni0259.sc
Encoding: 65859 -1 812
Width: 676
GlyphClass: 2
Flags: W
AnchorPoint: "Anchor-14" 338 575 basechar 0
AnchorPoint: "Anchor-12" 338 0 basechar 0
LayerCount: 2
Fore
SplineSet
489.5 547.5 m 128,-1,1
 560 509 560 509 600.5 441 c 128,-1,2
 641 373 641 373 641 287 c 256,3,4
 641 201 641 201 602 133 c 128,-1,5
 563 65 563 65 494 27 c 128,-1,6
 425 -11 425 -11 338 -11 c 0,7,8
 250 -11 250 -11 181 27.5 c 128,-1,9
 112 66 112 66 73.5 135.5 c 128,-1,10
 35 205 35 205 35 294 c 2,11,-1
 35 328 l 1,12,-1
 482 328 l 1,13,14
 471 386 471 386 428.5 421.5 c 128,-1,15
 386 457 386 457 324 457 c 0,16,17
 285 457 285 457 249.5 444 c 128,-1,18
 214 431 214 431 185 407 c 1,19,-1
 101 510 l 1,20,21
 141 545 141 545 202 565.5 c 128,-1,22
 263 586 263 586 331 586 c 0,23,0
 419 586 419 586 489.5 547.5 c 128,-1,1
434.5 136.5 m 128,-1,25
 471 168 471 168 481 225 c 1,26,-1
 194 225 l 1,27,28
 205 168 205 168 243.5 136.5 c 128,-1,29
 282 105 282 105 340 105 c 256,30,24
 398 105 398 105 434.5 136.5 c 128,-1,25
EndSplineSet
Substitution2: "'ss01' Style Set 1 lookup 35 subtable" uni0259.sc.ss01
Substitution2: "'salt' Stylistic Alternatives lookup 34 subtable" uni0259.sc.ss01
Substitution2: "'aalt' Access All Alternates lookup 0 subtable" uni0259.sc.ss01
EndChar

StartChar: uni0292.sc
Encoding: 65860 -1 813
Width: 575
GlyphClass: 2
Flags: W
AnchorPoint: "Anchor-14" 280 575 basechar 0
AnchorPoint: "Anchor-12" 280 0 basechar 0
LayerCount: 2
Fore
SplineSet
363 343 m 1,0,1
 447 330 447 330 491.5 286.5 c 128,-1,2
 536 243 536 243 536 179 c 0,3,4
 536 127 536 127 507 84 c 128,-1,5
 478 41 478 41 418 15.5 c 128,-1,6
 358 -10 358 -10 269 -10 c 0,7,8
 201 -10 201 -10 136.5 5 c 128,-1,9
 72 20 72 20 29 47 c 1,10,-1
 80 161 l 1,11,12
 116 137 116 137 165 124.5 c 128,-1,13
 214 112 214 112 265 112 c 0,14,15
 321 112 321 112 352.5 129.5 c 128,-1,16
 384 147 384 147 384 178 c 0,17,18
 384 208 384 208 355 224.5 c 128,-1,19
 326 241 326 241 266 241 c 2,20,-1
 199 241 l 1,21,-1
 199 336 l 1,22,-1
 326 458 l 1,23,-1
 55 458 l 1,24,-1
 55 575 l 1,25,-1
 505 575 l 1,26,-1
 505 480 l 1,27,-1
 363 343 l 1,0,1
EndSplineSet
EndChar

StartChar: f.sc
Encoding: 65862 -1 815
Width: 554
GlyphClass: 1
Flags: W
LayerCount: 2
Fore
SplineSet
529 575 m 1,0,-1
 529 454 l 1,1,-1
 235 454 l 1,2,-1
 235 320 l 1,3,-1
 495 320 l 1,4,-1
 495 199 l 1,5,-1
 235 199 l 1,6,-1
 235 0 l 1,7,-1
 77 0 l 1,8,-1
 77 575 l 1,9,-1
 529 575 l 1,0,-1
EndSplineSet
Substitution2: "'ss01' Style Set 1 lookup 35 subtable" f.sc.ss01
Substitution2: "'salt' Stylistic Alternatives lookup 34 subtable" f.sc.ss01
Substitution2: "'aalt' Access All Alternates lookup 0 subtable" f.sc.ss01
EndChar

StartChar: g.sc
Encoding: 65863 -1 816
Width: 659
GlyphClass: 2
Flags: W
AnchorPoint: "Anchor-14" 356 576 basechar 0
AnchorPoint: "Anchor-12" 346 0 basechar 0
LayerCount: 2
Fore
SplineSet
455 295 m 1,0,-1
 599 295 l 1,1,-1
 599 62 l 1,2,3
 552 27 552 27 488 8 c 128,-1,4
 424 -11 424 -11 362 -11 c 0,5,6
 267 -11 267 -11 192.5 27.5 c 128,-1,7
 118 66 118 66 76.5 134 c 128,-1,8
 35 202 35 202 35 287 c 256,9,10
 35 372 35 372 77 440.5 c 128,-1,11
 119 509 119 509 193.5 547.5 c 128,-1,12
 268 586 268 586 361 586 c 0,13,14
 527 586 527 586 612 483 c 1,15,-1
 508 390 l 1,16,17
 451 457 451 457 363 457 c 0,18,19
 289 457 289 457 241.5 410 c 128,-1,20
 194 363 194 363 194 287 c 0,21,22
 194 212 194 212 241.5 165 c 128,-1,23
 289 118 289 118 365 118 c 0,24,25
 413 118 413 118 455 136 c 1,26,-1
 455 295 l 1,0,-1
EndSplineSet
Substitution2: "'ss01' Style Set 1 lookup 35 subtable" g.sc.ss01
Substitution2: "'salt' Stylistic Alternatives lookup 34 subtable" g.sc.ss01
Substitution2: "'aalt' Access All Alternates lookup 0 subtable" g.sc.ss01
EndChar

StartChar: uni01E5.sc
Encoding: 65871 -1 824
Width: 693
GlyphClass: 2
Flags: W
AnchorPoint: "Anchor-14" 356 576 basechar 0
AnchorPoint: "Anchor-12" 346 0 basechar 0
LayerCount: 2
Fore
SplineSet
674 249 m 1,0,-1
 674 168 l 1,1,-1
 599 168 l 1,2,-1
 599 62 l 1,3,4
 552 27 552 27 488 8 c 128,-1,5
 424 -11 424 -11 362 -11 c 0,6,7
 267 -11 267 -11 192.5 27.5 c 128,-1,8
 118 66 118 66 76.5 134 c 128,-1,9
 35 202 35 202 35 287 c 256,10,11
 35 372 35 372 77 440.5 c 128,-1,12
 119 509 119 509 193.5 547.5 c 128,-1,13
 268 586 268 586 361 586 c 0,14,15
 527 586 527 586 612 483 c 1,16,-1
 508 390 l 1,17,18
 451 457 451 457 363 457 c 0,19,20
 289 457 289 457 241.5 410 c 128,-1,21
 194 363 194 363 194 287 c 0,22,23
 194 212 194 212 241.5 165 c 128,-1,24
 289 118 289 118 365 118 c 0,25,26
 413 118 413 118 455 136 c 1,27,-1
 455 168 l 1,28,-1
 337 168 l 1,29,-1
 337 249 l 1,30,-1
 455 249 l 1,31,-1
 455 295 l 1,32,-1
 599 295 l 1,33,-1
 599 249 l 1,34,-1
 674 249 l 1,0,-1
EndSplineSet
Substitution2: "'ss01' Style Set 1 lookup 35 subtable" uni01E5.sc.ss01
Substitution2: "'salt' Stylistic Alternatives lookup 34 subtable" uni01E5.sc.ss01
Substitution2: "'aalt' Access All Alternates lookup 0 subtable" uni01E5.sc.ss01
EndChar

StartChar: h.sc
Encoding: 65872 -1 825
Width: 704
GlyphClass: 2
Flags: W
AnchorPoint: "Anchor-15" 352 467 basechar 0
AnchorPoint: "Anchor-14" 352 575 basechar 0
AnchorPoint: "Anchor-12" 352 0 basechar 0
LayerCount: 2
Fore
SplineSet
235 0 m 1,0,-1
 77 0 l 1,1,-1
 77 575 l 1,2,-1
 235 575 l 1,3,-1
 235 355 l 1,4,-1
 469 355 l 1,5,-1
 469 575 l 1,6,-1
 627 575 l 1,7,-1
 627 0 l 1,8,-1
 469 0 l 1,9,-1
 469 228 l 1,10,-1
 235 228 l 1,11,-1
 235 0 l 1,0,-1
EndSplineSet
EndChar

StartChar: hbar.sc
Encoding: 65873 -1 826
Width: 744
GlyphClass: 2
Flags: W
AnchorPoint: "Anchor-15" 372 467 basechar 0
AnchorPoint: "Anchor-14" 372 575 basechar 0
AnchorPoint: "Anchor-12" 372 0 basechar 0
LayerCount: 2
Fore
SplineSet
647 517 m 1,0,-1
 724 517 l 1,1,-1
 724 418 l 1,2,-1
 647 418 l 1,3,-1
 647 0 l 1,4,-1
 489 0 l 1,5,-1
 489 228 l 1,6,-1
 255 228 l 1,7,-1
 255 0 l 1,8,-1
 97 0 l 1,9,-1
 97 418 l 1,10,-1
 20 418 l 1,11,-1
 20 517 l 1,12,-1
 97 517 l 1,13,-1
 97 575 l 1,14,-1
 255 575 l 1,15,-1
 255 517 l 1,16,-1
 489 517 l 1,17,-1
 489 575 l 1,18,-1
 647 575 l 1,19,-1
 647 517 l 1,0,-1
255 355 m 1,20,-1
 489 355 l 1,21,-1
 489 418 l 1,22,-1
 255 418 l 1,23,-1
 255 355 l 1,20,-1
EndSplineSet
EndChar

StartChar: i.sc
Encoding: 65878 -1 831
Width: 311
GlyphClass: 2
Flags: W
AnchorPoint: "Anchor-14" 155 575 basechar 0
AnchorPoint: "Anchor-13" 235 0 basechar 0
AnchorPoint: "Anchor-12" 155 0 basechar 0
LayerCount: 2
Fore
SplineSet
235 0 m 1,0,-1
 77 0 l 1,1,-1
 77 575 l 1,2,-1
 235 575 l 1,3,-1
 235 0 l 1,0,-1
EndSplineSet
Substitution2: "'ss01' Style Set 1 lookup 35 subtable" i.sc.ss01
Substitution2: "'salt' Stylistic Alternatives lookup 34 subtable" i.sc.ss01
Substitution2: "'aalt' Access All Alternates lookup 0 subtable" i.sc.ss01
EndChar

StartChar: iacute_j.loclNLD.sc
Encoding: 65881 -1 834
Width: 604
GlyphClass: 1
Flags: W
LayerCount: 2
Fore
SplineSet
165 644 m 1,0,-1
 56 644 l 1,1,-1
 191 789 l 1,2,-1
 346 789 l 1,3,-1
 165 644 l 1,0,-1
500 644 m 1,4,-1
 391 644 l 1,5,-1
 526 789 l 1,6,-1
 682 789 l 1,7,-1
 500 644 l 1,4,-1
42 57 m 1,9,-1
 100 173 l 1,10,11
 173 121 173 121 260 121 c 0,12,13
 390 121 390 121 390 259 c 2,14,-1
 390 575 l 1,15,-1
 549 575 l 1,16,-1
 549 267 l 2,17,18
 549 135 549 135 474 64 c 128,-1,19
 399 -7 399 -7 267 -7 c 0,20,8
 134 -7 134 -7 42 57 c 1,9,-1
214 269 m 1,21,-1
 56 269 l 1,22,-1
 56 575 l 1,23,-1
 214 575 l 1,24,-1
 214 269 l 1,21,-1
EndSplineSet
Substitution2: "'ss01' Style Set 1 lookup 35 subtable" iacute_j.loclNLD.sc.ss01
Substitution2: "'salt' Stylistic Alternatives lookup 34 subtable" iacute_j.loclNLD.sc.ss01
Substitution2: "'aalt' Access All Alternates lookup 0 subtable" iacute_j.loclNLD.sc.ss01
EndChar

StartChar: ij.sc
Encoding: 65892 -1 845
Width: 632
GlyphClass: 2
Flags: W
AnchorPoint: "Anchor-14" 145 575 basechar 0
LayerCount: 2
Fore
SplineSet
50 57 m 1,1,-1
 112 173 l 1,2,3
 184 121 184 121 273 121 c 0,4,5
 402 121 402 121 402 259 c 2,6,-1
 402 575 l 1,7,-1
 561 575 l 1,8,-1
 561 267 l 2,9,10
 561 135 561 135 485.5 64 c 128,-1,11
 410 -7 410 -7 279 -7 c 0,12,0
 142 -7 142 -7 50 57 c 1,1,-1
226 269 m 1,13,-1
 67 269 l 1,14,-1
 67 575 l 1,15,-1
 226 575 l 1,16,-1
 226 269 l 1,13,-1
EndSplineSet
Substitution2: "'ss01' Style Set 1 lookup 35 subtable" ij.sc.ss01
Substitution2: "'salt' Stylistic Alternatives lookup 34 subtable" ij.sc.ss01
Substitution2: "'aalt' Access All Alternates lookup 0 subtable" ij.sc.ss01
EndChar

StartChar: iogonek.sc
Encoding: 65894 -1 847
Width: 311
GlyphClass: 2
Flags: W
AnchorPoint: "Anchor-14" 155 575 basechar 0
AnchorPoint: "Anchor-13" 235 0 basechar 0
AnchorPoint: "Anchor-12" 155 0 basechar 0
LayerCount: 2
Fore
SplineSet
266 -211 m 1,0,1
 237 -232 237 -232 192 -232 c 0,2,3
 138 -232 138 -232 105 -201.5 c 128,-1,4
 72 -171 72 -171 72 -121 c 0,5,6
 72 -54 72 -54 130 0 c 1,7,-1
 77 0 l 1,8,-1
 77 575 l 1,9,-1
 235 575 l 1,10,-1
 235 0 l 1,11,12
 199 -29 199 -29 184.5 -54.5 c 128,-1,13
 170 -80 170 -80 170 -106 c 0,14,15
 170 -127 170 -127 182 -140 c 128,-1,16
 194 -153 194 -153 212 -153 c 256,17,18
 230 -153 230 -153 244 -143 c 1,19,-1
 266 -211 l 1,0,1
EndSplineSet
Substitution2: "'ss01' Style Set 1 lookup 35 subtable" iogonek.sc.ss01
Substitution2: "'salt' Stylistic Alternatives lookup 34 subtable" iogonek.sc.ss01
Substitution2: "'aalt' Access All Alternates lookup 0 subtable" iogonek.sc.ss01
EndChar

StartChar: j.sc
Encoding: 65896 -1 849
Width: 480
GlyphClass: 2
Flags: W
AnchorPoint: "Anchor-14" 230 575 basechar 0
LayerCount: 2
Fore
SplineSet
69.5 11.5 m 128,-1,1
 18 34 18 34 -13 76 c 1,2,-1
 79 174 l 1,3,4
 122 115 122 115 179 115 c 0,5,6
 252 115 252 115 252 202 c 2,7,-1
 252 453 l 1,8,-1
 51 453 l 1,9,-1
 51 575 l 1,10,-1
 409 575 l 1,11,-1
 409 217 l 2,12,13
 409 102 409 102 352 45.5 c 128,-1,14
 295 -11 295 -11 186 -11 c 0,15,0
 121 -11 121 -11 69.5 11.5 c 128,-1,1
EndSplineSet
Substitution2: "'ss01' Style Set 1 lookup 35 subtable" j.sc.ss01
Substitution2: "'salt' Stylistic Alternatives lookup 34 subtable" j.sc.ss01
Substitution2: "'aalt' Access All Alternates lookup 0 subtable" j.sc.ss01
EndChar

StartChar: k.sc
Encoding: 65899 -1 852
Width: 647
GlyphClass: 2
Flags: W
AnchorPoint: "Anchor-14" 333 575 basechar 0
AnchorPoint: "Anchor-12" 333 0 basechar 0
LayerCount: 2
Fore
SplineSet
654 0 m 1,0,-1
 470 0 l 1,1,-1
 298 212 l 1,2,-1
 233 145 l 1,3,-1
 233 0 l 1,4,-1
 77 0 l 1,5,-1
 77 575 l 1,6,-1
 233 575 l 1,7,-1
 233 330 l 1,8,-1
 467 575 l 1,9,-1
 641 575 l 1,10,-1
 402 319 l 1,11,-1
 654 0 l 1,0,-1
EndSplineSet
EndChar

StartChar: l.sc
Encoding: 65903 -1 856
Width: 524
GlyphClass: 2
Flags: W
AnchorPoint: "Anchor-16" 372 575 basechar 0
AnchorPoint: "Anchor-15" 156 322 basechar 0
AnchorPoint: "Anchor-14" 156 575 basechar 0
AnchorPoint: "Anchor-12" 306 0 basechar 0
LayerCount: 2
Fore
SplineSet
516 0 m 1,0,-1
 77 0 l 1,1,-1
 77 575 l 1,2,-1
 235 575 l 1,3,-1
 235 123 l 1,4,-1
 516 123 l 1,5,-1
 516 0 l 1,0,-1
EndSplineSet
EndChar

StartChar: uni01C9.sc
Encoding: 65909 -1 862
Width: 1004
GlyphClass: 2
Flags: W
AnchorPoint: "Anchor-16" 372 575 basechar 0
AnchorPoint: "Anchor-15" 156 322 basechar 0
AnchorPoint: "Anchor-14" 754 575 basechar 0
AnchorPoint: "Anchor-12" 306 0 basechar 0
LayerCount: 2
Fore
SplineSet
575 575 m 1,0,-1
 933 575 l 1,1,-1
 933 217 l 2,2,3
 933 102 933 102 876 45.5 c 128,-1,4
 819 -11 819 -11 710 -11 c 0,5,6
 648 -11 648 -11 598 9.5 c 128,-1,7
 548 30 548 30 516 70 c 1,8,-1
 516 0 l 1,9,-1
 77 0 l 1,10,-1
 77 575 l 1,11,-1
 235 575 l 1,12,-1
 235 123 l 1,13,-1
 516 123 l 1,14,-1
 516 81 l 1,15,-1
 603 174 l 1,16,17
 646 115 646 115 703 115 c 0,18,19
 776 115 776 115 776 202 c 2,20,-1
 776 453 l 1,21,-1
 575 453 l 1,22,-1
 575 575 l 1,0,-1
EndSplineSet
Substitution2: "'ss01' Style Set 1 lookup 35 subtable" uni01C9.sc.ss01
Substitution2: "'salt' Stylistic Alternatives lookup 34 subtable" uni01C9.sc.ss01
Substitution2: "'aalt' Access All Alternates lookup 0 subtable" uni01C9.sc.ss01
EndChar

StartChar: lslash.sc
Encoding: 65911 -1 864
Width: 524
GlyphClass: 2
Flags: W
AnchorPoint: "Anchor-16" 398 575 basechar 0
AnchorPoint: "Anchor-15" 404 327 basechar 0
AnchorPoint: "Anchor-14" 175 575 basechar 0
AnchorPoint: "Anchor-12" 301 0 basechar 0
LayerCount: 2
Fore
SplineSet
235 320 m 1,0,-1
 235 123 l 1,1,-1
 516 123 l 1,2,-1
 516 0 l 1,3,-1
 77 0 l 1,4,-1
 77 201 l 1,5,-1
 23 161 l 1,6,-1
 -35 239 l 1,7,-1
 77 323 l 1,8,-1
 77 575 l 1,9,-1
 235 575 l 1,10,-1
 235 442 l 1,11,-1
 289 483 l 1,12,-1
 346 403 l 1,13,-1
 235 320 l 1,0,-1
EndSplineSet
EndChar

StartChar: m.sc
Encoding: 65912 -1 865
Width: 827
GlyphClass: 2
Flags: W
AnchorPoint: "Anchor-14" 414 575 basechar 0
AnchorPoint: "Anchor-12" 414 0 basechar 0
LayerCount: 2
Fore
SplineSet
749 575 m 1,0,-1
 751 0 l 1,1,-1
 603 0 l 1,2,-1
 602 314 l 1,3,-1
 448 61 l 1,4,-1
 377 61 l 1,5,-1
 224 304 l 1,6,-1
 224 0 l 1,7,-1
 77 0 l 1,8,-1
 77 575 l 1,9,-1
 209 575 l 1,10,-1
 415 241 l 1,11,-1
 616 575 l 1,12,-1
 749 575 l 1,0,-1
EndSplineSet
Substitution2: "'ss01' Style Set 1 lookup 35 subtable" m.sc.ss01
Substitution2: "'salt' Stylistic Alternatives lookup 34 subtable" m.sc.ss01
Substitution2: "'aalt' Access All Alternates lookup 0 subtable" m.sc.ss01
EndChar

StartChar: n.sc
Encoding: 65914 -1 867
Width: 704
GlyphClass: 2
Flags: W
AnchorPoint: "Anchor-14" 352 575 basechar 0
AnchorPoint: "Anchor-12" 352 0 basechar 0
LayerCount: 2
Fore
SplineSet
472 257 m 1,0,-1
 472 575 l 1,1,-1
 627 575 l 1,2,-1
 627 0 l 1,3,-1
 497 0 l 1,4,-1
 232 317 l 1,5,-1
 232 0 l 1,6,-1
 77 0 l 1,7,-1
 77 575 l 1,8,-1
 207 575 l 1,9,-1
 472 257 l 1,0,-1
EndSplineSet
Substitution2: "'ss01' Style Set 1 lookup 35 subtable" n.sc.ss01
Substitution2: "'salt' Stylistic Alternatives lookup 34 subtable" n.sc.ss01
Substitution2: "'aalt' Access All Alternates lookup 0 subtable" n.sc.ss01
EndChar

